M48
; DRILL file KiCad 10.0.1 date 2026-05-23T15:45:29
; FORMAT={-:-/ absolute / metric / decimal}
; #@! TF.CreationDate,2026-05-23T15:45:29+08:00
; #@! TF.GenerationSoftware,Kicad,Pcbnew,10.0.1
; #@! TF.FileFunction,Plated,1,2,PTH
FMAT,2
METRIC
; #@! TA.AperFunction,Plated,PTH,ViaDrill
T1C0.300
; #@! TA.AperFunction,Plated,PTH,ComponentDrill
T2C0.900
; #@! TA.AperFunction,Plated,PTH,ComponentDrill
T3C1.000
; #@! TA.AperFunction,Plated,PTH,ComponentDrill
T4C1.100
; #@! TA.AperFunction,Plated,PTH,ComponentDrill
T5C1.500
%
G90
G05
T1
X177.1Y-91.7
X247.4Y-87.9
X248.3Y-88.8
X249.6Y-90.4
X250.7Y-92.0
X262.6Y-72.9
X263.266Y-73.344
X265.1Y-74.7
X266.2Y-76.4
T2
X171.336Y-98.86
X171.336Y-101.4
X180.206Y-98.86
X180.206Y-101.4
T3
X173.5Y-48.54
X173.5Y-51.08
X173.5Y-53.62
X173.5Y-56.16
X173.5Y-58.7
X173.5Y-61.24
X173.5Y-63.78
X173.5Y-66.32
X173.5Y-68.86
X173.5Y-71.4
X173.5Y-73.94
X173.5Y-76.48
X173.5Y-79.02
X173.5Y-81.56
X181.3Y-105.6
X181.3Y-108.14
X189.43Y-97.3
X191.97Y-97.3
X225.266Y-97.1
X225.266Y-100.7
X225.266Y-123.59
X225.266Y-127.2
X227.806Y-97.1
X227.806Y-100.7
X227.806Y-123.59
X227.806Y-127.2
X230.346Y-97.1
X230.346Y-100.7
X230.346Y-123.59
X230.346Y-127.2
X232.886Y-97.1
X232.886Y-100.7
X232.886Y-123.59
X232.886Y-127.2
X235.426Y-97.1
X235.426Y-100.7
X235.426Y-123.59
X235.426Y-127.2
X237.966Y-97.1
X237.966Y-100.7
X237.966Y-123.59
X237.966Y-127.2
X240.506Y-97.1
X240.506Y-100.7
X240.506Y-123.59
X240.506Y-127.2
X243.046Y-97.1
X243.046Y-100.7
X243.046Y-123.59
X243.046Y-127.2
X245.586Y-97.1
X245.586Y-100.7
X245.586Y-123.59
X245.586Y-127.2
X248.126Y-97.1
X248.126Y-100.7
X248.126Y-123.59
X248.126Y-127.2
X250.666Y-97.1
X250.666Y-100.7
X250.666Y-123.59
X250.666Y-127.2
X253.206Y-97.1
X253.206Y-100.7
X253.206Y-123.59
X253.206Y-127.2
X255.746Y-97.1
X255.746Y-100.7
X255.746Y-123.59
X255.746Y-127.2
X258.286Y-97.1
X258.286Y-100.7
X258.286Y-123.59
X258.286Y-127.2
X260.826Y-97.1
X260.826Y-100.7
X260.826Y-123.59
X260.826Y-127.2
X263.366Y-97.1
X263.366Y-100.7
X263.366Y-123.59
X263.366Y-127.2
X265.906Y-97.1
X265.906Y-100.7
X265.906Y-123.59
X265.906Y-127.2
X268.446Y-97.1
X268.446Y-100.7
X268.446Y-123.59
X268.446Y-127.2
X270.986Y-97.1
X270.986Y-100.7
X270.986Y-123.59
X270.986Y-127.2
X273.526Y-97.1
X273.526Y-100.7
X273.526Y-123.59
X273.526Y-127.2
X276.066Y-97.1
X276.066Y-100.7
X276.066Y-123.59
X276.066Y-127.2
X278.606Y-97.1
X278.606Y-100.7
X278.606Y-123.59
X278.606Y-127.2
T4
X43.8Y-37.04
X43.8Y-47.2
X43.8Y-56.09
X43.8Y-66.25
X46.181Y-132.29
X46.181Y-142.45
X48.562Y-75.14
X48.562Y-85.3
X50.944Y-94.19
X50.944Y-104.35
X55.706Y-113.24
X55.706Y-123.4
X62.85Y-37.04
X62.85Y-47.2
X62.85Y-56.09
X62.85Y-66.25
X67.612Y-132.29
X67.612Y-142.45
X72.375Y-75.14
X72.375Y-85.3
X77.138Y-94.19
X77.138Y-104.35
X81.9Y-37.04
X81.9Y-47.2
X81.9Y-56.09
X81.9Y-66.25
X86.662Y-113.24
X86.662Y-123.4
X89.044Y-132.29
X89.044Y-142.45
X91.425Y-75.14
X91.425Y-85.3
X96.188Y-94.19
X96.188Y-104.35
X100.95Y-37.04
X100.95Y-47.2
X100.95Y-56.09
X100.95Y-66.25
X105.712Y-113.24
X105.712Y-123.4
X110.475Y-75.14
X110.475Y-85.3
X112.856Y-132.29
X112.856Y-142.45
X115.237Y-94.19
X115.237Y-104.35
X120.0Y-37.04
X120.0Y-47.2
X120.0Y-56.09
X120.0Y-66.25
X124.762Y-113.24
X124.762Y-123.4
X129.525Y-75.14
X129.525Y-85.3
X134.287Y-94.19
X134.287Y-104.35
X139.05Y-37.04
X139.05Y-47.2
X139.05Y-56.09
X139.05Y-66.25
X143.812Y-113.24
X143.812Y-123.4
X148.575Y-75.14
X148.575Y-85.3
X153.338Y-94.19
X153.338Y-104.35
X158.1Y-37.04
X158.1Y-47.2
X158.1Y-56.09
X158.1Y-66.25
X162.862Y-113.24
X162.862Y-123.4
X167.7Y-75.14
X167.7Y-85.3
X174.769Y-132.29
X174.769Y-142.45
X299.615Y-94.19
X299.615Y-104.35
X304.377Y-37.04
X304.377Y-47.2
X304.377Y-56.09
X304.377Y-66.25
X309.14Y-113.24
X309.14Y-123.4
X313.94Y-75.19
X313.94Y-85.35
X318.75Y-94.19
X318.75Y-104.35
X323.512Y-37.04
X323.512Y-47.2
X323.512Y-56.09
X323.512Y-66.25
X328.275Y-113.24
X328.275Y-123.4
X333.037Y-75.14
X333.037Y-85.3
X337.8Y-94.19
X337.8Y-104.35
X342.562Y-37.04
X342.562Y-47.2
X342.562Y-56.09
X342.562Y-66.25
X347.325Y-113.24
X347.325Y-123.4
X352.087Y-75.14
X352.087Y-85.3
X356.85Y-94.19
X356.85Y-104.35
X361.613Y-37.04
X361.613Y-47.2
X361.613Y-56.09
X361.613Y-66.25
X361.613Y-132.29
X361.613Y-142.45
X366.375Y-113.24
X366.375Y-123.4
X371.137Y-75.14
X371.137Y-85.3
X375.9Y-94.19
X375.9Y-104.35
X380.662Y-37.04
X380.662Y-47.2
X380.662Y-56.09
X380.662Y-66.25
X380.662Y-132.29
X380.662Y-142.45
X385.425Y-113.24
X385.425Y-123.4
X390.188Y-75.14
X390.188Y-85.3
X394.95Y-94.19
X394.95Y-104.35
X399.712Y-37.04
X399.712Y-47.2
X399.712Y-56.09
X399.712Y-66.25
X399.712Y-132.29
X399.712Y-142.45
X409.237Y-75.14
X409.237Y-85.3
X418.762Y-113.24
X418.762Y-123.4
X418.762Y-132.29
X418.762Y-142.45
X425.906Y-94.19
X425.906Y-104.35
X428.287Y-56.09
X428.287Y-66.25
X433.05Y-75.14
X433.05Y-85.3
X437.812Y-37.04
X437.812Y-47.2
X437.812Y-132.29
X437.812Y-142.45
T5
X32.37Y-40.11
X32.37Y-59.16
X34.751Y-135.36
X37.133Y-78.21
X38.72Y-37.57
X38.72Y-56.62
X39.514Y-97.26
X41.101Y-132.82
X43.482Y-75.67
X44.276Y-116.31
X45.864Y-94.72
X50.626Y-113.77
X51.42Y-40.11
X51.42Y-59.16
X56.182Y-135.36
X57.77Y-37.57
X57.77Y-56.62
X60.945Y-78.21
X62.532Y-132.82
X65.707Y-97.26
X67.295Y-75.67
X70.47Y-40.11
X70.47Y-59.16
X72.057Y-94.72
X75.233Y-116.31
X76.82Y-37.57
X76.82Y-56.62
X77.614Y-135.36
X79.995Y-78.21
X81.582Y-113.77
X83.964Y-132.82
X84.757Y-97.26
X86.345Y-75.67
X89.52Y-40.11
X89.52Y-59.16
X91.108Y-94.72
X94.282Y-116.31
X95.87Y-37.57
X95.87Y-56.62
X99.045Y-78.21
X100.632Y-113.77
X101.426Y-135.36
X103.807Y-97.26
X105.395Y-75.67
X107.776Y-132.82
X108.57Y-40.11
X108.57Y-59.16
X110.157Y-94.72
X113.332Y-116.31
X114.92Y-37.57
X114.92Y-56.62
X118.095Y-78.21
X119.682Y-113.77
X122.857Y-97.26
X124.445Y-75.67
X127.62Y-40.11
X127.62Y-59.16
X129.207Y-94.72
X132.382Y-116.31
X133.97Y-37.57
X133.97Y-56.62
X137.145Y-78.21
X138.732Y-113.77
X141.907Y-97.26
X143.495Y-75.67
X146.67Y-40.11
X146.67Y-59.16
X148.257Y-94.72
X151.433Y-116.31
X153.02Y-37.57
X153.02Y-56.62
X156.27Y-78.21
X157.782Y-113.77
X162.62Y-75.67
X163.339Y-135.36
X169.689Y-132.82
X288.185Y-97.26
X292.947Y-40.11
X292.947Y-59.16
X294.535Y-94.72
X297.71Y-116.31
X299.298Y-37.57
X299.298Y-56.62
X302.51Y-78.26
X304.06Y-113.77
X307.32Y-97.26
X308.86Y-75.72
X312.082Y-40.11
X312.082Y-59.16
X313.67Y-94.72
X316.845Y-116.31
X318.433Y-37.57
X318.433Y-56.62
X321.607Y-78.21
X323.195Y-113.77
X326.37Y-97.26
X327.957Y-75.67
X331.132Y-40.11
X331.132Y-59.16
X332.72Y-94.72
X335.895Y-116.31
X337.482Y-37.57
X337.482Y-56.62
X340.657Y-78.21
X342.245Y-113.77
X345.42Y-97.26
X347.007Y-75.67
X350.183Y-40.11
X350.183Y-59.16
X350.183Y-135.36
X351.77Y-94.72
X354.945Y-116.31
X356.532Y-37.57
X356.532Y-56.62
X356.532Y-132.82
X359.707Y-78.21
X361.295Y-113.77
X364.47Y-97.26
X366.058Y-75.67
X369.232Y-40.11
X369.232Y-59.16
X369.232Y-135.36
X370.82Y-94.72
X373.995Y-116.31
X375.582Y-37.57
X375.582Y-56.62
X375.582Y-132.82
X378.757Y-78.21
X380.345Y-113.77
X383.52Y-97.26
X385.107Y-75.67
X388.282Y-40.11
X388.282Y-59.16
X388.282Y-135.36
X389.87Y-94.72
X394.632Y-37.57
X394.632Y-56.62
X394.632Y-132.82
X397.808Y-78.21
X404.157Y-75.67
X407.332Y-116.31
X407.332Y-135.36
X413.683Y-113.77
X413.683Y-132.82
X414.476Y-97.26
X416.857Y-59.16
X420.826Y-94.72
X421.62Y-78.21
X423.207Y-56.62
X426.382Y-40.11
X426.382Y-135.36
X427.97Y-75.67
X432.732Y-37.57
X432.732Y-132.82
M30
