%TF.GenerationSoftware,KiCad,Pcbnew,10.0.1*%
%TF.CreationDate,2026-05-23T15:45:30+08:00*%
%TF.ProjectId,BT_Keyboard,42545f4b-6579-4626-9f61-72642e6b6963,rev?*%
%TF.SameCoordinates,Original*%
%TF.FileFunction,Legend,Bot*%
%TF.FilePolarity,Positive*%
%FSLAX46Y46*%
G04 Gerber Fmt 4.6, Leading zero omitted, Abs format (unit mm)*
G04 Created by KiCad (PCBNEW 10.0.1) date 2026-05-23 15:45:30*
%MOMM*%
%LPD*%
G01*
G04 APERTURE LIST*
%ADD10C,0.150000*%
%ADD11C,0.120000*%
G04 APERTURE END LIST*
D10*
X58631069Y-117105714D02*
X57631069Y-117105714D01*
X57631069Y-117105714D02*
X57631069Y-117343809D01*
X57631069Y-117343809D02*
X57678688Y-117486666D01*
X57678688Y-117486666D02*
X57773926Y-117581904D01*
X57773926Y-117581904D02*
X57869164Y-117629523D01*
X57869164Y-117629523D02*
X58059640Y-117677142D01*
X58059640Y-117677142D02*
X58202497Y-117677142D01*
X58202497Y-117677142D02*
X58392973Y-117629523D01*
X58392973Y-117629523D02*
X58488211Y-117581904D01*
X58488211Y-117581904D02*
X58583450Y-117486666D01*
X58583450Y-117486666D02*
X58631069Y-117343809D01*
X58631069Y-117343809D02*
X58631069Y-117105714D01*
X57631069Y-118581904D02*
X57631069Y-118105714D01*
X57631069Y-118105714D02*
X58107259Y-118058095D01*
X58107259Y-118058095D02*
X58059640Y-118105714D01*
X58059640Y-118105714D02*
X58012021Y-118200952D01*
X58012021Y-118200952D02*
X58012021Y-118439047D01*
X58012021Y-118439047D02*
X58059640Y-118534285D01*
X58059640Y-118534285D02*
X58107259Y-118581904D01*
X58107259Y-118581904D02*
X58202497Y-118629523D01*
X58202497Y-118629523D02*
X58440592Y-118629523D01*
X58440592Y-118629523D02*
X58535830Y-118581904D01*
X58535830Y-118581904D02*
X58583450Y-118534285D01*
X58583450Y-118534285D02*
X58631069Y-118439047D01*
X58631069Y-118439047D02*
X58631069Y-118200952D01*
X58631069Y-118200952D02*
X58583450Y-118105714D01*
X58583450Y-118105714D02*
X58535830Y-118058095D01*
X57631069Y-119486666D02*
X57631069Y-119296190D01*
X57631069Y-119296190D02*
X57678688Y-119200952D01*
X57678688Y-119200952D02*
X57726307Y-119153333D01*
X57726307Y-119153333D02*
X57869164Y-119058095D01*
X57869164Y-119058095D02*
X58059640Y-119010476D01*
X58059640Y-119010476D02*
X58440592Y-119010476D01*
X58440592Y-119010476D02*
X58535830Y-119058095D01*
X58535830Y-119058095D02*
X58583450Y-119105714D01*
X58583450Y-119105714D02*
X58631069Y-119200952D01*
X58631069Y-119200952D02*
X58631069Y-119391428D01*
X58631069Y-119391428D02*
X58583450Y-119486666D01*
X58583450Y-119486666D02*
X58535830Y-119534285D01*
X58535830Y-119534285D02*
X58440592Y-119581904D01*
X58440592Y-119581904D02*
X58202497Y-119581904D01*
X58202497Y-119581904D02*
X58107259Y-119534285D01*
X58107259Y-119534285D02*
X58059640Y-119486666D01*
X58059640Y-119486666D02*
X58012021Y-119391428D01*
X58012021Y-119391428D02*
X58012021Y-119200952D01*
X58012021Y-119200952D02*
X58059640Y-119105714D01*
X58059640Y-119105714D02*
X58107259Y-119058095D01*
X58107259Y-119058095D02*
X58202497Y-119010476D01*
X58261069Y-123138095D02*
X57261069Y-123138095D01*
X58261069Y-123709523D02*
X57689640Y-123280952D01*
X57261069Y-123709523D02*
X57832497Y-123138095D01*
X65774819Y-59955714D02*
X64774819Y-59955714D01*
X64774819Y-59955714D02*
X64774819Y-60193809D01*
X64774819Y-60193809D02*
X64822438Y-60336666D01*
X64822438Y-60336666D02*
X64917676Y-60431904D01*
X64917676Y-60431904D02*
X65012914Y-60479523D01*
X65012914Y-60479523D02*
X65203390Y-60527142D01*
X65203390Y-60527142D02*
X65346247Y-60527142D01*
X65346247Y-60527142D02*
X65536723Y-60479523D01*
X65536723Y-60479523D02*
X65631961Y-60431904D01*
X65631961Y-60431904D02*
X65727200Y-60336666D01*
X65727200Y-60336666D02*
X65774819Y-60193809D01*
X65774819Y-60193809D02*
X65774819Y-59955714D01*
X65774819Y-61479523D02*
X65774819Y-60908095D01*
X65774819Y-61193809D02*
X64774819Y-61193809D01*
X64774819Y-61193809D02*
X64917676Y-61098571D01*
X64917676Y-61098571D02*
X65012914Y-61003333D01*
X65012914Y-61003333D02*
X65060533Y-60908095D01*
X64774819Y-62336666D02*
X64774819Y-62146190D01*
X64774819Y-62146190D02*
X64822438Y-62050952D01*
X64822438Y-62050952D02*
X64870057Y-62003333D01*
X64870057Y-62003333D02*
X65012914Y-61908095D01*
X65012914Y-61908095D02*
X65203390Y-61860476D01*
X65203390Y-61860476D02*
X65584342Y-61860476D01*
X65584342Y-61860476D02*
X65679580Y-61908095D01*
X65679580Y-61908095D02*
X65727200Y-61955714D01*
X65727200Y-61955714D02*
X65774819Y-62050952D01*
X65774819Y-62050952D02*
X65774819Y-62241428D01*
X65774819Y-62241428D02*
X65727200Y-62336666D01*
X65727200Y-62336666D02*
X65679580Y-62384285D01*
X65679580Y-62384285D02*
X65584342Y-62431904D01*
X65584342Y-62431904D02*
X65346247Y-62431904D01*
X65346247Y-62431904D02*
X65251009Y-62384285D01*
X65251009Y-62384285D02*
X65203390Y-62336666D01*
X65203390Y-62336666D02*
X65155771Y-62241428D01*
X65155771Y-62241428D02*
X65155771Y-62050952D01*
X65155771Y-62050952D02*
X65203390Y-61955714D01*
X65203390Y-61955714D02*
X65251009Y-61908095D01*
X65251009Y-61908095D02*
X65346247Y-61860476D01*
X65404819Y-65988095D02*
X64404819Y-65988095D01*
X65404819Y-66559523D02*
X64833390Y-66130952D01*
X64404819Y-66559523D02*
X64976247Y-65988095D01*
X307302319Y-41381905D02*
X306302319Y-41381905D01*
X306302319Y-41381905D02*
X306302319Y-41620000D01*
X306302319Y-41620000D02*
X306349938Y-41762857D01*
X306349938Y-41762857D02*
X306445176Y-41858095D01*
X306445176Y-41858095D02*
X306540414Y-41905714D01*
X306540414Y-41905714D02*
X306730890Y-41953333D01*
X306730890Y-41953333D02*
X306873747Y-41953333D01*
X306873747Y-41953333D02*
X307064223Y-41905714D01*
X307064223Y-41905714D02*
X307159461Y-41858095D01*
X307159461Y-41858095D02*
X307254700Y-41762857D01*
X307254700Y-41762857D02*
X307302319Y-41620000D01*
X307302319Y-41620000D02*
X307302319Y-41381905D01*
X306730890Y-42524762D02*
X306683271Y-42429524D01*
X306683271Y-42429524D02*
X306635652Y-42381905D01*
X306635652Y-42381905D02*
X306540414Y-42334286D01*
X306540414Y-42334286D02*
X306492795Y-42334286D01*
X306492795Y-42334286D02*
X306397557Y-42381905D01*
X306397557Y-42381905D02*
X306349938Y-42429524D01*
X306349938Y-42429524D02*
X306302319Y-42524762D01*
X306302319Y-42524762D02*
X306302319Y-42715238D01*
X306302319Y-42715238D02*
X306349938Y-42810476D01*
X306349938Y-42810476D02*
X306397557Y-42858095D01*
X306397557Y-42858095D02*
X306492795Y-42905714D01*
X306492795Y-42905714D02*
X306540414Y-42905714D01*
X306540414Y-42905714D02*
X306635652Y-42858095D01*
X306635652Y-42858095D02*
X306683271Y-42810476D01*
X306683271Y-42810476D02*
X306730890Y-42715238D01*
X306730890Y-42715238D02*
X306730890Y-42524762D01*
X306730890Y-42524762D02*
X306778509Y-42429524D01*
X306778509Y-42429524D02*
X306826128Y-42381905D01*
X306826128Y-42381905D02*
X306921366Y-42334286D01*
X306921366Y-42334286D02*
X307111842Y-42334286D01*
X307111842Y-42334286D02*
X307207080Y-42381905D01*
X307207080Y-42381905D02*
X307254700Y-42429524D01*
X307254700Y-42429524D02*
X307302319Y-42524762D01*
X307302319Y-42524762D02*
X307302319Y-42715238D01*
X307302319Y-42715238D02*
X307254700Y-42810476D01*
X307254700Y-42810476D02*
X307207080Y-42858095D01*
X307207080Y-42858095D02*
X307111842Y-42905714D01*
X307111842Y-42905714D02*
X306921366Y-42905714D01*
X306921366Y-42905714D02*
X306826128Y-42858095D01*
X306826128Y-42858095D02*
X306778509Y-42810476D01*
X306778509Y-42810476D02*
X306730890Y-42715238D01*
X306932319Y-46938095D02*
X305932319Y-46938095D01*
X306932319Y-47509523D02*
X306360890Y-47080952D01*
X305932319Y-47509523D02*
X306503747Y-46938095D01*
X383587319Y-136155714D02*
X382587319Y-136155714D01*
X382587319Y-136155714D02*
X382587319Y-136393809D01*
X382587319Y-136393809D02*
X382634938Y-136536666D01*
X382634938Y-136536666D02*
X382730176Y-136631904D01*
X382730176Y-136631904D02*
X382825414Y-136679523D01*
X382825414Y-136679523D02*
X383015890Y-136727142D01*
X383015890Y-136727142D02*
X383158747Y-136727142D01*
X383158747Y-136727142D02*
X383349223Y-136679523D01*
X383349223Y-136679523D02*
X383444461Y-136631904D01*
X383444461Y-136631904D02*
X383539700Y-136536666D01*
X383539700Y-136536666D02*
X383587319Y-136393809D01*
X383587319Y-136393809D02*
X383587319Y-136155714D01*
X382587319Y-137060476D02*
X382587319Y-137727142D01*
X382587319Y-137727142D02*
X383587319Y-137298571D01*
X382920652Y-138536666D02*
X383587319Y-138536666D01*
X382539700Y-138298571D02*
X383253985Y-138060476D01*
X383253985Y-138060476D02*
X383253985Y-138679523D01*
X383217319Y-142188095D02*
X382217319Y-142188095D01*
X383217319Y-142759523D02*
X382645890Y-142330952D01*
X382217319Y-142759523D02*
X382788747Y-142188095D01*
X127687319Y-117105714D02*
X126687319Y-117105714D01*
X126687319Y-117105714D02*
X126687319Y-117343809D01*
X126687319Y-117343809D02*
X126734938Y-117486666D01*
X126734938Y-117486666D02*
X126830176Y-117581904D01*
X126830176Y-117581904D02*
X126925414Y-117629523D01*
X126925414Y-117629523D02*
X127115890Y-117677142D01*
X127115890Y-117677142D02*
X127258747Y-117677142D01*
X127258747Y-117677142D02*
X127449223Y-117629523D01*
X127449223Y-117629523D02*
X127544461Y-117581904D01*
X127544461Y-117581904D02*
X127639700Y-117486666D01*
X127639700Y-117486666D02*
X127687319Y-117343809D01*
X127687319Y-117343809D02*
X127687319Y-117105714D01*
X126687319Y-118581904D02*
X126687319Y-118105714D01*
X126687319Y-118105714D02*
X127163509Y-118058095D01*
X127163509Y-118058095D02*
X127115890Y-118105714D01*
X127115890Y-118105714D02*
X127068271Y-118200952D01*
X127068271Y-118200952D02*
X127068271Y-118439047D01*
X127068271Y-118439047D02*
X127115890Y-118534285D01*
X127115890Y-118534285D02*
X127163509Y-118581904D01*
X127163509Y-118581904D02*
X127258747Y-118629523D01*
X127258747Y-118629523D02*
X127496842Y-118629523D01*
X127496842Y-118629523D02*
X127592080Y-118581904D01*
X127592080Y-118581904D02*
X127639700Y-118534285D01*
X127639700Y-118534285D02*
X127687319Y-118439047D01*
X127687319Y-118439047D02*
X127687319Y-118200952D01*
X127687319Y-118200952D02*
X127639700Y-118105714D01*
X127639700Y-118105714D02*
X127592080Y-118058095D01*
X127687319Y-119105714D02*
X127687319Y-119296190D01*
X127687319Y-119296190D02*
X127639700Y-119391428D01*
X127639700Y-119391428D02*
X127592080Y-119439047D01*
X127592080Y-119439047D02*
X127449223Y-119534285D01*
X127449223Y-119534285D02*
X127258747Y-119581904D01*
X127258747Y-119581904D02*
X126877795Y-119581904D01*
X126877795Y-119581904D02*
X126782557Y-119534285D01*
X126782557Y-119534285D02*
X126734938Y-119486666D01*
X126734938Y-119486666D02*
X126687319Y-119391428D01*
X126687319Y-119391428D02*
X126687319Y-119200952D01*
X126687319Y-119200952D02*
X126734938Y-119105714D01*
X126734938Y-119105714D02*
X126782557Y-119058095D01*
X126782557Y-119058095D02*
X126877795Y-119010476D01*
X126877795Y-119010476D02*
X127115890Y-119010476D01*
X127115890Y-119010476D02*
X127211128Y-119058095D01*
X127211128Y-119058095D02*
X127258747Y-119105714D01*
X127258747Y-119105714D02*
X127306366Y-119200952D01*
X127306366Y-119200952D02*
X127306366Y-119391428D01*
X127306366Y-119391428D02*
X127258747Y-119486666D01*
X127258747Y-119486666D02*
X127211128Y-119534285D01*
X127211128Y-119534285D02*
X127115890Y-119581904D01*
X127317319Y-123138095D02*
X126317319Y-123138095D01*
X127317319Y-123709523D02*
X126745890Y-123280952D01*
X126317319Y-123709523D02*
X126888747Y-123138095D01*
X402637319Y-59955714D02*
X401637319Y-59955714D01*
X401637319Y-59955714D02*
X401637319Y-60193809D01*
X401637319Y-60193809D02*
X401684938Y-60336666D01*
X401684938Y-60336666D02*
X401780176Y-60431904D01*
X401780176Y-60431904D02*
X401875414Y-60479523D01*
X401875414Y-60479523D02*
X402065890Y-60527142D01*
X402065890Y-60527142D02*
X402208747Y-60527142D01*
X402208747Y-60527142D02*
X402399223Y-60479523D01*
X402399223Y-60479523D02*
X402494461Y-60431904D01*
X402494461Y-60431904D02*
X402589700Y-60336666D01*
X402589700Y-60336666D02*
X402637319Y-60193809D01*
X402637319Y-60193809D02*
X402637319Y-59955714D01*
X401732557Y-60908095D02*
X401684938Y-60955714D01*
X401684938Y-60955714D02*
X401637319Y-61050952D01*
X401637319Y-61050952D02*
X401637319Y-61289047D01*
X401637319Y-61289047D02*
X401684938Y-61384285D01*
X401684938Y-61384285D02*
X401732557Y-61431904D01*
X401732557Y-61431904D02*
X401827795Y-61479523D01*
X401827795Y-61479523D02*
X401923033Y-61479523D01*
X401923033Y-61479523D02*
X402065890Y-61431904D01*
X402065890Y-61431904D02*
X402637319Y-60860476D01*
X402637319Y-60860476D02*
X402637319Y-61479523D01*
X401637319Y-61812857D02*
X401637319Y-62479523D01*
X401637319Y-62479523D02*
X402637319Y-62050952D01*
X402267319Y-65988095D02*
X401267319Y-65988095D01*
X402267319Y-66559523D02*
X401695890Y-66130952D01*
X401267319Y-66559523D02*
X401838747Y-65988095D01*
X75299819Y-79005714D02*
X74299819Y-79005714D01*
X74299819Y-79005714D02*
X74299819Y-79243809D01*
X74299819Y-79243809D02*
X74347438Y-79386666D01*
X74347438Y-79386666D02*
X74442676Y-79481904D01*
X74442676Y-79481904D02*
X74537914Y-79529523D01*
X74537914Y-79529523D02*
X74728390Y-79577142D01*
X74728390Y-79577142D02*
X74871247Y-79577142D01*
X74871247Y-79577142D02*
X75061723Y-79529523D01*
X75061723Y-79529523D02*
X75156961Y-79481904D01*
X75156961Y-79481904D02*
X75252200Y-79386666D01*
X75252200Y-79386666D02*
X75299819Y-79243809D01*
X75299819Y-79243809D02*
X75299819Y-79005714D01*
X74299819Y-79910476D02*
X74299819Y-80529523D01*
X74299819Y-80529523D02*
X74680771Y-80196190D01*
X74680771Y-80196190D02*
X74680771Y-80339047D01*
X74680771Y-80339047D02*
X74728390Y-80434285D01*
X74728390Y-80434285D02*
X74776009Y-80481904D01*
X74776009Y-80481904D02*
X74871247Y-80529523D01*
X74871247Y-80529523D02*
X75109342Y-80529523D01*
X75109342Y-80529523D02*
X75204580Y-80481904D01*
X75204580Y-80481904D02*
X75252200Y-80434285D01*
X75252200Y-80434285D02*
X75299819Y-80339047D01*
X75299819Y-80339047D02*
X75299819Y-80053333D01*
X75299819Y-80053333D02*
X75252200Y-79958095D01*
X75252200Y-79958095D02*
X75204580Y-79910476D01*
X74299819Y-81148571D02*
X74299819Y-81243809D01*
X74299819Y-81243809D02*
X74347438Y-81339047D01*
X74347438Y-81339047D02*
X74395057Y-81386666D01*
X74395057Y-81386666D02*
X74490295Y-81434285D01*
X74490295Y-81434285D02*
X74680771Y-81481904D01*
X74680771Y-81481904D02*
X74918866Y-81481904D01*
X74918866Y-81481904D02*
X75109342Y-81434285D01*
X75109342Y-81434285D02*
X75204580Y-81386666D01*
X75204580Y-81386666D02*
X75252200Y-81339047D01*
X75252200Y-81339047D02*
X75299819Y-81243809D01*
X75299819Y-81243809D02*
X75299819Y-81148571D01*
X75299819Y-81148571D02*
X75252200Y-81053333D01*
X75252200Y-81053333D02*
X75204580Y-81005714D01*
X75204580Y-81005714D02*
X75109342Y-80958095D01*
X75109342Y-80958095D02*
X74918866Y-80910476D01*
X74918866Y-80910476D02*
X74680771Y-80910476D01*
X74680771Y-80910476D02*
X74490295Y-80958095D01*
X74490295Y-80958095D02*
X74395057Y-81005714D01*
X74395057Y-81005714D02*
X74347438Y-81053333D01*
X74347438Y-81053333D02*
X74299819Y-81148571D01*
X74929819Y-85038095D02*
X73929819Y-85038095D01*
X74929819Y-85609523D02*
X74358390Y-85180952D01*
X73929819Y-85609523D02*
X74501247Y-85038095D01*
X141974819Y-41381905D02*
X140974819Y-41381905D01*
X140974819Y-41381905D02*
X140974819Y-41620000D01*
X140974819Y-41620000D02*
X141022438Y-41762857D01*
X141022438Y-41762857D02*
X141117676Y-41858095D01*
X141117676Y-41858095D02*
X141212914Y-41905714D01*
X141212914Y-41905714D02*
X141403390Y-41953333D01*
X141403390Y-41953333D02*
X141546247Y-41953333D01*
X141546247Y-41953333D02*
X141736723Y-41905714D01*
X141736723Y-41905714D02*
X141831961Y-41858095D01*
X141831961Y-41858095D02*
X141927200Y-41762857D01*
X141927200Y-41762857D02*
X141974819Y-41620000D01*
X141974819Y-41620000D02*
X141974819Y-41381905D01*
X140974819Y-42810476D02*
X140974819Y-42620000D01*
X140974819Y-42620000D02*
X141022438Y-42524762D01*
X141022438Y-42524762D02*
X141070057Y-42477143D01*
X141070057Y-42477143D02*
X141212914Y-42381905D01*
X141212914Y-42381905D02*
X141403390Y-42334286D01*
X141403390Y-42334286D02*
X141784342Y-42334286D01*
X141784342Y-42334286D02*
X141879580Y-42381905D01*
X141879580Y-42381905D02*
X141927200Y-42429524D01*
X141927200Y-42429524D02*
X141974819Y-42524762D01*
X141974819Y-42524762D02*
X141974819Y-42715238D01*
X141974819Y-42715238D02*
X141927200Y-42810476D01*
X141927200Y-42810476D02*
X141879580Y-42858095D01*
X141879580Y-42858095D02*
X141784342Y-42905714D01*
X141784342Y-42905714D02*
X141546247Y-42905714D01*
X141546247Y-42905714D02*
X141451009Y-42858095D01*
X141451009Y-42858095D02*
X141403390Y-42810476D01*
X141403390Y-42810476D02*
X141355771Y-42715238D01*
X141355771Y-42715238D02*
X141355771Y-42524762D01*
X141355771Y-42524762D02*
X141403390Y-42429524D01*
X141403390Y-42429524D02*
X141451009Y-42381905D01*
X141451009Y-42381905D02*
X141546247Y-42334286D01*
X141604819Y-46938095D02*
X140604819Y-46938095D01*
X141604819Y-47509523D02*
X141033390Y-47080952D01*
X140604819Y-47509523D02*
X141176247Y-46938095D01*
X137212319Y-98055714D02*
X136212319Y-98055714D01*
X136212319Y-98055714D02*
X136212319Y-98293809D01*
X136212319Y-98293809D02*
X136259938Y-98436666D01*
X136259938Y-98436666D02*
X136355176Y-98531904D01*
X136355176Y-98531904D02*
X136450414Y-98579523D01*
X136450414Y-98579523D02*
X136640890Y-98627142D01*
X136640890Y-98627142D02*
X136783747Y-98627142D01*
X136783747Y-98627142D02*
X136974223Y-98579523D01*
X136974223Y-98579523D02*
X137069461Y-98531904D01*
X137069461Y-98531904D02*
X137164700Y-98436666D01*
X137164700Y-98436666D02*
X137212319Y-98293809D01*
X137212319Y-98293809D02*
X137212319Y-98055714D01*
X136545652Y-99484285D02*
X137212319Y-99484285D01*
X136164700Y-99246190D02*
X136878985Y-99008095D01*
X136878985Y-99008095D02*
X136878985Y-99627142D01*
X136212319Y-99912857D02*
X136212319Y-100579523D01*
X136212319Y-100579523D02*
X137212319Y-100150952D01*
X136842319Y-104088095D02*
X135842319Y-104088095D01*
X136842319Y-104659523D02*
X136270890Y-104230952D01*
X135842319Y-104659523D02*
X136413747Y-104088095D01*
X65774819Y-41381905D02*
X64774819Y-41381905D01*
X64774819Y-41381905D02*
X64774819Y-41620000D01*
X64774819Y-41620000D02*
X64822438Y-41762857D01*
X64822438Y-41762857D02*
X64917676Y-41858095D01*
X64917676Y-41858095D02*
X65012914Y-41905714D01*
X65012914Y-41905714D02*
X65203390Y-41953333D01*
X65203390Y-41953333D02*
X65346247Y-41953333D01*
X65346247Y-41953333D02*
X65536723Y-41905714D01*
X65536723Y-41905714D02*
X65631961Y-41858095D01*
X65631961Y-41858095D02*
X65727200Y-41762857D01*
X65727200Y-41762857D02*
X65774819Y-41620000D01*
X65774819Y-41620000D02*
X65774819Y-41381905D01*
X64870057Y-42334286D02*
X64822438Y-42381905D01*
X64822438Y-42381905D02*
X64774819Y-42477143D01*
X64774819Y-42477143D02*
X64774819Y-42715238D01*
X64774819Y-42715238D02*
X64822438Y-42810476D01*
X64822438Y-42810476D02*
X64870057Y-42858095D01*
X64870057Y-42858095D02*
X64965295Y-42905714D01*
X64965295Y-42905714D02*
X65060533Y-42905714D01*
X65060533Y-42905714D02*
X65203390Y-42858095D01*
X65203390Y-42858095D02*
X65774819Y-42286667D01*
X65774819Y-42286667D02*
X65774819Y-42905714D01*
X65404819Y-46938095D02*
X64404819Y-46938095D01*
X65404819Y-47509523D02*
X64833390Y-47080952D01*
X64404819Y-47509523D02*
X64976247Y-46938095D01*
X94349819Y-79005714D02*
X93349819Y-79005714D01*
X93349819Y-79005714D02*
X93349819Y-79243809D01*
X93349819Y-79243809D02*
X93397438Y-79386666D01*
X93397438Y-79386666D02*
X93492676Y-79481904D01*
X93492676Y-79481904D02*
X93587914Y-79529523D01*
X93587914Y-79529523D02*
X93778390Y-79577142D01*
X93778390Y-79577142D02*
X93921247Y-79577142D01*
X93921247Y-79577142D02*
X94111723Y-79529523D01*
X94111723Y-79529523D02*
X94206961Y-79481904D01*
X94206961Y-79481904D02*
X94302200Y-79386666D01*
X94302200Y-79386666D02*
X94349819Y-79243809D01*
X94349819Y-79243809D02*
X94349819Y-79005714D01*
X93349819Y-79910476D02*
X93349819Y-80529523D01*
X93349819Y-80529523D02*
X93730771Y-80196190D01*
X93730771Y-80196190D02*
X93730771Y-80339047D01*
X93730771Y-80339047D02*
X93778390Y-80434285D01*
X93778390Y-80434285D02*
X93826009Y-80481904D01*
X93826009Y-80481904D02*
X93921247Y-80529523D01*
X93921247Y-80529523D02*
X94159342Y-80529523D01*
X94159342Y-80529523D02*
X94254580Y-80481904D01*
X94254580Y-80481904D02*
X94302200Y-80434285D01*
X94302200Y-80434285D02*
X94349819Y-80339047D01*
X94349819Y-80339047D02*
X94349819Y-80053333D01*
X94349819Y-80053333D02*
X94302200Y-79958095D01*
X94302200Y-79958095D02*
X94254580Y-79910476D01*
X94349819Y-81481904D02*
X94349819Y-80910476D01*
X94349819Y-81196190D02*
X93349819Y-81196190D01*
X93349819Y-81196190D02*
X93492676Y-81100952D01*
X93492676Y-81100952D02*
X93587914Y-81005714D01*
X93587914Y-81005714D02*
X93635533Y-80910476D01*
X93979819Y-85038095D02*
X92979819Y-85038095D01*
X93979819Y-85609523D02*
X93408390Y-85180952D01*
X92979819Y-85609523D02*
X93551247Y-85038095D01*
X383587319Y-40905714D02*
X382587319Y-40905714D01*
X382587319Y-40905714D02*
X382587319Y-41143809D01*
X382587319Y-41143809D02*
X382634938Y-41286666D01*
X382634938Y-41286666D02*
X382730176Y-41381904D01*
X382730176Y-41381904D02*
X382825414Y-41429523D01*
X382825414Y-41429523D02*
X383015890Y-41477142D01*
X383015890Y-41477142D02*
X383158747Y-41477142D01*
X383158747Y-41477142D02*
X383349223Y-41429523D01*
X383349223Y-41429523D02*
X383444461Y-41381904D01*
X383444461Y-41381904D02*
X383539700Y-41286666D01*
X383539700Y-41286666D02*
X383587319Y-41143809D01*
X383587319Y-41143809D02*
X383587319Y-40905714D01*
X383587319Y-42429523D02*
X383587319Y-41858095D01*
X383587319Y-42143809D02*
X382587319Y-42143809D01*
X382587319Y-42143809D02*
X382730176Y-42048571D01*
X382730176Y-42048571D02*
X382825414Y-41953333D01*
X382825414Y-41953333D02*
X382873033Y-41858095D01*
X382682557Y-42810476D02*
X382634938Y-42858095D01*
X382634938Y-42858095D02*
X382587319Y-42953333D01*
X382587319Y-42953333D02*
X382587319Y-43191428D01*
X382587319Y-43191428D02*
X382634938Y-43286666D01*
X382634938Y-43286666D02*
X382682557Y-43334285D01*
X382682557Y-43334285D02*
X382777795Y-43381904D01*
X382777795Y-43381904D02*
X382873033Y-43381904D01*
X382873033Y-43381904D02*
X383015890Y-43334285D01*
X383015890Y-43334285D02*
X383587319Y-42762857D01*
X383587319Y-42762857D02*
X383587319Y-43381904D01*
X383217319Y-46938095D02*
X382217319Y-46938095D01*
X383217319Y-47509523D02*
X382645890Y-47080952D01*
X382217319Y-47509523D02*
X382788747Y-46938095D01*
X388349819Y-117105714D02*
X387349819Y-117105714D01*
X387349819Y-117105714D02*
X387349819Y-117343809D01*
X387349819Y-117343809D02*
X387397438Y-117486666D01*
X387397438Y-117486666D02*
X387492676Y-117581904D01*
X387492676Y-117581904D02*
X387587914Y-117629523D01*
X387587914Y-117629523D02*
X387778390Y-117677142D01*
X387778390Y-117677142D02*
X387921247Y-117677142D01*
X387921247Y-117677142D02*
X388111723Y-117629523D01*
X388111723Y-117629523D02*
X388206961Y-117581904D01*
X388206961Y-117581904D02*
X388302200Y-117486666D01*
X388302200Y-117486666D02*
X388349819Y-117343809D01*
X388349819Y-117343809D02*
X388349819Y-117105714D01*
X387349819Y-118534285D02*
X387349819Y-118343809D01*
X387349819Y-118343809D02*
X387397438Y-118248571D01*
X387397438Y-118248571D02*
X387445057Y-118200952D01*
X387445057Y-118200952D02*
X387587914Y-118105714D01*
X387587914Y-118105714D02*
X387778390Y-118058095D01*
X387778390Y-118058095D02*
X388159342Y-118058095D01*
X388159342Y-118058095D02*
X388254580Y-118105714D01*
X388254580Y-118105714D02*
X388302200Y-118153333D01*
X388302200Y-118153333D02*
X388349819Y-118248571D01*
X388349819Y-118248571D02*
X388349819Y-118439047D01*
X388349819Y-118439047D02*
X388302200Y-118534285D01*
X388302200Y-118534285D02*
X388254580Y-118581904D01*
X388254580Y-118581904D02*
X388159342Y-118629523D01*
X388159342Y-118629523D02*
X387921247Y-118629523D01*
X387921247Y-118629523D02*
X387826009Y-118581904D01*
X387826009Y-118581904D02*
X387778390Y-118534285D01*
X387778390Y-118534285D02*
X387730771Y-118439047D01*
X387730771Y-118439047D02*
X387730771Y-118248571D01*
X387730771Y-118248571D02*
X387778390Y-118153333D01*
X387778390Y-118153333D02*
X387826009Y-118105714D01*
X387826009Y-118105714D02*
X387921247Y-118058095D01*
X387349819Y-119486666D02*
X387349819Y-119296190D01*
X387349819Y-119296190D02*
X387397438Y-119200952D01*
X387397438Y-119200952D02*
X387445057Y-119153333D01*
X387445057Y-119153333D02*
X387587914Y-119058095D01*
X387587914Y-119058095D02*
X387778390Y-119010476D01*
X387778390Y-119010476D02*
X388159342Y-119010476D01*
X388159342Y-119010476D02*
X388254580Y-119058095D01*
X388254580Y-119058095D02*
X388302200Y-119105714D01*
X388302200Y-119105714D02*
X388349819Y-119200952D01*
X388349819Y-119200952D02*
X388349819Y-119391428D01*
X388349819Y-119391428D02*
X388302200Y-119486666D01*
X388302200Y-119486666D02*
X388254580Y-119534285D01*
X388254580Y-119534285D02*
X388159342Y-119581904D01*
X388159342Y-119581904D02*
X387921247Y-119581904D01*
X387921247Y-119581904D02*
X387826009Y-119534285D01*
X387826009Y-119534285D02*
X387778390Y-119486666D01*
X387778390Y-119486666D02*
X387730771Y-119391428D01*
X387730771Y-119391428D02*
X387730771Y-119200952D01*
X387730771Y-119200952D02*
X387778390Y-119105714D01*
X387778390Y-119105714D02*
X387826009Y-119058095D01*
X387826009Y-119058095D02*
X387921247Y-119010476D01*
X387979819Y-123138095D02*
X386979819Y-123138095D01*
X387979819Y-123709523D02*
X387408390Y-123280952D01*
X386979819Y-123709523D02*
X387551247Y-123138095D01*
X91968569Y-136155714D02*
X90968569Y-136155714D01*
X90968569Y-136155714D02*
X90968569Y-136393809D01*
X90968569Y-136393809D02*
X91016188Y-136536666D01*
X91016188Y-136536666D02*
X91111426Y-136631904D01*
X91111426Y-136631904D02*
X91206664Y-136679523D01*
X91206664Y-136679523D02*
X91397140Y-136727142D01*
X91397140Y-136727142D02*
X91539997Y-136727142D01*
X91539997Y-136727142D02*
X91730473Y-136679523D01*
X91730473Y-136679523D02*
X91825711Y-136631904D01*
X91825711Y-136631904D02*
X91920950Y-136536666D01*
X91920950Y-136536666D02*
X91968569Y-136393809D01*
X91968569Y-136393809D02*
X91968569Y-136155714D01*
X90968569Y-137060476D02*
X90968569Y-137727142D01*
X90968569Y-137727142D02*
X91968569Y-137298571D01*
X90968569Y-138298571D02*
X90968569Y-138393809D01*
X90968569Y-138393809D02*
X91016188Y-138489047D01*
X91016188Y-138489047D02*
X91063807Y-138536666D01*
X91063807Y-138536666D02*
X91159045Y-138584285D01*
X91159045Y-138584285D02*
X91349521Y-138631904D01*
X91349521Y-138631904D02*
X91587616Y-138631904D01*
X91587616Y-138631904D02*
X91778092Y-138584285D01*
X91778092Y-138584285D02*
X91873330Y-138536666D01*
X91873330Y-138536666D02*
X91920950Y-138489047D01*
X91920950Y-138489047D02*
X91968569Y-138393809D01*
X91968569Y-138393809D02*
X91968569Y-138298571D01*
X91968569Y-138298571D02*
X91920950Y-138203333D01*
X91920950Y-138203333D02*
X91873330Y-138155714D01*
X91873330Y-138155714D02*
X91778092Y-138108095D01*
X91778092Y-138108095D02*
X91587616Y-138060476D01*
X91587616Y-138060476D02*
X91349521Y-138060476D01*
X91349521Y-138060476D02*
X91159045Y-138108095D01*
X91159045Y-138108095D02*
X91063807Y-138155714D01*
X91063807Y-138155714D02*
X91016188Y-138203333D01*
X91016188Y-138203333D02*
X90968569Y-138298571D01*
X91598569Y-142188095D02*
X90598569Y-142188095D01*
X91598569Y-142759523D02*
X91027140Y-142330952D01*
X90598569Y-142759523D02*
X91169997Y-142188095D01*
X378824819Y-98055714D02*
X377824819Y-98055714D01*
X377824819Y-98055714D02*
X377824819Y-98293809D01*
X377824819Y-98293809D02*
X377872438Y-98436666D01*
X377872438Y-98436666D02*
X377967676Y-98531904D01*
X377967676Y-98531904D02*
X378062914Y-98579523D01*
X378062914Y-98579523D02*
X378253390Y-98627142D01*
X378253390Y-98627142D02*
X378396247Y-98627142D01*
X378396247Y-98627142D02*
X378586723Y-98579523D01*
X378586723Y-98579523D02*
X378681961Y-98531904D01*
X378681961Y-98531904D02*
X378777200Y-98436666D01*
X378777200Y-98436666D02*
X378824819Y-98293809D01*
X378824819Y-98293809D02*
X378824819Y-98055714D01*
X377824819Y-99531904D02*
X377824819Y-99055714D01*
X377824819Y-99055714D02*
X378301009Y-99008095D01*
X378301009Y-99008095D02*
X378253390Y-99055714D01*
X378253390Y-99055714D02*
X378205771Y-99150952D01*
X378205771Y-99150952D02*
X378205771Y-99389047D01*
X378205771Y-99389047D02*
X378253390Y-99484285D01*
X378253390Y-99484285D02*
X378301009Y-99531904D01*
X378301009Y-99531904D02*
X378396247Y-99579523D01*
X378396247Y-99579523D02*
X378634342Y-99579523D01*
X378634342Y-99579523D02*
X378729580Y-99531904D01*
X378729580Y-99531904D02*
X378777200Y-99484285D01*
X378777200Y-99484285D02*
X378824819Y-99389047D01*
X378824819Y-99389047D02*
X378824819Y-99150952D01*
X378824819Y-99150952D02*
X378777200Y-99055714D01*
X378777200Y-99055714D02*
X378729580Y-99008095D01*
X377824819Y-99912857D02*
X377824819Y-100531904D01*
X377824819Y-100531904D02*
X378205771Y-100198571D01*
X378205771Y-100198571D02*
X378205771Y-100341428D01*
X378205771Y-100341428D02*
X378253390Y-100436666D01*
X378253390Y-100436666D02*
X378301009Y-100484285D01*
X378301009Y-100484285D02*
X378396247Y-100531904D01*
X378396247Y-100531904D02*
X378634342Y-100531904D01*
X378634342Y-100531904D02*
X378729580Y-100484285D01*
X378729580Y-100484285D02*
X378777200Y-100436666D01*
X378777200Y-100436666D02*
X378824819Y-100341428D01*
X378824819Y-100341428D02*
X378824819Y-100055714D01*
X378824819Y-100055714D02*
X378777200Y-99960476D01*
X378777200Y-99960476D02*
X378729580Y-99912857D01*
X378454819Y-104088095D02*
X377454819Y-104088095D01*
X378454819Y-104659523D02*
X377883390Y-104230952D01*
X377454819Y-104659523D02*
X378026247Y-104088095D01*
X369299819Y-117105714D02*
X368299819Y-117105714D01*
X368299819Y-117105714D02*
X368299819Y-117343809D01*
X368299819Y-117343809D02*
X368347438Y-117486666D01*
X368347438Y-117486666D02*
X368442676Y-117581904D01*
X368442676Y-117581904D02*
X368537914Y-117629523D01*
X368537914Y-117629523D02*
X368728390Y-117677142D01*
X368728390Y-117677142D02*
X368871247Y-117677142D01*
X368871247Y-117677142D02*
X369061723Y-117629523D01*
X369061723Y-117629523D02*
X369156961Y-117581904D01*
X369156961Y-117581904D02*
X369252200Y-117486666D01*
X369252200Y-117486666D02*
X369299819Y-117343809D01*
X369299819Y-117343809D02*
X369299819Y-117105714D01*
X368299819Y-118534285D02*
X368299819Y-118343809D01*
X368299819Y-118343809D02*
X368347438Y-118248571D01*
X368347438Y-118248571D02*
X368395057Y-118200952D01*
X368395057Y-118200952D02*
X368537914Y-118105714D01*
X368537914Y-118105714D02*
X368728390Y-118058095D01*
X368728390Y-118058095D02*
X369109342Y-118058095D01*
X369109342Y-118058095D02*
X369204580Y-118105714D01*
X369204580Y-118105714D02*
X369252200Y-118153333D01*
X369252200Y-118153333D02*
X369299819Y-118248571D01*
X369299819Y-118248571D02*
X369299819Y-118439047D01*
X369299819Y-118439047D02*
X369252200Y-118534285D01*
X369252200Y-118534285D02*
X369204580Y-118581904D01*
X369204580Y-118581904D02*
X369109342Y-118629523D01*
X369109342Y-118629523D02*
X368871247Y-118629523D01*
X368871247Y-118629523D02*
X368776009Y-118581904D01*
X368776009Y-118581904D02*
X368728390Y-118534285D01*
X368728390Y-118534285D02*
X368680771Y-118439047D01*
X368680771Y-118439047D02*
X368680771Y-118248571D01*
X368680771Y-118248571D02*
X368728390Y-118153333D01*
X368728390Y-118153333D02*
X368776009Y-118105714D01*
X368776009Y-118105714D02*
X368871247Y-118058095D01*
X368299819Y-119534285D02*
X368299819Y-119058095D01*
X368299819Y-119058095D02*
X368776009Y-119010476D01*
X368776009Y-119010476D02*
X368728390Y-119058095D01*
X368728390Y-119058095D02*
X368680771Y-119153333D01*
X368680771Y-119153333D02*
X368680771Y-119391428D01*
X368680771Y-119391428D02*
X368728390Y-119486666D01*
X368728390Y-119486666D02*
X368776009Y-119534285D01*
X368776009Y-119534285D02*
X368871247Y-119581904D01*
X368871247Y-119581904D02*
X369109342Y-119581904D01*
X369109342Y-119581904D02*
X369204580Y-119534285D01*
X369204580Y-119534285D02*
X369252200Y-119486666D01*
X369252200Y-119486666D02*
X369299819Y-119391428D01*
X369299819Y-119391428D02*
X369299819Y-119153333D01*
X369299819Y-119153333D02*
X369252200Y-119058095D01*
X369252200Y-119058095D02*
X369204580Y-119010476D01*
X368929819Y-123138095D02*
X367929819Y-123138095D01*
X368929819Y-123709523D02*
X368358390Y-123280952D01*
X367929819Y-123709523D02*
X368501247Y-123138095D01*
X84824819Y-59955714D02*
X83824819Y-59955714D01*
X83824819Y-59955714D02*
X83824819Y-60193809D01*
X83824819Y-60193809D02*
X83872438Y-60336666D01*
X83872438Y-60336666D02*
X83967676Y-60431904D01*
X83967676Y-60431904D02*
X84062914Y-60479523D01*
X84062914Y-60479523D02*
X84253390Y-60527142D01*
X84253390Y-60527142D02*
X84396247Y-60527142D01*
X84396247Y-60527142D02*
X84586723Y-60479523D01*
X84586723Y-60479523D02*
X84681961Y-60431904D01*
X84681961Y-60431904D02*
X84777200Y-60336666D01*
X84777200Y-60336666D02*
X84824819Y-60193809D01*
X84824819Y-60193809D02*
X84824819Y-59955714D01*
X84824819Y-61479523D02*
X84824819Y-60908095D01*
X84824819Y-61193809D02*
X83824819Y-61193809D01*
X83824819Y-61193809D02*
X83967676Y-61098571D01*
X83967676Y-61098571D02*
X84062914Y-61003333D01*
X84062914Y-61003333D02*
X84110533Y-60908095D01*
X83824819Y-61812857D02*
X83824819Y-62479523D01*
X83824819Y-62479523D02*
X84824819Y-62050952D01*
X84454819Y-65988095D02*
X83454819Y-65988095D01*
X84454819Y-66559523D02*
X83883390Y-66130952D01*
X83454819Y-66559523D02*
X84026247Y-65988095D01*
X374062319Y-79005714D02*
X373062319Y-79005714D01*
X373062319Y-79005714D02*
X373062319Y-79243809D01*
X373062319Y-79243809D02*
X373109938Y-79386666D01*
X373109938Y-79386666D02*
X373205176Y-79481904D01*
X373205176Y-79481904D02*
X373300414Y-79529523D01*
X373300414Y-79529523D02*
X373490890Y-79577142D01*
X373490890Y-79577142D02*
X373633747Y-79577142D01*
X373633747Y-79577142D02*
X373824223Y-79529523D01*
X373824223Y-79529523D02*
X373919461Y-79481904D01*
X373919461Y-79481904D02*
X374014700Y-79386666D01*
X374014700Y-79386666D02*
X374062319Y-79243809D01*
X374062319Y-79243809D02*
X374062319Y-79005714D01*
X373062319Y-79910476D02*
X373062319Y-80529523D01*
X373062319Y-80529523D02*
X373443271Y-80196190D01*
X373443271Y-80196190D02*
X373443271Y-80339047D01*
X373443271Y-80339047D02*
X373490890Y-80434285D01*
X373490890Y-80434285D02*
X373538509Y-80481904D01*
X373538509Y-80481904D02*
X373633747Y-80529523D01*
X373633747Y-80529523D02*
X373871842Y-80529523D01*
X373871842Y-80529523D02*
X373967080Y-80481904D01*
X373967080Y-80481904D02*
X374014700Y-80434285D01*
X374014700Y-80434285D02*
X374062319Y-80339047D01*
X374062319Y-80339047D02*
X374062319Y-80053333D01*
X374062319Y-80053333D02*
X374014700Y-79958095D01*
X374014700Y-79958095D02*
X373967080Y-79910476D01*
X374062319Y-81005714D02*
X374062319Y-81196190D01*
X374062319Y-81196190D02*
X374014700Y-81291428D01*
X374014700Y-81291428D02*
X373967080Y-81339047D01*
X373967080Y-81339047D02*
X373824223Y-81434285D01*
X373824223Y-81434285D02*
X373633747Y-81481904D01*
X373633747Y-81481904D02*
X373252795Y-81481904D01*
X373252795Y-81481904D02*
X373157557Y-81434285D01*
X373157557Y-81434285D02*
X373109938Y-81386666D01*
X373109938Y-81386666D02*
X373062319Y-81291428D01*
X373062319Y-81291428D02*
X373062319Y-81100952D01*
X373062319Y-81100952D02*
X373109938Y-81005714D01*
X373109938Y-81005714D02*
X373157557Y-80958095D01*
X373157557Y-80958095D02*
X373252795Y-80910476D01*
X373252795Y-80910476D02*
X373490890Y-80910476D01*
X373490890Y-80910476D02*
X373586128Y-80958095D01*
X373586128Y-80958095D02*
X373633747Y-81005714D01*
X373633747Y-81005714D02*
X373681366Y-81100952D01*
X373681366Y-81100952D02*
X373681366Y-81291428D01*
X373681366Y-81291428D02*
X373633747Y-81386666D01*
X373633747Y-81386666D02*
X373586128Y-81434285D01*
X373586128Y-81434285D02*
X373490890Y-81481904D01*
X373692319Y-85038095D02*
X372692319Y-85038095D01*
X373692319Y-85609523D02*
X373120890Y-85180952D01*
X372692319Y-85609523D02*
X373263747Y-85038095D01*
X326437319Y-59955714D02*
X325437319Y-59955714D01*
X325437319Y-59955714D02*
X325437319Y-60193809D01*
X325437319Y-60193809D02*
X325484938Y-60336666D01*
X325484938Y-60336666D02*
X325580176Y-60431904D01*
X325580176Y-60431904D02*
X325675414Y-60479523D01*
X325675414Y-60479523D02*
X325865890Y-60527142D01*
X325865890Y-60527142D02*
X326008747Y-60527142D01*
X326008747Y-60527142D02*
X326199223Y-60479523D01*
X326199223Y-60479523D02*
X326294461Y-60431904D01*
X326294461Y-60431904D02*
X326389700Y-60336666D01*
X326389700Y-60336666D02*
X326437319Y-60193809D01*
X326437319Y-60193809D02*
X326437319Y-59955714D01*
X325532557Y-60908095D02*
X325484938Y-60955714D01*
X325484938Y-60955714D02*
X325437319Y-61050952D01*
X325437319Y-61050952D02*
X325437319Y-61289047D01*
X325437319Y-61289047D02*
X325484938Y-61384285D01*
X325484938Y-61384285D02*
X325532557Y-61431904D01*
X325532557Y-61431904D02*
X325627795Y-61479523D01*
X325627795Y-61479523D02*
X325723033Y-61479523D01*
X325723033Y-61479523D02*
X325865890Y-61431904D01*
X325865890Y-61431904D02*
X326437319Y-60860476D01*
X326437319Y-60860476D02*
X326437319Y-61479523D01*
X325437319Y-61812857D02*
X325437319Y-62431904D01*
X325437319Y-62431904D02*
X325818271Y-62098571D01*
X325818271Y-62098571D02*
X325818271Y-62241428D01*
X325818271Y-62241428D02*
X325865890Y-62336666D01*
X325865890Y-62336666D02*
X325913509Y-62384285D01*
X325913509Y-62384285D02*
X326008747Y-62431904D01*
X326008747Y-62431904D02*
X326246842Y-62431904D01*
X326246842Y-62431904D02*
X326342080Y-62384285D01*
X326342080Y-62384285D02*
X326389700Y-62336666D01*
X326389700Y-62336666D02*
X326437319Y-62241428D01*
X326437319Y-62241428D02*
X326437319Y-61955714D01*
X326437319Y-61955714D02*
X326389700Y-61860476D01*
X326389700Y-61860476D02*
X326342080Y-61812857D01*
X326067319Y-65988095D02*
X325067319Y-65988095D01*
X326067319Y-66559523D02*
X325495890Y-66130952D01*
X325067319Y-66559523D02*
X325638747Y-65988095D01*
X393112319Y-79005714D02*
X392112319Y-79005714D01*
X392112319Y-79005714D02*
X392112319Y-79243809D01*
X392112319Y-79243809D02*
X392159938Y-79386666D01*
X392159938Y-79386666D02*
X392255176Y-79481904D01*
X392255176Y-79481904D02*
X392350414Y-79529523D01*
X392350414Y-79529523D02*
X392540890Y-79577142D01*
X392540890Y-79577142D02*
X392683747Y-79577142D01*
X392683747Y-79577142D02*
X392874223Y-79529523D01*
X392874223Y-79529523D02*
X392969461Y-79481904D01*
X392969461Y-79481904D02*
X393064700Y-79386666D01*
X393064700Y-79386666D02*
X393112319Y-79243809D01*
X393112319Y-79243809D02*
X393112319Y-79005714D01*
X392445652Y-80434285D02*
X393112319Y-80434285D01*
X392064700Y-80196190D02*
X392778985Y-79958095D01*
X392778985Y-79958095D02*
X392778985Y-80577142D01*
X392112319Y-81148571D02*
X392112319Y-81243809D01*
X392112319Y-81243809D02*
X392159938Y-81339047D01*
X392159938Y-81339047D02*
X392207557Y-81386666D01*
X392207557Y-81386666D02*
X392302795Y-81434285D01*
X392302795Y-81434285D02*
X392493271Y-81481904D01*
X392493271Y-81481904D02*
X392731366Y-81481904D01*
X392731366Y-81481904D02*
X392921842Y-81434285D01*
X392921842Y-81434285D02*
X393017080Y-81386666D01*
X393017080Y-81386666D02*
X393064700Y-81339047D01*
X393064700Y-81339047D02*
X393112319Y-81243809D01*
X393112319Y-81243809D02*
X393112319Y-81148571D01*
X393112319Y-81148571D02*
X393064700Y-81053333D01*
X393064700Y-81053333D02*
X393017080Y-81005714D01*
X393017080Y-81005714D02*
X392921842Y-80958095D01*
X392921842Y-80958095D02*
X392731366Y-80910476D01*
X392731366Y-80910476D02*
X392493271Y-80910476D01*
X392493271Y-80910476D02*
X392302795Y-80958095D01*
X392302795Y-80958095D02*
X392207557Y-81005714D01*
X392207557Y-81005714D02*
X392159938Y-81053333D01*
X392159938Y-81053333D02*
X392112319Y-81148571D01*
X392742319Y-85038095D02*
X391742319Y-85038095D01*
X392742319Y-85609523D02*
X392170890Y-85180952D01*
X391742319Y-85609523D02*
X392313747Y-85038095D01*
X177693569Y-136155714D02*
X176693569Y-136155714D01*
X176693569Y-136155714D02*
X176693569Y-136393809D01*
X176693569Y-136393809D02*
X176741188Y-136536666D01*
X176741188Y-136536666D02*
X176836426Y-136631904D01*
X176836426Y-136631904D02*
X176931664Y-136679523D01*
X176931664Y-136679523D02*
X177122140Y-136727142D01*
X177122140Y-136727142D02*
X177264997Y-136727142D01*
X177264997Y-136727142D02*
X177455473Y-136679523D01*
X177455473Y-136679523D02*
X177550711Y-136631904D01*
X177550711Y-136631904D02*
X177645950Y-136536666D01*
X177645950Y-136536666D02*
X177693569Y-136393809D01*
X177693569Y-136393809D02*
X177693569Y-136155714D01*
X176693569Y-137060476D02*
X176693569Y-137727142D01*
X176693569Y-137727142D02*
X177693569Y-137298571D01*
X176788807Y-138060476D02*
X176741188Y-138108095D01*
X176741188Y-138108095D02*
X176693569Y-138203333D01*
X176693569Y-138203333D02*
X176693569Y-138441428D01*
X176693569Y-138441428D02*
X176741188Y-138536666D01*
X176741188Y-138536666D02*
X176788807Y-138584285D01*
X176788807Y-138584285D02*
X176884045Y-138631904D01*
X176884045Y-138631904D02*
X176979283Y-138631904D01*
X176979283Y-138631904D02*
X177122140Y-138584285D01*
X177122140Y-138584285D02*
X177693569Y-138012857D01*
X177693569Y-138012857D02*
X177693569Y-138631904D01*
X177323569Y-142188095D02*
X176323569Y-142188095D01*
X177323569Y-142759523D02*
X176752140Y-142330952D01*
X176323569Y-142759523D02*
X176894997Y-142188095D01*
X307302319Y-59955714D02*
X306302319Y-59955714D01*
X306302319Y-59955714D02*
X306302319Y-60193809D01*
X306302319Y-60193809D02*
X306349938Y-60336666D01*
X306349938Y-60336666D02*
X306445176Y-60431904D01*
X306445176Y-60431904D02*
X306540414Y-60479523D01*
X306540414Y-60479523D02*
X306730890Y-60527142D01*
X306730890Y-60527142D02*
X306873747Y-60527142D01*
X306873747Y-60527142D02*
X307064223Y-60479523D01*
X307064223Y-60479523D02*
X307159461Y-60431904D01*
X307159461Y-60431904D02*
X307254700Y-60336666D01*
X307254700Y-60336666D02*
X307302319Y-60193809D01*
X307302319Y-60193809D02*
X307302319Y-59955714D01*
X306397557Y-60908095D02*
X306349938Y-60955714D01*
X306349938Y-60955714D02*
X306302319Y-61050952D01*
X306302319Y-61050952D02*
X306302319Y-61289047D01*
X306302319Y-61289047D02*
X306349938Y-61384285D01*
X306349938Y-61384285D02*
X306397557Y-61431904D01*
X306397557Y-61431904D02*
X306492795Y-61479523D01*
X306492795Y-61479523D02*
X306588033Y-61479523D01*
X306588033Y-61479523D02*
X306730890Y-61431904D01*
X306730890Y-61431904D02*
X307302319Y-60860476D01*
X307302319Y-60860476D02*
X307302319Y-61479523D01*
X306397557Y-61860476D02*
X306349938Y-61908095D01*
X306349938Y-61908095D02*
X306302319Y-62003333D01*
X306302319Y-62003333D02*
X306302319Y-62241428D01*
X306302319Y-62241428D02*
X306349938Y-62336666D01*
X306349938Y-62336666D02*
X306397557Y-62384285D01*
X306397557Y-62384285D02*
X306492795Y-62431904D01*
X306492795Y-62431904D02*
X306588033Y-62431904D01*
X306588033Y-62431904D02*
X306730890Y-62384285D01*
X306730890Y-62384285D02*
X307302319Y-61812857D01*
X307302319Y-61812857D02*
X307302319Y-62431904D01*
X306932319Y-65988095D02*
X305932319Y-65988095D01*
X306932319Y-66559523D02*
X306360890Y-66130952D01*
X305932319Y-66559523D02*
X306503747Y-65988095D01*
X84824819Y-41381905D02*
X83824819Y-41381905D01*
X83824819Y-41381905D02*
X83824819Y-41620000D01*
X83824819Y-41620000D02*
X83872438Y-41762857D01*
X83872438Y-41762857D02*
X83967676Y-41858095D01*
X83967676Y-41858095D02*
X84062914Y-41905714D01*
X84062914Y-41905714D02*
X84253390Y-41953333D01*
X84253390Y-41953333D02*
X84396247Y-41953333D01*
X84396247Y-41953333D02*
X84586723Y-41905714D01*
X84586723Y-41905714D02*
X84681961Y-41858095D01*
X84681961Y-41858095D02*
X84777200Y-41762857D01*
X84777200Y-41762857D02*
X84824819Y-41620000D01*
X84824819Y-41620000D02*
X84824819Y-41381905D01*
X83824819Y-42286667D02*
X83824819Y-42905714D01*
X83824819Y-42905714D02*
X84205771Y-42572381D01*
X84205771Y-42572381D02*
X84205771Y-42715238D01*
X84205771Y-42715238D02*
X84253390Y-42810476D01*
X84253390Y-42810476D02*
X84301009Y-42858095D01*
X84301009Y-42858095D02*
X84396247Y-42905714D01*
X84396247Y-42905714D02*
X84634342Y-42905714D01*
X84634342Y-42905714D02*
X84729580Y-42858095D01*
X84729580Y-42858095D02*
X84777200Y-42810476D01*
X84777200Y-42810476D02*
X84824819Y-42715238D01*
X84824819Y-42715238D02*
X84824819Y-42429524D01*
X84824819Y-42429524D02*
X84777200Y-42334286D01*
X84777200Y-42334286D02*
X84729580Y-42286667D01*
X84454819Y-46938095D02*
X83454819Y-46938095D01*
X84454819Y-47509523D02*
X83883390Y-47080952D01*
X83454819Y-47509523D02*
X84026247Y-46938095D01*
X151499819Y-79005714D02*
X150499819Y-79005714D01*
X150499819Y-79005714D02*
X150499819Y-79243809D01*
X150499819Y-79243809D02*
X150547438Y-79386666D01*
X150547438Y-79386666D02*
X150642676Y-79481904D01*
X150642676Y-79481904D02*
X150737914Y-79529523D01*
X150737914Y-79529523D02*
X150928390Y-79577142D01*
X150928390Y-79577142D02*
X151071247Y-79577142D01*
X151071247Y-79577142D02*
X151261723Y-79529523D01*
X151261723Y-79529523D02*
X151356961Y-79481904D01*
X151356961Y-79481904D02*
X151452200Y-79386666D01*
X151452200Y-79386666D02*
X151499819Y-79243809D01*
X151499819Y-79243809D02*
X151499819Y-79005714D01*
X150499819Y-79910476D02*
X150499819Y-80529523D01*
X150499819Y-80529523D02*
X150880771Y-80196190D01*
X150880771Y-80196190D02*
X150880771Y-80339047D01*
X150880771Y-80339047D02*
X150928390Y-80434285D01*
X150928390Y-80434285D02*
X150976009Y-80481904D01*
X150976009Y-80481904D02*
X151071247Y-80529523D01*
X151071247Y-80529523D02*
X151309342Y-80529523D01*
X151309342Y-80529523D02*
X151404580Y-80481904D01*
X151404580Y-80481904D02*
X151452200Y-80434285D01*
X151452200Y-80434285D02*
X151499819Y-80339047D01*
X151499819Y-80339047D02*
X151499819Y-80053333D01*
X151499819Y-80053333D02*
X151452200Y-79958095D01*
X151452200Y-79958095D02*
X151404580Y-79910476D01*
X150833152Y-81386666D02*
X151499819Y-81386666D01*
X150452200Y-81148571D02*
X151166485Y-80910476D01*
X151166485Y-80910476D02*
X151166485Y-81529523D01*
X151129819Y-85038095D02*
X150129819Y-85038095D01*
X151129819Y-85609523D02*
X150558390Y-85180952D01*
X150129819Y-85609523D02*
X150701247Y-85038095D01*
X364537319Y-59955714D02*
X363537319Y-59955714D01*
X363537319Y-59955714D02*
X363537319Y-60193809D01*
X363537319Y-60193809D02*
X363584938Y-60336666D01*
X363584938Y-60336666D02*
X363680176Y-60431904D01*
X363680176Y-60431904D02*
X363775414Y-60479523D01*
X363775414Y-60479523D02*
X363965890Y-60527142D01*
X363965890Y-60527142D02*
X364108747Y-60527142D01*
X364108747Y-60527142D02*
X364299223Y-60479523D01*
X364299223Y-60479523D02*
X364394461Y-60431904D01*
X364394461Y-60431904D02*
X364489700Y-60336666D01*
X364489700Y-60336666D02*
X364537319Y-60193809D01*
X364537319Y-60193809D02*
X364537319Y-59955714D01*
X363632557Y-60908095D02*
X363584938Y-60955714D01*
X363584938Y-60955714D02*
X363537319Y-61050952D01*
X363537319Y-61050952D02*
X363537319Y-61289047D01*
X363537319Y-61289047D02*
X363584938Y-61384285D01*
X363584938Y-61384285D02*
X363632557Y-61431904D01*
X363632557Y-61431904D02*
X363727795Y-61479523D01*
X363727795Y-61479523D02*
X363823033Y-61479523D01*
X363823033Y-61479523D02*
X363965890Y-61431904D01*
X363965890Y-61431904D02*
X364537319Y-60860476D01*
X364537319Y-60860476D02*
X364537319Y-61479523D01*
X363537319Y-62384285D02*
X363537319Y-61908095D01*
X363537319Y-61908095D02*
X364013509Y-61860476D01*
X364013509Y-61860476D02*
X363965890Y-61908095D01*
X363965890Y-61908095D02*
X363918271Y-62003333D01*
X363918271Y-62003333D02*
X363918271Y-62241428D01*
X363918271Y-62241428D02*
X363965890Y-62336666D01*
X363965890Y-62336666D02*
X364013509Y-62384285D01*
X364013509Y-62384285D02*
X364108747Y-62431904D01*
X364108747Y-62431904D02*
X364346842Y-62431904D01*
X364346842Y-62431904D02*
X364442080Y-62384285D01*
X364442080Y-62384285D02*
X364489700Y-62336666D01*
X364489700Y-62336666D02*
X364537319Y-62241428D01*
X364537319Y-62241428D02*
X364537319Y-62003333D01*
X364537319Y-62003333D02*
X364489700Y-61908095D01*
X364489700Y-61908095D02*
X364442080Y-61860476D01*
X364167319Y-65988095D02*
X363167319Y-65988095D01*
X364167319Y-66559523D02*
X363595890Y-66130952D01*
X363167319Y-66559523D02*
X363738747Y-65988095D01*
X46724819Y-59955714D02*
X45724819Y-59955714D01*
X45724819Y-59955714D02*
X45724819Y-60193809D01*
X45724819Y-60193809D02*
X45772438Y-60336666D01*
X45772438Y-60336666D02*
X45867676Y-60431904D01*
X45867676Y-60431904D02*
X45962914Y-60479523D01*
X45962914Y-60479523D02*
X46153390Y-60527142D01*
X46153390Y-60527142D02*
X46296247Y-60527142D01*
X46296247Y-60527142D02*
X46486723Y-60479523D01*
X46486723Y-60479523D02*
X46581961Y-60431904D01*
X46581961Y-60431904D02*
X46677200Y-60336666D01*
X46677200Y-60336666D02*
X46724819Y-60193809D01*
X46724819Y-60193809D02*
X46724819Y-59955714D01*
X46724819Y-61479523D02*
X46724819Y-60908095D01*
X46724819Y-61193809D02*
X45724819Y-61193809D01*
X45724819Y-61193809D02*
X45867676Y-61098571D01*
X45867676Y-61098571D02*
X45962914Y-61003333D01*
X45962914Y-61003333D02*
X46010533Y-60908095D01*
X45724819Y-62384285D02*
X45724819Y-61908095D01*
X45724819Y-61908095D02*
X46201009Y-61860476D01*
X46201009Y-61860476D02*
X46153390Y-61908095D01*
X46153390Y-61908095D02*
X46105771Y-62003333D01*
X46105771Y-62003333D02*
X46105771Y-62241428D01*
X46105771Y-62241428D02*
X46153390Y-62336666D01*
X46153390Y-62336666D02*
X46201009Y-62384285D01*
X46201009Y-62384285D02*
X46296247Y-62431904D01*
X46296247Y-62431904D02*
X46534342Y-62431904D01*
X46534342Y-62431904D02*
X46629580Y-62384285D01*
X46629580Y-62384285D02*
X46677200Y-62336666D01*
X46677200Y-62336666D02*
X46724819Y-62241428D01*
X46724819Y-62241428D02*
X46724819Y-62003333D01*
X46724819Y-62003333D02*
X46677200Y-61908095D01*
X46677200Y-61908095D02*
X46629580Y-61860476D01*
X46354819Y-65988095D02*
X45354819Y-65988095D01*
X46354819Y-66559523D02*
X45783390Y-66130952D01*
X45354819Y-66559523D02*
X45926247Y-65988095D01*
X383587319Y-59955714D02*
X382587319Y-59955714D01*
X382587319Y-59955714D02*
X382587319Y-60193809D01*
X382587319Y-60193809D02*
X382634938Y-60336666D01*
X382634938Y-60336666D02*
X382730176Y-60431904D01*
X382730176Y-60431904D02*
X382825414Y-60479523D01*
X382825414Y-60479523D02*
X383015890Y-60527142D01*
X383015890Y-60527142D02*
X383158747Y-60527142D01*
X383158747Y-60527142D02*
X383349223Y-60479523D01*
X383349223Y-60479523D02*
X383444461Y-60431904D01*
X383444461Y-60431904D02*
X383539700Y-60336666D01*
X383539700Y-60336666D02*
X383587319Y-60193809D01*
X383587319Y-60193809D02*
X383587319Y-59955714D01*
X382682557Y-60908095D02*
X382634938Y-60955714D01*
X382634938Y-60955714D02*
X382587319Y-61050952D01*
X382587319Y-61050952D02*
X382587319Y-61289047D01*
X382587319Y-61289047D02*
X382634938Y-61384285D01*
X382634938Y-61384285D02*
X382682557Y-61431904D01*
X382682557Y-61431904D02*
X382777795Y-61479523D01*
X382777795Y-61479523D02*
X382873033Y-61479523D01*
X382873033Y-61479523D02*
X383015890Y-61431904D01*
X383015890Y-61431904D02*
X383587319Y-60860476D01*
X383587319Y-60860476D02*
X383587319Y-61479523D01*
X382587319Y-62336666D02*
X382587319Y-62146190D01*
X382587319Y-62146190D02*
X382634938Y-62050952D01*
X382634938Y-62050952D02*
X382682557Y-62003333D01*
X382682557Y-62003333D02*
X382825414Y-61908095D01*
X382825414Y-61908095D02*
X383015890Y-61860476D01*
X383015890Y-61860476D02*
X383396842Y-61860476D01*
X383396842Y-61860476D02*
X383492080Y-61908095D01*
X383492080Y-61908095D02*
X383539700Y-61955714D01*
X383539700Y-61955714D02*
X383587319Y-62050952D01*
X383587319Y-62050952D02*
X383587319Y-62241428D01*
X383587319Y-62241428D02*
X383539700Y-62336666D01*
X383539700Y-62336666D02*
X383492080Y-62384285D01*
X383492080Y-62384285D02*
X383396842Y-62431904D01*
X383396842Y-62431904D02*
X383158747Y-62431904D01*
X383158747Y-62431904D02*
X383063509Y-62384285D01*
X383063509Y-62384285D02*
X383015890Y-62336666D01*
X383015890Y-62336666D02*
X382968271Y-62241428D01*
X382968271Y-62241428D02*
X382968271Y-62050952D01*
X382968271Y-62050952D02*
X383015890Y-61955714D01*
X383015890Y-61955714D02*
X383063509Y-61908095D01*
X383063509Y-61908095D02*
X383158747Y-61860476D01*
X383217319Y-65988095D02*
X382217319Y-65988095D01*
X383217319Y-66559523D02*
X382645890Y-66130952D01*
X382217319Y-66559523D02*
X382788747Y-65988095D01*
X316864819Y-79055714D02*
X315864819Y-79055714D01*
X315864819Y-79055714D02*
X315864819Y-79293809D01*
X315864819Y-79293809D02*
X315912438Y-79436666D01*
X315912438Y-79436666D02*
X316007676Y-79531904D01*
X316007676Y-79531904D02*
X316102914Y-79579523D01*
X316102914Y-79579523D02*
X316293390Y-79627142D01*
X316293390Y-79627142D02*
X316436247Y-79627142D01*
X316436247Y-79627142D02*
X316626723Y-79579523D01*
X316626723Y-79579523D02*
X316721961Y-79531904D01*
X316721961Y-79531904D02*
X316817200Y-79436666D01*
X316817200Y-79436666D02*
X316864819Y-79293809D01*
X316864819Y-79293809D02*
X316864819Y-79055714D01*
X315864819Y-79960476D02*
X315864819Y-80579523D01*
X315864819Y-80579523D02*
X316245771Y-80246190D01*
X316245771Y-80246190D02*
X316245771Y-80389047D01*
X316245771Y-80389047D02*
X316293390Y-80484285D01*
X316293390Y-80484285D02*
X316341009Y-80531904D01*
X316341009Y-80531904D02*
X316436247Y-80579523D01*
X316436247Y-80579523D02*
X316674342Y-80579523D01*
X316674342Y-80579523D02*
X316769580Y-80531904D01*
X316769580Y-80531904D02*
X316817200Y-80484285D01*
X316817200Y-80484285D02*
X316864819Y-80389047D01*
X316864819Y-80389047D02*
X316864819Y-80103333D01*
X316864819Y-80103333D02*
X316817200Y-80008095D01*
X316817200Y-80008095D02*
X316769580Y-79960476D01*
X315864819Y-81436666D02*
X315864819Y-81246190D01*
X315864819Y-81246190D02*
X315912438Y-81150952D01*
X315912438Y-81150952D02*
X315960057Y-81103333D01*
X315960057Y-81103333D02*
X316102914Y-81008095D01*
X316102914Y-81008095D02*
X316293390Y-80960476D01*
X316293390Y-80960476D02*
X316674342Y-80960476D01*
X316674342Y-80960476D02*
X316769580Y-81008095D01*
X316769580Y-81008095D02*
X316817200Y-81055714D01*
X316817200Y-81055714D02*
X316864819Y-81150952D01*
X316864819Y-81150952D02*
X316864819Y-81341428D01*
X316864819Y-81341428D02*
X316817200Y-81436666D01*
X316817200Y-81436666D02*
X316769580Y-81484285D01*
X316769580Y-81484285D02*
X316674342Y-81531904D01*
X316674342Y-81531904D02*
X316436247Y-81531904D01*
X316436247Y-81531904D02*
X316341009Y-81484285D01*
X316341009Y-81484285D02*
X316293390Y-81436666D01*
X316293390Y-81436666D02*
X316245771Y-81341428D01*
X316245771Y-81341428D02*
X316245771Y-81150952D01*
X316245771Y-81150952D02*
X316293390Y-81055714D01*
X316293390Y-81055714D02*
X316341009Y-81008095D01*
X316341009Y-81008095D02*
X316436247Y-80960476D01*
X316494819Y-85088095D02*
X315494819Y-85088095D01*
X316494819Y-85659523D02*
X315923390Y-85230952D01*
X315494819Y-85659523D02*
X316066247Y-85088095D01*
X440737319Y-40905714D02*
X439737319Y-40905714D01*
X439737319Y-40905714D02*
X439737319Y-41143809D01*
X439737319Y-41143809D02*
X439784938Y-41286666D01*
X439784938Y-41286666D02*
X439880176Y-41381904D01*
X439880176Y-41381904D02*
X439975414Y-41429523D01*
X439975414Y-41429523D02*
X440165890Y-41477142D01*
X440165890Y-41477142D02*
X440308747Y-41477142D01*
X440308747Y-41477142D02*
X440499223Y-41429523D01*
X440499223Y-41429523D02*
X440594461Y-41381904D01*
X440594461Y-41381904D02*
X440689700Y-41286666D01*
X440689700Y-41286666D02*
X440737319Y-41143809D01*
X440737319Y-41143809D02*
X440737319Y-40905714D01*
X440737319Y-42429523D02*
X440737319Y-41858095D01*
X440737319Y-42143809D02*
X439737319Y-42143809D01*
X439737319Y-42143809D02*
X439880176Y-42048571D01*
X439880176Y-42048571D02*
X439975414Y-41953333D01*
X439975414Y-41953333D02*
X440023033Y-41858095D01*
X440070652Y-43286666D02*
X440737319Y-43286666D01*
X439689700Y-43048571D02*
X440403985Y-42810476D01*
X440403985Y-42810476D02*
X440403985Y-43429523D01*
X440367319Y-46938095D02*
X439367319Y-46938095D01*
X440367319Y-47509523D02*
X439795890Y-47080952D01*
X439367319Y-47509523D02*
X439938747Y-46938095D01*
X335962319Y-79005714D02*
X334962319Y-79005714D01*
X334962319Y-79005714D02*
X334962319Y-79243809D01*
X334962319Y-79243809D02*
X335009938Y-79386666D01*
X335009938Y-79386666D02*
X335105176Y-79481904D01*
X335105176Y-79481904D02*
X335200414Y-79529523D01*
X335200414Y-79529523D02*
X335390890Y-79577142D01*
X335390890Y-79577142D02*
X335533747Y-79577142D01*
X335533747Y-79577142D02*
X335724223Y-79529523D01*
X335724223Y-79529523D02*
X335819461Y-79481904D01*
X335819461Y-79481904D02*
X335914700Y-79386666D01*
X335914700Y-79386666D02*
X335962319Y-79243809D01*
X335962319Y-79243809D02*
X335962319Y-79005714D01*
X334962319Y-79910476D02*
X334962319Y-80529523D01*
X334962319Y-80529523D02*
X335343271Y-80196190D01*
X335343271Y-80196190D02*
X335343271Y-80339047D01*
X335343271Y-80339047D02*
X335390890Y-80434285D01*
X335390890Y-80434285D02*
X335438509Y-80481904D01*
X335438509Y-80481904D02*
X335533747Y-80529523D01*
X335533747Y-80529523D02*
X335771842Y-80529523D01*
X335771842Y-80529523D02*
X335867080Y-80481904D01*
X335867080Y-80481904D02*
X335914700Y-80434285D01*
X335914700Y-80434285D02*
X335962319Y-80339047D01*
X335962319Y-80339047D02*
X335962319Y-80053333D01*
X335962319Y-80053333D02*
X335914700Y-79958095D01*
X335914700Y-79958095D02*
X335867080Y-79910476D01*
X334962319Y-80862857D02*
X334962319Y-81529523D01*
X334962319Y-81529523D02*
X335962319Y-81100952D01*
X335592319Y-85038095D02*
X334592319Y-85038095D01*
X335592319Y-85609523D02*
X335020890Y-85180952D01*
X334592319Y-85609523D02*
X335163747Y-85038095D01*
X364537319Y-40905714D02*
X363537319Y-40905714D01*
X363537319Y-40905714D02*
X363537319Y-41143809D01*
X363537319Y-41143809D02*
X363584938Y-41286666D01*
X363584938Y-41286666D02*
X363680176Y-41381904D01*
X363680176Y-41381904D02*
X363775414Y-41429523D01*
X363775414Y-41429523D02*
X363965890Y-41477142D01*
X363965890Y-41477142D02*
X364108747Y-41477142D01*
X364108747Y-41477142D02*
X364299223Y-41429523D01*
X364299223Y-41429523D02*
X364394461Y-41381904D01*
X364394461Y-41381904D02*
X364489700Y-41286666D01*
X364489700Y-41286666D02*
X364537319Y-41143809D01*
X364537319Y-41143809D02*
X364537319Y-40905714D01*
X364537319Y-42429523D02*
X364537319Y-41858095D01*
X364537319Y-42143809D02*
X363537319Y-42143809D01*
X363537319Y-42143809D02*
X363680176Y-42048571D01*
X363680176Y-42048571D02*
X363775414Y-41953333D01*
X363775414Y-41953333D02*
X363823033Y-41858095D01*
X364537319Y-43381904D02*
X364537319Y-42810476D01*
X364537319Y-43096190D02*
X363537319Y-43096190D01*
X363537319Y-43096190D02*
X363680176Y-43000952D01*
X363680176Y-43000952D02*
X363775414Y-42905714D01*
X363775414Y-42905714D02*
X363823033Y-42810476D01*
X364167319Y-46938095D02*
X363167319Y-46938095D01*
X364167319Y-47509523D02*
X363595890Y-47080952D01*
X363167319Y-47509523D02*
X363738747Y-46938095D01*
X321674819Y-98055714D02*
X320674819Y-98055714D01*
X320674819Y-98055714D02*
X320674819Y-98293809D01*
X320674819Y-98293809D02*
X320722438Y-98436666D01*
X320722438Y-98436666D02*
X320817676Y-98531904D01*
X320817676Y-98531904D02*
X320912914Y-98579523D01*
X320912914Y-98579523D02*
X321103390Y-98627142D01*
X321103390Y-98627142D02*
X321246247Y-98627142D01*
X321246247Y-98627142D02*
X321436723Y-98579523D01*
X321436723Y-98579523D02*
X321531961Y-98531904D01*
X321531961Y-98531904D02*
X321627200Y-98436666D01*
X321627200Y-98436666D02*
X321674819Y-98293809D01*
X321674819Y-98293809D02*
X321674819Y-98055714D01*
X320674819Y-99531904D02*
X320674819Y-99055714D01*
X320674819Y-99055714D02*
X321151009Y-99008095D01*
X321151009Y-99008095D02*
X321103390Y-99055714D01*
X321103390Y-99055714D02*
X321055771Y-99150952D01*
X321055771Y-99150952D02*
X321055771Y-99389047D01*
X321055771Y-99389047D02*
X321103390Y-99484285D01*
X321103390Y-99484285D02*
X321151009Y-99531904D01*
X321151009Y-99531904D02*
X321246247Y-99579523D01*
X321246247Y-99579523D02*
X321484342Y-99579523D01*
X321484342Y-99579523D02*
X321579580Y-99531904D01*
X321579580Y-99531904D02*
X321627200Y-99484285D01*
X321627200Y-99484285D02*
X321674819Y-99389047D01*
X321674819Y-99389047D02*
X321674819Y-99150952D01*
X321674819Y-99150952D02*
X321627200Y-99055714D01*
X321627200Y-99055714D02*
X321579580Y-99008095D01*
X320674819Y-100198571D02*
X320674819Y-100293809D01*
X320674819Y-100293809D02*
X320722438Y-100389047D01*
X320722438Y-100389047D02*
X320770057Y-100436666D01*
X320770057Y-100436666D02*
X320865295Y-100484285D01*
X320865295Y-100484285D02*
X321055771Y-100531904D01*
X321055771Y-100531904D02*
X321293866Y-100531904D01*
X321293866Y-100531904D02*
X321484342Y-100484285D01*
X321484342Y-100484285D02*
X321579580Y-100436666D01*
X321579580Y-100436666D02*
X321627200Y-100389047D01*
X321627200Y-100389047D02*
X321674819Y-100293809D01*
X321674819Y-100293809D02*
X321674819Y-100198571D01*
X321674819Y-100198571D02*
X321627200Y-100103333D01*
X321627200Y-100103333D02*
X321579580Y-100055714D01*
X321579580Y-100055714D02*
X321484342Y-100008095D01*
X321484342Y-100008095D02*
X321293866Y-99960476D01*
X321293866Y-99960476D02*
X321055771Y-99960476D01*
X321055771Y-99960476D02*
X320865295Y-100008095D01*
X320865295Y-100008095D02*
X320770057Y-100055714D01*
X320770057Y-100055714D02*
X320722438Y-100103333D01*
X320722438Y-100103333D02*
X320674819Y-100198571D01*
X321304819Y-104088095D02*
X320304819Y-104088095D01*
X321304819Y-104659523D02*
X320733390Y-104230952D01*
X320304819Y-104659523D02*
X320876247Y-104088095D01*
X355012319Y-79005714D02*
X354012319Y-79005714D01*
X354012319Y-79005714D02*
X354012319Y-79243809D01*
X354012319Y-79243809D02*
X354059938Y-79386666D01*
X354059938Y-79386666D02*
X354155176Y-79481904D01*
X354155176Y-79481904D02*
X354250414Y-79529523D01*
X354250414Y-79529523D02*
X354440890Y-79577142D01*
X354440890Y-79577142D02*
X354583747Y-79577142D01*
X354583747Y-79577142D02*
X354774223Y-79529523D01*
X354774223Y-79529523D02*
X354869461Y-79481904D01*
X354869461Y-79481904D02*
X354964700Y-79386666D01*
X354964700Y-79386666D02*
X355012319Y-79243809D01*
X355012319Y-79243809D02*
X355012319Y-79005714D01*
X354012319Y-79910476D02*
X354012319Y-80529523D01*
X354012319Y-80529523D02*
X354393271Y-80196190D01*
X354393271Y-80196190D02*
X354393271Y-80339047D01*
X354393271Y-80339047D02*
X354440890Y-80434285D01*
X354440890Y-80434285D02*
X354488509Y-80481904D01*
X354488509Y-80481904D02*
X354583747Y-80529523D01*
X354583747Y-80529523D02*
X354821842Y-80529523D01*
X354821842Y-80529523D02*
X354917080Y-80481904D01*
X354917080Y-80481904D02*
X354964700Y-80434285D01*
X354964700Y-80434285D02*
X355012319Y-80339047D01*
X355012319Y-80339047D02*
X355012319Y-80053333D01*
X355012319Y-80053333D02*
X354964700Y-79958095D01*
X354964700Y-79958095D02*
X354917080Y-79910476D01*
X354440890Y-81100952D02*
X354393271Y-81005714D01*
X354393271Y-81005714D02*
X354345652Y-80958095D01*
X354345652Y-80958095D02*
X354250414Y-80910476D01*
X354250414Y-80910476D02*
X354202795Y-80910476D01*
X354202795Y-80910476D02*
X354107557Y-80958095D01*
X354107557Y-80958095D02*
X354059938Y-81005714D01*
X354059938Y-81005714D02*
X354012319Y-81100952D01*
X354012319Y-81100952D02*
X354012319Y-81291428D01*
X354012319Y-81291428D02*
X354059938Y-81386666D01*
X354059938Y-81386666D02*
X354107557Y-81434285D01*
X354107557Y-81434285D02*
X354202795Y-81481904D01*
X354202795Y-81481904D02*
X354250414Y-81481904D01*
X354250414Y-81481904D02*
X354345652Y-81434285D01*
X354345652Y-81434285D02*
X354393271Y-81386666D01*
X354393271Y-81386666D02*
X354440890Y-81291428D01*
X354440890Y-81291428D02*
X354440890Y-81100952D01*
X354440890Y-81100952D02*
X354488509Y-81005714D01*
X354488509Y-81005714D02*
X354536128Y-80958095D01*
X354536128Y-80958095D02*
X354631366Y-80910476D01*
X354631366Y-80910476D02*
X354821842Y-80910476D01*
X354821842Y-80910476D02*
X354917080Y-80958095D01*
X354917080Y-80958095D02*
X354964700Y-81005714D01*
X354964700Y-81005714D02*
X355012319Y-81100952D01*
X355012319Y-81100952D02*
X355012319Y-81291428D01*
X355012319Y-81291428D02*
X354964700Y-81386666D01*
X354964700Y-81386666D02*
X354917080Y-81434285D01*
X354917080Y-81434285D02*
X354821842Y-81481904D01*
X354821842Y-81481904D02*
X354631366Y-81481904D01*
X354631366Y-81481904D02*
X354536128Y-81434285D01*
X354536128Y-81434285D02*
X354488509Y-81386666D01*
X354488509Y-81386666D02*
X354440890Y-81291428D01*
X354642319Y-85038095D02*
X353642319Y-85038095D01*
X354642319Y-85609523D02*
X354070890Y-85180952D01*
X353642319Y-85609523D02*
X354213747Y-85038095D01*
X99112319Y-98055714D02*
X98112319Y-98055714D01*
X98112319Y-98055714D02*
X98112319Y-98293809D01*
X98112319Y-98293809D02*
X98159938Y-98436666D01*
X98159938Y-98436666D02*
X98255176Y-98531904D01*
X98255176Y-98531904D02*
X98350414Y-98579523D01*
X98350414Y-98579523D02*
X98540890Y-98627142D01*
X98540890Y-98627142D02*
X98683747Y-98627142D01*
X98683747Y-98627142D02*
X98874223Y-98579523D01*
X98874223Y-98579523D02*
X98969461Y-98531904D01*
X98969461Y-98531904D02*
X99064700Y-98436666D01*
X99064700Y-98436666D02*
X99112319Y-98293809D01*
X99112319Y-98293809D02*
X99112319Y-98055714D01*
X98445652Y-99484285D02*
X99112319Y-99484285D01*
X98064700Y-99246190D02*
X98778985Y-99008095D01*
X98778985Y-99008095D02*
X98778985Y-99627142D01*
X98112319Y-100484285D02*
X98112319Y-100008095D01*
X98112319Y-100008095D02*
X98588509Y-99960476D01*
X98588509Y-99960476D02*
X98540890Y-100008095D01*
X98540890Y-100008095D02*
X98493271Y-100103333D01*
X98493271Y-100103333D02*
X98493271Y-100341428D01*
X98493271Y-100341428D02*
X98540890Y-100436666D01*
X98540890Y-100436666D02*
X98588509Y-100484285D01*
X98588509Y-100484285D02*
X98683747Y-100531904D01*
X98683747Y-100531904D02*
X98921842Y-100531904D01*
X98921842Y-100531904D02*
X99017080Y-100484285D01*
X99017080Y-100484285D02*
X99064700Y-100436666D01*
X99064700Y-100436666D02*
X99112319Y-100341428D01*
X99112319Y-100341428D02*
X99112319Y-100103333D01*
X99112319Y-100103333D02*
X99064700Y-100008095D01*
X99064700Y-100008095D02*
X99017080Y-99960476D01*
X98742319Y-104088095D02*
X97742319Y-104088095D01*
X98742319Y-104659523D02*
X98170890Y-104230952D01*
X97742319Y-104659523D02*
X98313747Y-104088095D01*
X397874819Y-98055714D02*
X396874819Y-98055714D01*
X396874819Y-98055714D02*
X396874819Y-98293809D01*
X396874819Y-98293809D02*
X396922438Y-98436666D01*
X396922438Y-98436666D02*
X397017676Y-98531904D01*
X397017676Y-98531904D02*
X397112914Y-98579523D01*
X397112914Y-98579523D02*
X397303390Y-98627142D01*
X397303390Y-98627142D02*
X397446247Y-98627142D01*
X397446247Y-98627142D02*
X397636723Y-98579523D01*
X397636723Y-98579523D02*
X397731961Y-98531904D01*
X397731961Y-98531904D02*
X397827200Y-98436666D01*
X397827200Y-98436666D02*
X397874819Y-98293809D01*
X397874819Y-98293809D02*
X397874819Y-98055714D01*
X396874819Y-99531904D02*
X396874819Y-99055714D01*
X396874819Y-99055714D02*
X397351009Y-99008095D01*
X397351009Y-99008095D02*
X397303390Y-99055714D01*
X397303390Y-99055714D02*
X397255771Y-99150952D01*
X397255771Y-99150952D02*
X397255771Y-99389047D01*
X397255771Y-99389047D02*
X397303390Y-99484285D01*
X397303390Y-99484285D02*
X397351009Y-99531904D01*
X397351009Y-99531904D02*
X397446247Y-99579523D01*
X397446247Y-99579523D02*
X397684342Y-99579523D01*
X397684342Y-99579523D02*
X397779580Y-99531904D01*
X397779580Y-99531904D02*
X397827200Y-99484285D01*
X397827200Y-99484285D02*
X397874819Y-99389047D01*
X397874819Y-99389047D02*
X397874819Y-99150952D01*
X397874819Y-99150952D02*
X397827200Y-99055714D01*
X397827200Y-99055714D02*
X397779580Y-99008095D01*
X397208152Y-100436666D02*
X397874819Y-100436666D01*
X396827200Y-100198571D02*
X397541485Y-99960476D01*
X397541485Y-99960476D02*
X397541485Y-100579523D01*
X397504819Y-104088095D02*
X396504819Y-104088095D01*
X397504819Y-104659523D02*
X396933390Y-104230952D01*
X396504819Y-104659523D02*
X397076247Y-104088095D01*
X421687319Y-117105714D02*
X420687319Y-117105714D01*
X420687319Y-117105714D02*
X420687319Y-117343809D01*
X420687319Y-117343809D02*
X420734938Y-117486666D01*
X420734938Y-117486666D02*
X420830176Y-117581904D01*
X420830176Y-117581904D02*
X420925414Y-117629523D01*
X420925414Y-117629523D02*
X421115890Y-117677142D01*
X421115890Y-117677142D02*
X421258747Y-117677142D01*
X421258747Y-117677142D02*
X421449223Y-117629523D01*
X421449223Y-117629523D02*
X421544461Y-117581904D01*
X421544461Y-117581904D02*
X421639700Y-117486666D01*
X421639700Y-117486666D02*
X421687319Y-117343809D01*
X421687319Y-117343809D02*
X421687319Y-117105714D01*
X420687319Y-118534285D02*
X420687319Y-118343809D01*
X420687319Y-118343809D02*
X420734938Y-118248571D01*
X420734938Y-118248571D02*
X420782557Y-118200952D01*
X420782557Y-118200952D02*
X420925414Y-118105714D01*
X420925414Y-118105714D02*
X421115890Y-118058095D01*
X421115890Y-118058095D02*
X421496842Y-118058095D01*
X421496842Y-118058095D02*
X421592080Y-118105714D01*
X421592080Y-118105714D02*
X421639700Y-118153333D01*
X421639700Y-118153333D02*
X421687319Y-118248571D01*
X421687319Y-118248571D02*
X421687319Y-118439047D01*
X421687319Y-118439047D02*
X421639700Y-118534285D01*
X421639700Y-118534285D02*
X421592080Y-118581904D01*
X421592080Y-118581904D02*
X421496842Y-118629523D01*
X421496842Y-118629523D02*
X421258747Y-118629523D01*
X421258747Y-118629523D02*
X421163509Y-118581904D01*
X421163509Y-118581904D02*
X421115890Y-118534285D01*
X421115890Y-118534285D02*
X421068271Y-118439047D01*
X421068271Y-118439047D02*
X421068271Y-118248571D01*
X421068271Y-118248571D02*
X421115890Y-118153333D01*
X421115890Y-118153333D02*
X421163509Y-118105714D01*
X421163509Y-118105714D02*
X421258747Y-118058095D01*
X420687319Y-118962857D02*
X420687319Y-119629523D01*
X420687319Y-119629523D02*
X421687319Y-119200952D01*
X421317319Y-123138095D02*
X420317319Y-123138095D01*
X421317319Y-123709523D02*
X420745890Y-123280952D01*
X420317319Y-123709523D02*
X420888747Y-123138095D01*
X122924819Y-59955714D02*
X121924819Y-59955714D01*
X121924819Y-59955714D02*
X121924819Y-60193809D01*
X121924819Y-60193809D02*
X121972438Y-60336666D01*
X121972438Y-60336666D02*
X122067676Y-60431904D01*
X122067676Y-60431904D02*
X122162914Y-60479523D01*
X122162914Y-60479523D02*
X122353390Y-60527142D01*
X122353390Y-60527142D02*
X122496247Y-60527142D01*
X122496247Y-60527142D02*
X122686723Y-60479523D01*
X122686723Y-60479523D02*
X122781961Y-60431904D01*
X122781961Y-60431904D02*
X122877200Y-60336666D01*
X122877200Y-60336666D02*
X122924819Y-60193809D01*
X122924819Y-60193809D02*
X122924819Y-59955714D01*
X122924819Y-61479523D02*
X122924819Y-60908095D01*
X122924819Y-61193809D02*
X121924819Y-61193809D01*
X121924819Y-61193809D02*
X122067676Y-61098571D01*
X122067676Y-61098571D02*
X122162914Y-61003333D01*
X122162914Y-61003333D02*
X122210533Y-60908095D01*
X122924819Y-61955714D02*
X122924819Y-62146190D01*
X122924819Y-62146190D02*
X122877200Y-62241428D01*
X122877200Y-62241428D02*
X122829580Y-62289047D01*
X122829580Y-62289047D02*
X122686723Y-62384285D01*
X122686723Y-62384285D02*
X122496247Y-62431904D01*
X122496247Y-62431904D02*
X122115295Y-62431904D01*
X122115295Y-62431904D02*
X122020057Y-62384285D01*
X122020057Y-62384285D02*
X121972438Y-62336666D01*
X121972438Y-62336666D02*
X121924819Y-62241428D01*
X121924819Y-62241428D02*
X121924819Y-62050952D01*
X121924819Y-62050952D02*
X121972438Y-61955714D01*
X121972438Y-61955714D02*
X122020057Y-61908095D01*
X122020057Y-61908095D02*
X122115295Y-61860476D01*
X122115295Y-61860476D02*
X122353390Y-61860476D01*
X122353390Y-61860476D02*
X122448628Y-61908095D01*
X122448628Y-61908095D02*
X122496247Y-61955714D01*
X122496247Y-61955714D02*
X122543866Y-62050952D01*
X122543866Y-62050952D02*
X122543866Y-62241428D01*
X122543866Y-62241428D02*
X122496247Y-62336666D01*
X122496247Y-62336666D02*
X122448628Y-62384285D01*
X122448628Y-62384285D02*
X122353390Y-62431904D01*
X122554819Y-65988095D02*
X121554819Y-65988095D01*
X122554819Y-66559523D02*
X121983390Y-66130952D01*
X121554819Y-66559523D02*
X122126247Y-65988095D01*
X312064819Y-117105714D02*
X311064819Y-117105714D01*
X311064819Y-117105714D02*
X311064819Y-117343809D01*
X311064819Y-117343809D02*
X311112438Y-117486666D01*
X311112438Y-117486666D02*
X311207676Y-117581904D01*
X311207676Y-117581904D02*
X311302914Y-117629523D01*
X311302914Y-117629523D02*
X311493390Y-117677142D01*
X311493390Y-117677142D02*
X311636247Y-117677142D01*
X311636247Y-117677142D02*
X311826723Y-117629523D01*
X311826723Y-117629523D02*
X311921961Y-117581904D01*
X311921961Y-117581904D02*
X312017200Y-117486666D01*
X312017200Y-117486666D02*
X312064819Y-117343809D01*
X312064819Y-117343809D02*
X312064819Y-117105714D01*
X311064819Y-118534285D02*
X311064819Y-118343809D01*
X311064819Y-118343809D02*
X311112438Y-118248571D01*
X311112438Y-118248571D02*
X311160057Y-118200952D01*
X311160057Y-118200952D02*
X311302914Y-118105714D01*
X311302914Y-118105714D02*
X311493390Y-118058095D01*
X311493390Y-118058095D02*
X311874342Y-118058095D01*
X311874342Y-118058095D02*
X311969580Y-118105714D01*
X311969580Y-118105714D02*
X312017200Y-118153333D01*
X312017200Y-118153333D02*
X312064819Y-118248571D01*
X312064819Y-118248571D02*
X312064819Y-118439047D01*
X312064819Y-118439047D02*
X312017200Y-118534285D01*
X312017200Y-118534285D02*
X311969580Y-118581904D01*
X311969580Y-118581904D02*
X311874342Y-118629523D01*
X311874342Y-118629523D02*
X311636247Y-118629523D01*
X311636247Y-118629523D02*
X311541009Y-118581904D01*
X311541009Y-118581904D02*
X311493390Y-118534285D01*
X311493390Y-118534285D02*
X311445771Y-118439047D01*
X311445771Y-118439047D02*
X311445771Y-118248571D01*
X311445771Y-118248571D02*
X311493390Y-118153333D01*
X311493390Y-118153333D02*
X311541009Y-118105714D01*
X311541009Y-118105714D02*
X311636247Y-118058095D01*
X311160057Y-119010476D02*
X311112438Y-119058095D01*
X311112438Y-119058095D02*
X311064819Y-119153333D01*
X311064819Y-119153333D02*
X311064819Y-119391428D01*
X311064819Y-119391428D02*
X311112438Y-119486666D01*
X311112438Y-119486666D02*
X311160057Y-119534285D01*
X311160057Y-119534285D02*
X311255295Y-119581904D01*
X311255295Y-119581904D02*
X311350533Y-119581904D01*
X311350533Y-119581904D02*
X311493390Y-119534285D01*
X311493390Y-119534285D02*
X312064819Y-118962857D01*
X312064819Y-118962857D02*
X312064819Y-119581904D01*
X311694819Y-123138095D02*
X310694819Y-123138095D01*
X311694819Y-123709523D02*
X311123390Y-123280952D01*
X310694819Y-123709523D02*
X311266247Y-123138095D01*
X412162319Y-79005714D02*
X411162319Y-79005714D01*
X411162319Y-79005714D02*
X411162319Y-79243809D01*
X411162319Y-79243809D02*
X411209938Y-79386666D01*
X411209938Y-79386666D02*
X411305176Y-79481904D01*
X411305176Y-79481904D02*
X411400414Y-79529523D01*
X411400414Y-79529523D02*
X411590890Y-79577142D01*
X411590890Y-79577142D02*
X411733747Y-79577142D01*
X411733747Y-79577142D02*
X411924223Y-79529523D01*
X411924223Y-79529523D02*
X412019461Y-79481904D01*
X412019461Y-79481904D02*
X412114700Y-79386666D01*
X412114700Y-79386666D02*
X412162319Y-79243809D01*
X412162319Y-79243809D02*
X412162319Y-79005714D01*
X411495652Y-80434285D02*
X412162319Y-80434285D01*
X411114700Y-80196190D02*
X411828985Y-79958095D01*
X411828985Y-79958095D02*
X411828985Y-80577142D01*
X412162319Y-81481904D02*
X412162319Y-80910476D01*
X412162319Y-81196190D02*
X411162319Y-81196190D01*
X411162319Y-81196190D02*
X411305176Y-81100952D01*
X411305176Y-81100952D02*
X411400414Y-81005714D01*
X411400414Y-81005714D02*
X411448033Y-80910476D01*
X411792319Y-85038095D02*
X410792319Y-85038095D01*
X411792319Y-85609523D02*
X411220890Y-85180952D01*
X410792319Y-85609523D02*
X411363747Y-85038095D01*
X49106069Y-136155714D02*
X48106069Y-136155714D01*
X48106069Y-136155714D02*
X48106069Y-136393809D01*
X48106069Y-136393809D02*
X48153688Y-136536666D01*
X48153688Y-136536666D02*
X48248926Y-136631904D01*
X48248926Y-136631904D02*
X48344164Y-136679523D01*
X48344164Y-136679523D02*
X48534640Y-136727142D01*
X48534640Y-136727142D02*
X48677497Y-136727142D01*
X48677497Y-136727142D02*
X48867973Y-136679523D01*
X48867973Y-136679523D02*
X48963211Y-136631904D01*
X48963211Y-136631904D02*
X49058450Y-136536666D01*
X49058450Y-136536666D02*
X49106069Y-136393809D01*
X49106069Y-136393809D02*
X49106069Y-136155714D01*
X48106069Y-137584285D02*
X48106069Y-137393809D01*
X48106069Y-137393809D02*
X48153688Y-137298571D01*
X48153688Y-137298571D02*
X48201307Y-137250952D01*
X48201307Y-137250952D02*
X48344164Y-137155714D01*
X48344164Y-137155714D02*
X48534640Y-137108095D01*
X48534640Y-137108095D02*
X48915592Y-137108095D01*
X48915592Y-137108095D02*
X49010830Y-137155714D01*
X49010830Y-137155714D02*
X49058450Y-137203333D01*
X49058450Y-137203333D02*
X49106069Y-137298571D01*
X49106069Y-137298571D02*
X49106069Y-137489047D01*
X49106069Y-137489047D02*
X49058450Y-137584285D01*
X49058450Y-137584285D02*
X49010830Y-137631904D01*
X49010830Y-137631904D02*
X48915592Y-137679523D01*
X48915592Y-137679523D02*
X48677497Y-137679523D01*
X48677497Y-137679523D02*
X48582259Y-137631904D01*
X48582259Y-137631904D02*
X48534640Y-137584285D01*
X48534640Y-137584285D02*
X48487021Y-137489047D01*
X48487021Y-137489047D02*
X48487021Y-137298571D01*
X48487021Y-137298571D02*
X48534640Y-137203333D01*
X48534640Y-137203333D02*
X48582259Y-137155714D01*
X48582259Y-137155714D02*
X48677497Y-137108095D01*
X48534640Y-138250952D02*
X48487021Y-138155714D01*
X48487021Y-138155714D02*
X48439402Y-138108095D01*
X48439402Y-138108095D02*
X48344164Y-138060476D01*
X48344164Y-138060476D02*
X48296545Y-138060476D01*
X48296545Y-138060476D02*
X48201307Y-138108095D01*
X48201307Y-138108095D02*
X48153688Y-138155714D01*
X48153688Y-138155714D02*
X48106069Y-138250952D01*
X48106069Y-138250952D02*
X48106069Y-138441428D01*
X48106069Y-138441428D02*
X48153688Y-138536666D01*
X48153688Y-138536666D02*
X48201307Y-138584285D01*
X48201307Y-138584285D02*
X48296545Y-138631904D01*
X48296545Y-138631904D02*
X48344164Y-138631904D01*
X48344164Y-138631904D02*
X48439402Y-138584285D01*
X48439402Y-138584285D02*
X48487021Y-138536666D01*
X48487021Y-138536666D02*
X48534640Y-138441428D01*
X48534640Y-138441428D02*
X48534640Y-138250952D01*
X48534640Y-138250952D02*
X48582259Y-138155714D01*
X48582259Y-138155714D02*
X48629878Y-138108095D01*
X48629878Y-138108095D02*
X48725116Y-138060476D01*
X48725116Y-138060476D02*
X48915592Y-138060476D01*
X48915592Y-138060476D02*
X49010830Y-138108095D01*
X49010830Y-138108095D02*
X49058450Y-138155714D01*
X49058450Y-138155714D02*
X49106069Y-138250952D01*
X49106069Y-138250952D02*
X49106069Y-138441428D01*
X49106069Y-138441428D02*
X49058450Y-138536666D01*
X49058450Y-138536666D02*
X49010830Y-138584285D01*
X49010830Y-138584285D02*
X48915592Y-138631904D01*
X48915592Y-138631904D02*
X48725116Y-138631904D01*
X48725116Y-138631904D02*
X48629878Y-138584285D01*
X48629878Y-138584285D02*
X48582259Y-138536666D01*
X48582259Y-138536666D02*
X48534640Y-138441428D01*
X48736069Y-142188095D02*
X47736069Y-142188095D01*
X48736069Y-142759523D02*
X48164640Y-142330952D01*
X47736069Y-142759523D02*
X48307497Y-142188095D01*
X89587319Y-117105714D02*
X88587319Y-117105714D01*
X88587319Y-117105714D02*
X88587319Y-117343809D01*
X88587319Y-117343809D02*
X88634938Y-117486666D01*
X88634938Y-117486666D02*
X88730176Y-117581904D01*
X88730176Y-117581904D02*
X88825414Y-117629523D01*
X88825414Y-117629523D02*
X89015890Y-117677142D01*
X89015890Y-117677142D02*
X89158747Y-117677142D01*
X89158747Y-117677142D02*
X89349223Y-117629523D01*
X89349223Y-117629523D02*
X89444461Y-117581904D01*
X89444461Y-117581904D02*
X89539700Y-117486666D01*
X89539700Y-117486666D02*
X89587319Y-117343809D01*
X89587319Y-117343809D02*
X89587319Y-117105714D01*
X88587319Y-118581904D02*
X88587319Y-118105714D01*
X88587319Y-118105714D02*
X89063509Y-118058095D01*
X89063509Y-118058095D02*
X89015890Y-118105714D01*
X89015890Y-118105714D02*
X88968271Y-118200952D01*
X88968271Y-118200952D02*
X88968271Y-118439047D01*
X88968271Y-118439047D02*
X89015890Y-118534285D01*
X89015890Y-118534285D02*
X89063509Y-118581904D01*
X89063509Y-118581904D02*
X89158747Y-118629523D01*
X89158747Y-118629523D02*
X89396842Y-118629523D01*
X89396842Y-118629523D02*
X89492080Y-118581904D01*
X89492080Y-118581904D02*
X89539700Y-118534285D01*
X89539700Y-118534285D02*
X89587319Y-118439047D01*
X89587319Y-118439047D02*
X89587319Y-118200952D01*
X89587319Y-118200952D02*
X89539700Y-118105714D01*
X89539700Y-118105714D02*
X89492080Y-118058095D01*
X88587319Y-118962857D02*
X88587319Y-119629523D01*
X88587319Y-119629523D02*
X89587319Y-119200952D01*
X89217319Y-123138095D02*
X88217319Y-123138095D01*
X89217319Y-123709523D02*
X88645890Y-123280952D01*
X88217319Y-123709523D02*
X88788747Y-123138095D01*
X350249819Y-117105714D02*
X349249819Y-117105714D01*
X349249819Y-117105714D02*
X349249819Y-117343809D01*
X349249819Y-117343809D02*
X349297438Y-117486666D01*
X349297438Y-117486666D02*
X349392676Y-117581904D01*
X349392676Y-117581904D02*
X349487914Y-117629523D01*
X349487914Y-117629523D02*
X349678390Y-117677142D01*
X349678390Y-117677142D02*
X349821247Y-117677142D01*
X349821247Y-117677142D02*
X350011723Y-117629523D01*
X350011723Y-117629523D02*
X350106961Y-117581904D01*
X350106961Y-117581904D02*
X350202200Y-117486666D01*
X350202200Y-117486666D02*
X350249819Y-117343809D01*
X350249819Y-117343809D02*
X350249819Y-117105714D01*
X349249819Y-118534285D02*
X349249819Y-118343809D01*
X349249819Y-118343809D02*
X349297438Y-118248571D01*
X349297438Y-118248571D02*
X349345057Y-118200952D01*
X349345057Y-118200952D02*
X349487914Y-118105714D01*
X349487914Y-118105714D02*
X349678390Y-118058095D01*
X349678390Y-118058095D02*
X350059342Y-118058095D01*
X350059342Y-118058095D02*
X350154580Y-118105714D01*
X350154580Y-118105714D02*
X350202200Y-118153333D01*
X350202200Y-118153333D02*
X350249819Y-118248571D01*
X350249819Y-118248571D02*
X350249819Y-118439047D01*
X350249819Y-118439047D02*
X350202200Y-118534285D01*
X350202200Y-118534285D02*
X350154580Y-118581904D01*
X350154580Y-118581904D02*
X350059342Y-118629523D01*
X350059342Y-118629523D02*
X349821247Y-118629523D01*
X349821247Y-118629523D02*
X349726009Y-118581904D01*
X349726009Y-118581904D02*
X349678390Y-118534285D01*
X349678390Y-118534285D02*
X349630771Y-118439047D01*
X349630771Y-118439047D02*
X349630771Y-118248571D01*
X349630771Y-118248571D02*
X349678390Y-118153333D01*
X349678390Y-118153333D02*
X349726009Y-118105714D01*
X349726009Y-118105714D02*
X349821247Y-118058095D01*
X349583152Y-119486666D02*
X350249819Y-119486666D01*
X349202200Y-119248571D02*
X349916485Y-119010476D01*
X349916485Y-119010476D02*
X349916485Y-119629523D01*
X349879819Y-123138095D02*
X348879819Y-123138095D01*
X349879819Y-123709523D02*
X349308390Y-123280952D01*
X348879819Y-123709523D02*
X349451247Y-123138095D01*
X132449819Y-79005714D02*
X131449819Y-79005714D01*
X131449819Y-79005714D02*
X131449819Y-79243809D01*
X131449819Y-79243809D02*
X131497438Y-79386666D01*
X131497438Y-79386666D02*
X131592676Y-79481904D01*
X131592676Y-79481904D02*
X131687914Y-79529523D01*
X131687914Y-79529523D02*
X131878390Y-79577142D01*
X131878390Y-79577142D02*
X132021247Y-79577142D01*
X132021247Y-79577142D02*
X132211723Y-79529523D01*
X132211723Y-79529523D02*
X132306961Y-79481904D01*
X132306961Y-79481904D02*
X132402200Y-79386666D01*
X132402200Y-79386666D02*
X132449819Y-79243809D01*
X132449819Y-79243809D02*
X132449819Y-79005714D01*
X131449819Y-79910476D02*
X131449819Y-80529523D01*
X131449819Y-80529523D02*
X131830771Y-80196190D01*
X131830771Y-80196190D02*
X131830771Y-80339047D01*
X131830771Y-80339047D02*
X131878390Y-80434285D01*
X131878390Y-80434285D02*
X131926009Y-80481904D01*
X131926009Y-80481904D02*
X132021247Y-80529523D01*
X132021247Y-80529523D02*
X132259342Y-80529523D01*
X132259342Y-80529523D02*
X132354580Y-80481904D01*
X132354580Y-80481904D02*
X132402200Y-80434285D01*
X132402200Y-80434285D02*
X132449819Y-80339047D01*
X132449819Y-80339047D02*
X132449819Y-80053333D01*
X132449819Y-80053333D02*
X132402200Y-79958095D01*
X132402200Y-79958095D02*
X132354580Y-79910476D01*
X131449819Y-80862857D02*
X131449819Y-81481904D01*
X131449819Y-81481904D02*
X131830771Y-81148571D01*
X131830771Y-81148571D02*
X131830771Y-81291428D01*
X131830771Y-81291428D02*
X131878390Y-81386666D01*
X131878390Y-81386666D02*
X131926009Y-81434285D01*
X131926009Y-81434285D02*
X132021247Y-81481904D01*
X132021247Y-81481904D02*
X132259342Y-81481904D01*
X132259342Y-81481904D02*
X132354580Y-81434285D01*
X132354580Y-81434285D02*
X132402200Y-81386666D01*
X132402200Y-81386666D02*
X132449819Y-81291428D01*
X132449819Y-81291428D02*
X132449819Y-81005714D01*
X132449819Y-81005714D02*
X132402200Y-80910476D01*
X132402200Y-80910476D02*
X132354580Y-80862857D01*
X132079819Y-85038095D02*
X131079819Y-85038095D01*
X132079819Y-85609523D02*
X131508390Y-85180952D01*
X131079819Y-85609523D02*
X131651247Y-85038095D01*
X108637319Y-117105714D02*
X107637319Y-117105714D01*
X107637319Y-117105714D02*
X107637319Y-117343809D01*
X107637319Y-117343809D02*
X107684938Y-117486666D01*
X107684938Y-117486666D02*
X107780176Y-117581904D01*
X107780176Y-117581904D02*
X107875414Y-117629523D01*
X107875414Y-117629523D02*
X108065890Y-117677142D01*
X108065890Y-117677142D02*
X108208747Y-117677142D01*
X108208747Y-117677142D02*
X108399223Y-117629523D01*
X108399223Y-117629523D02*
X108494461Y-117581904D01*
X108494461Y-117581904D02*
X108589700Y-117486666D01*
X108589700Y-117486666D02*
X108637319Y-117343809D01*
X108637319Y-117343809D02*
X108637319Y-117105714D01*
X107637319Y-118581904D02*
X107637319Y-118105714D01*
X107637319Y-118105714D02*
X108113509Y-118058095D01*
X108113509Y-118058095D02*
X108065890Y-118105714D01*
X108065890Y-118105714D02*
X108018271Y-118200952D01*
X108018271Y-118200952D02*
X108018271Y-118439047D01*
X108018271Y-118439047D02*
X108065890Y-118534285D01*
X108065890Y-118534285D02*
X108113509Y-118581904D01*
X108113509Y-118581904D02*
X108208747Y-118629523D01*
X108208747Y-118629523D02*
X108446842Y-118629523D01*
X108446842Y-118629523D02*
X108542080Y-118581904D01*
X108542080Y-118581904D02*
X108589700Y-118534285D01*
X108589700Y-118534285D02*
X108637319Y-118439047D01*
X108637319Y-118439047D02*
X108637319Y-118200952D01*
X108637319Y-118200952D02*
X108589700Y-118105714D01*
X108589700Y-118105714D02*
X108542080Y-118058095D01*
X108065890Y-119200952D02*
X108018271Y-119105714D01*
X108018271Y-119105714D02*
X107970652Y-119058095D01*
X107970652Y-119058095D02*
X107875414Y-119010476D01*
X107875414Y-119010476D02*
X107827795Y-119010476D01*
X107827795Y-119010476D02*
X107732557Y-119058095D01*
X107732557Y-119058095D02*
X107684938Y-119105714D01*
X107684938Y-119105714D02*
X107637319Y-119200952D01*
X107637319Y-119200952D02*
X107637319Y-119391428D01*
X107637319Y-119391428D02*
X107684938Y-119486666D01*
X107684938Y-119486666D02*
X107732557Y-119534285D01*
X107732557Y-119534285D02*
X107827795Y-119581904D01*
X107827795Y-119581904D02*
X107875414Y-119581904D01*
X107875414Y-119581904D02*
X107970652Y-119534285D01*
X107970652Y-119534285D02*
X108018271Y-119486666D01*
X108018271Y-119486666D02*
X108065890Y-119391428D01*
X108065890Y-119391428D02*
X108065890Y-119200952D01*
X108065890Y-119200952D02*
X108113509Y-119105714D01*
X108113509Y-119105714D02*
X108161128Y-119058095D01*
X108161128Y-119058095D02*
X108256366Y-119010476D01*
X108256366Y-119010476D02*
X108446842Y-119010476D01*
X108446842Y-119010476D02*
X108542080Y-119058095D01*
X108542080Y-119058095D02*
X108589700Y-119105714D01*
X108589700Y-119105714D02*
X108637319Y-119200952D01*
X108637319Y-119200952D02*
X108637319Y-119391428D01*
X108637319Y-119391428D02*
X108589700Y-119486666D01*
X108589700Y-119486666D02*
X108542080Y-119534285D01*
X108542080Y-119534285D02*
X108446842Y-119581904D01*
X108446842Y-119581904D02*
X108256366Y-119581904D01*
X108256366Y-119581904D02*
X108161128Y-119534285D01*
X108161128Y-119534285D02*
X108113509Y-119486666D01*
X108113509Y-119486666D02*
X108065890Y-119391428D01*
X108267319Y-123138095D02*
X107267319Y-123138095D01*
X108267319Y-123709523D02*
X107695890Y-123280952D01*
X107267319Y-123709523D02*
X107838747Y-123138095D01*
X170624819Y-79005714D02*
X169624819Y-79005714D01*
X169624819Y-79005714D02*
X169624819Y-79243809D01*
X169624819Y-79243809D02*
X169672438Y-79386666D01*
X169672438Y-79386666D02*
X169767676Y-79481904D01*
X169767676Y-79481904D02*
X169862914Y-79529523D01*
X169862914Y-79529523D02*
X170053390Y-79577142D01*
X170053390Y-79577142D02*
X170196247Y-79577142D01*
X170196247Y-79577142D02*
X170386723Y-79529523D01*
X170386723Y-79529523D02*
X170481961Y-79481904D01*
X170481961Y-79481904D02*
X170577200Y-79386666D01*
X170577200Y-79386666D02*
X170624819Y-79243809D01*
X170624819Y-79243809D02*
X170624819Y-79005714D01*
X169624819Y-79910476D02*
X169624819Y-80529523D01*
X169624819Y-80529523D02*
X170005771Y-80196190D01*
X170005771Y-80196190D02*
X170005771Y-80339047D01*
X170005771Y-80339047D02*
X170053390Y-80434285D01*
X170053390Y-80434285D02*
X170101009Y-80481904D01*
X170101009Y-80481904D02*
X170196247Y-80529523D01*
X170196247Y-80529523D02*
X170434342Y-80529523D01*
X170434342Y-80529523D02*
X170529580Y-80481904D01*
X170529580Y-80481904D02*
X170577200Y-80434285D01*
X170577200Y-80434285D02*
X170624819Y-80339047D01*
X170624819Y-80339047D02*
X170624819Y-80053333D01*
X170624819Y-80053333D02*
X170577200Y-79958095D01*
X170577200Y-79958095D02*
X170529580Y-79910476D01*
X169624819Y-81434285D02*
X169624819Y-80958095D01*
X169624819Y-80958095D02*
X170101009Y-80910476D01*
X170101009Y-80910476D02*
X170053390Y-80958095D01*
X170053390Y-80958095D02*
X170005771Y-81053333D01*
X170005771Y-81053333D02*
X170005771Y-81291428D01*
X170005771Y-81291428D02*
X170053390Y-81386666D01*
X170053390Y-81386666D02*
X170101009Y-81434285D01*
X170101009Y-81434285D02*
X170196247Y-81481904D01*
X170196247Y-81481904D02*
X170434342Y-81481904D01*
X170434342Y-81481904D02*
X170529580Y-81434285D01*
X170529580Y-81434285D02*
X170577200Y-81386666D01*
X170577200Y-81386666D02*
X170624819Y-81291428D01*
X170624819Y-81291428D02*
X170624819Y-81053333D01*
X170624819Y-81053333D02*
X170577200Y-80958095D01*
X170577200Y-80958095D02*
X170529580Y-80910476D01*
X170254819Y-85038095D02*
X169254819Y-85038095D01*
X170254819Y-85609523D02*
X169683390Y-85180952D01*
X169254819Y-85609523D02*
X169826247Y-85038095D01*
X402637319Y-136155714D02*
X401637319Y-136155714D01*
X401637319Y-136155714D02*
X401637319Y-136393809D01*
X401637319Y-136393809D02*
X401684938Y-136536666D01*
X401684938Y-136536666D02*
X401780176Y-136631904D01*
X401780176Y-136631904D02*
X401875414Y-136679523D01*
X401875414Y-136679523D02*
X402065890Y-136727142D01*
X402065890Y-136727142D02*
X402208747Y-136727142D01*
X402208747Y-136727142D02*
X402399223Y-136679523D01*
X402399223Y-136679523D02*
X402494461Y-136631904D01*
X402494461Y-136631904D02*
X402589700Y-136536666D01*
X402589700Y-136536666D02*
X402637319Y-136393809D01*
X402637319Y-136393809D02*
X402637319Y-136155714D01*
X401637319Y-137060476D02*
X401637319Y-137727142D01*
X401637319Y-137727142D02*
X402637319Y-137298571D01*
X401637319Y-138584285D02*
X401637319Y-138108095D01*
X401637319Y-138108095D02*
X402113509Y-138060476D01*
X402113509Y-138060476D02*
X402065890Y-138108095D01*
X402065890Y-138108095D02*
X402018271Y-138203333D01*
X402018271Y-138203333D02*
X402018271Y-138441428D01*
X402018271Y-138441428D02*
X402065890Y-138536666D01*
X402065890Y-138536666D02*
X402113509Y-138584285D01*
X402113509Y-138584285D02*
X402208747Y-138631904D01*
X402208747Y-138631904D02*
X402446842Y-138631904D01*
X402446842Y-138631904D02*
X402542080Y-138584285D01*
X402542080Y-138584285D02*
X402589700Y-138536666D01*
X402589700Y-138536666D02*
X402637319Y-138441428D01*
X402637319Y-138441428D02*
X402637319Y-138203333D01*
X402637319Y-138203333D02*
X402589700Y-138108095D01*
X402589700Y-138108095D02*
X402542080Y-138060476D01*
X402267319Y-142188095D02*
X401267319Y-142188095D01*
X402267319Y-142759523D02*
X401695890Y-142330952D01*
X401267319Y-142759523D02*
X401838747Y-142188095D01*
X340724819Y-98055714D02*
X339724819Y-98055714D01*
X339724819Y-98055714D02*
X339724819Y-98293809D01*
X339724819Y-98293809D02*
X339772438Y-98436666D01*
X339772438Y-98436666D02*
X339867676Y-98531904D01*
X339867676Y-98531904D02*
X339962914Y-98579523D01*
X339962914Y-98579523D02*
X340153390Y-98627142D01*
X340153390Y-98627142D02*
X340296247Y-98627142D01*
X340296247Y-98627142D02*
X340486723Y-98579523D01*
X340486723Y-98579523D02*
X340581961Y-98531904D01*
X340581961Y-98531904D02*
X340677200Y-98436666D01*
X340677200Y-98436666D02*
X340724819Y-98293809D01*
X340724819Y-98293809D02*
X340724819Y-98055714D01*
X339724819Y-99531904D02*
X339724819Y-99055714D01*
X339724819Y-99055714D02*
X340201009Y-99008095D01*
X340201009Y-99008095D02*
X340153390Y-99055714D01*
X340153390Y-99055714D02*
X340105771Y-99150952D01*
X340105771Y-99150952D02*
X340105771Y-99389047D01*
X340105771Y-99389047D02*
X340153390Y-99484285D01*
X340153390Y-99484285D02*
X340201009Y-99531904D01*
X340201009Y-99531904D02*
X340296247Y-99579523D01*
X340296247Y-99579523D02*
X340534342Y-99579523D01*
X340534342Y-99579523D02*
X340629580Y-99531904D01*
X340629580Y-99531904D02*
X340677200Y-99484285D01*
X340677200Y-99484285D02*
X340724819Y-99389047D01*
X340724819Y-99389047D02*
X340724819Y-99150952D01*
X340724819Y-99150952D02*
X340677200Y-99055714D01*
X340677200Y-99055714D02*
X340629580Y-99008095D01*
X340724819Y-100531904D02*
X340724819Y-99960476D01*
X340724819Y-100246190D02*
X339724819Y-100246190D01*
X339724819Y-100246190D02*
X339867676Y-100150952D01*
X339867676Y-100150952D02*
X339962914Y-100055714D01*
X339962914Y-100055714D02*
X340010533Y-99960476D01*
X340354819Y-104088095D02*
X339354819Y-104088095D01*
X340354819Y-104659523D02*
X339783390Y-104230952D01*
X339354819Y-104659523D02*
X339926247Y-104088095D01*
X80062319Y-98055714D02*
X79062319Y-98055714D01*
X79062319Y-98055714D02*
X79062319Y-98293809D01*
X79062319Y-98293809D02*
X79109938Y-98436666D01*
X79109938Y-98436666D02*
X79205176Y-98531904D01*
X79205176Y-98531904D02*
X79300414Y-98579523D01*
X79300414Y-98579523D02*
X79490890Y-98627142D01*
X79490890Y-98627142D02*
X79633747Y-98627142D01*
X79633747Y-98627142D02*
X79824223Y-98579523D01*
X79824223Y-98579523D02*
X79919461Y-98531904D01*
X79919461Y-98531904D02*
X80014700Y-98436666D01*
X80014700Y-98436666D02*
X80062319Y-98293809D01*
X80062319Y-98293809D02*
X80062319Y-98055714D01*
X79395652Y-99484285D02*
X80062319Y-99484285D01*
X79014700Y-99246190D02*
X79728985Y-99008095D01*
X79728985Y-99008095D02*
X79728985Y-99627142D01*
X79395652Y-100436666D02*
X80062319Y-100436666D01*
X79014700Y-100198571D02*
X79728985Y-99960476D01*
X79728985Y-99960476D02*
X79728985Y-100579523D01*
X79692319Y-104088095D02*
X78692319Y-104088095D01*
X79692319Y-104659523D02*
X79120890Y-104230952D01*
X78692319Y-104659523D02*
X79263747Y-104088095D01*
X345487319Y-40905714D02*
X344487319Y-40905714D01*
X344487319Y-40905714D02*
X344487319Y-41143809D01*
X344487319Y-41143809D02*
X344534938Y-41286666D01*
X344534938Y-41286666D02*
X344630176Y-41381904D01*
X344630176Y-41381904D02*
X344725414Y-41429523D01*
X344725414Y-41429523D02*
X344915890Y-41477142D01*
X344915890Y-41477142D02*
X345058747Y-41477142D01*
X345058747Y-41477142D02*
X345249223Y-41429523D01*
X345249223Y-41429523D02*
X345344461Y-41381904D01*
X345344461Y-41381904D02*
X345439700Y-41286666D01*
X345439700Y-41286666D02*
X345487319Y-41143809D01*
X345487319Y-41143809D02*
X345487319Y-40905714D01*
X345487319Y-42429523D02*
X345487319Y-41858095D01*
X345487319Y-42143809D02*
X344487319Y-42143809D01*
X344487319Y-42143809D02*
X344630176Y-42048571D01*
X344630176Y-42048571D02*
X344725414Y-41953333D01*
X344725414Y-41953333D02*
X344773033Y-41858095D01*
X344487319Y-43048571D02*
X344487319Y-43143809D01*
X344487319Y-43143809D02*
X344534938Y-43239047D01*
X344534938Y-43239047D02*
X344582557Y-43286666D01*
X344582557Y-43286666D02*
X344677795Y-43334285D01*
X344677795Y-43334285D02*
X344868271Y-43381904D01*
X344868271Y-43381904D02*
X345106366Y-43381904D01*
X345106366Y-43381904D02*
X345296842Y-43334285D01*
X345296842Y-43334285D02*
X345392080Y-43286666D01*
X345392080Y-43286666D02*
X345439700Y-43239047D01*
X345439700Y-43239047D02*
X345487319Y-43143809D01*
X345487319Y-43143809D02*
X345487319Y-43048571D01*
X345487319Y-43048571D02*
X345439700Y-42953333D01*
X345439700Y-42953333D02*
X345392080Y-42905714D01*
X345392080Y-42905714D02*
X345296842Y-42858095D01*
X345296842Y-42858095D02*
X345106366Y-42810476D01*
X345106366Y-42810476D02*
X344868271Y-42810476D01*
X344868271Y-42810476D02*
X344677795Y-42858095D01*
X344677795Y-42858095D02*
X344582557Y-42905714D01*
X344582557Y-42905714D02*
X344534938Y-42953333D01*
X344534938Y-42953333D02*
X344487319Y-43048571D01*
X345117319Y-46938095D02*
X344117319Y-46938095D01*
X345117319Y-47509523D02*
X344545890Y-47080952D01*
X344117319Y-47509523D02*
X344688747Y-46938095D01*
X302539819Y-98055714D02*
X301539819Y-98055714D01*
X301539819Y-98055714D02*
X301539819Y-98293809D01*
X301539819Y-98293809D02*
X301587438Y-98436666D01*
X301587438Y-98436666D02*
X301682676Y-98531904D01*
X301682676Y-98531904D02*
X301777914Y-98579523D01*
X301777914Y-98579523D02*
X301968390Y-98627142D01*
X301968390Y-98627142D02*
X302111247Y-98627142D01*
X302111247Y-98627142D02*
X302301723Y-98579523D01*
X302301723Y-98579523D02*
X302396961Y-98531904D01*
X302396961Y-98531904D02*
X302492200Y-98436666D01*
X302492200Y-98436666D02*
X302539819Y-98293809D01*
X302539819Y-98293809D02*
X302539819Y-98055714D01*
X301873152Y-99484285D02*
X302539819Y-99484285D01*
X301492200Y-99246190D02*
X302206485Y-99008095D01*
X302206485Y-99008095D02*
X302206485Y-99627142D01*
X302539819Y-100055714D02*
X302539819Y-100246190D01*
X302539819Y-100246190D02*
X302492200Y-100341428D01*
X302492200Y-100341428D02*
X302444580Y-100389047D01*
X302444580Y-100389047D02*
X302301723Y-100484285D01*
X302301723Y-100484285D02*
X302111247Y-100531904D01*
X302111247Y-100531904D02*
X301730295Y-100531904D01*
X301730295Y-100531904D02*
X301635057Y-100484285D01*
X301635057Y-100484285D02*
X301587438Y-100436666D01*
X301587438Y-100436666D02*
X301539819Y-100341428D01*
X301539819Y-100341428D02*
X301539819Y-100150952D01*
X301539819Y-100150952D02*
X301587438Y-100055714D01*
X301587438Y-100055714D02*
X301635057Y-100008095D01*
X301635057Y-100008095D02*
X301730295Y-99960476D01*
X301730295Y-99960476D02*
X301968390Y-99960476D01*
X301968390Y-99960476D02*
X302063628Y-100008095D01*
X302063628Y-100008095D02*
X302111247Y-100055714D01*
X302111247Y-100055714D02*
X302158866Y-100150952D01*
X302158866Y-100150952D02*
X302158866Y-100341428D01*
X302158866Y-100341428D02*
X302111247Y-100436666D01*
X302111247Y-100436666D02*
X302063628Y-100484285D01*
X302063628Y-100484285D02*
X301968390Y-100531904D01*
X302169819Y-104088095D02*
X301169819Y-104088095D01*
X302169819Y-104659523D02*
X301598390Y-104230952D01*
X301169819Y-104659523D02*
X301741247Y-104088095D01*
X141974819Y-59955714D02*
X140974819Y-59955714D01*
X140974819Y-59955714D02*
X140974819Y-60193809D01*
X140974819Y-60193809D02*
X141022438Y-60336666D01*
X141022438Y-60336666D02*
X141117676Y-60431904D01*
X141117676Y-60431904D02*
X141212914Y-60479523D01*
X141212914Y-60479523D02*
X141403390Y-60527142D01*
X141403390Y-60527142D02*
X141546247Y-60527142D01*
X141546247Y-60527142D02*
X141736723Y-60479523D01*
X141736723Y-60479523D02*
X141831961Y-60431904D01*
X141831961Y-60431904D02*
X141927200Y-60336666D01*
X141927200Y-60336666D02*
X141974819Y-60193809D01*
X141974819Y-60193809D02*
X141974819Y-59955714D01*
X141070057Y-60908095D02*
X141022438Y-60955714D01*
X141022438Y-60955714D02*
X140974819Y-61050952D01*
X140974819Y-61050952D02*
X140974819Y-61289047D01*
X140974819Y-61289047D02*
X141022438Y-61384285D01*
X141022438Y-61384285D02*
X141070057Y-61431904D01*
X141070057Y-61431904D02*
X141165295Y-61479523D01*
X141165295Y-61479523D02*
X141260533Y-61479523D01*
X141260533Y-61479523D02*
X141403390Y-61431904D01*
X141403390Y-61431904D02*
X141974819Y-60860476D01*
X141974819Y-60860476D02*
X141974819Y-61479523D01*
X140974819Y-62098571D02*
X140974819Y-62193809D01*
X140974819Y-62193809D02*
X141022438Y-62289047D01*
X141022438Y-62289047D02*
X141070057Y-62336666D01*
X141070057Y-62336666D02*
X141165295Y-62384285D01*
X141165295Y-62384285D02*
X141355771Y-62431904D01*
X141355771Y-62431904D02*
X141593866Y-62431904D01*
X141593866Y-62431904D02*
X141784342Y-62384285D01*
X141784342Y-62384285D02*
X141879580Y-62336666D01*
X141879580Y-62336666D02*
X141927200Y-62289047D01*
X141927200Y-62289047D02*
X141974819Y-62193809D01*
X141974819Y-62193809D02*
X141974819Y-62098571D01*
X141974819Y-62098571D02*
X141927200Y-62003333D01*
X141927200Y-62003333D02*
X141879580Y-61955714D01*
X141879580Y-61955714D02*
X141784342Y-61908095D01*
X141784342Y-61908095D02*
X141593866Y-61860476D01*
X141593866Y-61860476D02*
X141355771Y-61860476D01*
X141355771Y-61860476D02*
X141165295Y-61908095D01*
X141165295Y-61908095D02*
X141070057Y-61955714D01*
X141070057Y-61955714D02*
X141022438Y-62003333D01*
X141022438Y-62003333D02*
X140974819Y-62098571D01*
X141604819Y-65988095D02*
X140604819Y-65988095D01*
X141604819Y-66559523D02*
X141033390Y-66130952D01*
X140604819Y-66559523D02*
X141176247Y-65988095D01*
X161024819Y-59955714D02*
X160024819Y-59955714D01*
X160024819Y-59955714D02*
X160024819Y-60193809D01*
X160024819Y-60193809D02*
X160072438Y-60336666D01*
X160072438Y-60336666D02*
X160167676Y-60431904D01*
X160167676Y-60431904D02*
X160262914Y-60479523D01*
X160262914Y-60479523D02*
X160453390Y-60527142D01*
X160453390Y-60527142D02*
X160596247Y-60527142D01*
X160596247Y-60527142D02*
X160786723Y-60479523D01*
X160786723Y-60479523D02*
X160881961Y-60431904D01*
X160881961Y-60431904D02*
X160977200Y-60336666D01*
X160977200Y-60336666D02*
X161024819Y-60193809D01*
X161024819Y-60193809D02*
X161024819Y-59955714D01*
X160120057Y-60908095D02*
X160072438Y-60955714D01*
X160072438Y-60955714D02*
X160024819Y-61050952D01*
X160024819Y-61050952D02*
X160024819Y-61289047D01*
X160024819Y-61289047D02*
X160072438Y-61384285D01*
X160072438Y-61384285D02*
X160120057Y-61431904D01*
X160120057Y-61431904D02*
X160215295Y-61479523D01*
X160215295Y-61479523D02*
X160310533Y-61479523D01*
X160310533Y-61479523D02*
X160453390Y-61431904D01*
X160453390Y-61431904D02*
X161024819Y-60860476D01*
X161024819Y-60860476D02*
X161024819Y-61479523D01*
X161024819Y-62431904D02*
X161024819Y-61860476D01*
X161024819Y-62146190D02*
X160024819Y-62146190D01*
X160024819Y-62146190D02*
X160167676Y-62050952D01*
X160167676Y-62050952D02*
X160262914Y-61955714D01*
X160262914Y-61955714D02*
X160310533Y-61860476D01*
X160654819Y-65988095D02*
X159654819Y-65988095D01*
X160654819Y-66559523D02*
X160083390Y-66130952D01*
X159654819Y-66559523D02*
X160226247Y-65988095D01*
X70537319Y-136155714D02*
X69537319Y-136155714D01*
X69537319Y-136155714D02*
X69537319Y-136393809D01*
X69537319Y-136393809D02*
X69584938Y-136536666D01*
X69584938Y-136536666D02*
X69680176Y-136631904D01*
X69680176Y-136631904D02*
X69775414Y-136679523D01*
X69775414Y-136679523D02*
X69965890Y-136727142D01*
X69965890Y-136727142D02*
X70108747Y-136727142D01*
X70108747Y-136727142D02*
X70299223Y-136679523D01*
X70299223Y-136679523D02*
X70394461Y-136631904D01*
X70394461Y-136631904D02*
X70489700Y-136536666D01*
X70489700Y-136536666D02*
X70537319Y-136393809D01*
X70537319Y-136393809D02*
X70537319Y-136155714D01*
X69537319Y-137584285D02*
X69537319Y-137393809D01*
X69537319Y-137393809D02*
X69584938Y-137298571D01*
X69584938Y-137298571D02*
X69632557Y-137250952D01*
X69632557Y-137250952D02*
X69775414Y-137155714D01*
X69775414Y-137155714D02*
X69965890Y-137108095D01*
X69965890Y-137108095D02*
X70346842Y-137108095D01*
X70346842Y-137108095D02*
X70442080Y-137155714D01*
X70442080Y-137155714D02*
X70489700Y-137203333D01*
X70489700Y-137203333D02*
X70537319Y-137298571D01*
X70537319Y-137298571D02*
X70537319Y-137489047D01*
X70537319Y-137489047D02*
X70489700Y-137584285D01*
X70489700Y-137584285D02*
X70442080Y-137631904D01*
X70442080Y-137631904D02*
X70346842Y-137679523D01*
X70346842Y-137679523D02*
X70108747Y-137679523D01*
X70108747Y-137679523D02*
X70013509Y-137631904D01*
X70013509Y-137631904D02*
X69965890Y-137584285D01*
X69965890Y-137584285D02*
X69918271Y-137489047D01*
X69918271Y-137489047D02*
X69918271Y-137298571D01*
X69918271Y-137298571D02*
X69965890Y-137203333D01*
X69965890Y-137203333D02*
X70013509Y-137155714D01*
X70013509Y-137155714D02*
X70108747Y-137108095D01*
X70537319Y-138155714D02*
X70537319Y-138346190D01*
X70537319Y-138346190D02*
X70489700Y-138441428D01*
X70489700Y-138441428D02*
X70442080Y-138489047D01*
X70442080Y-138489047D02*
X70299223Y-138584285D01*
X70299223Y-138584285D02*
X70108747Y-138631904D01*
X70108747Y-138631904D02*
X69727795Y-138631904D01*
X69727795Y-138631904D02*
X69632557Y-138584285D01*
X69632557Y-138584285D02*
X69584938Y-138536666D01*
X69584938Y-138536666D02*
X69537319Y-138441428D01*
X69537319Y-138441428D02*
X69537319Y-138250952D01*
X69537319Y-138250952D02*
X69584938Y-138155714D01*
X69584938Y-138155714D02*
X69632557Y-138108095D01*
X69632557Y-138108095D02*
X69727795Y-138060476D01*
X69727795Y-138060476D02*
X69965890Y-138060476D01*
X69965890Y-138060476D02*
X70061128Y-138108095D01*
X70061128Y-138108095D02*
X70108747Y-138155714D01*
X70108747Y-138155714D02*
X70156366Y-138250952D01*
X70156366Y-138250952D02*
X70156366Y-138441428D01*
X70156366Y-138441428D02*
X70108747Y-138536666D01*
X70108747Y-138536666D02*
X70061128Y-138584285D01*
X70061128Y-138584285D02*
X69965890Y-138631904D01*
X70167319Y-142188095D02*
X69167319Y-142188095D01*
X70167319Y-142759523D02*
X69595890Y-142330952D01*
X69167319Y-142759523D02*
X69738747Y-142188095D01*
X165787319Y-117105714D02*
X164787319Y-117105714D01*
X164787319Y-117105714D02*
X164787319Y-117343809D01*
X164787319Y-117343809D02*
X164834938Y-117486666D01*
X164834938Y-117486666D02*
X164930176Y-117581904D01*
X164930176Y-117581904D02*
X165025414Y-117629523D01*
X165025414Y-117629523D02*
X165215890Y-117677142D01*
X165215890Y-117677142D02*
X165358747Y-117677142D01*
X165358747Y-117677142D02*
X165549223Y-117629523D01*
X165549223Y-117629523D02*
X165644461Y-117581904D01*
X165644461Y-117581904D02*
X165739700Y-117486666D01*
X165739700Y-117486666D02*
X165787319Y-117343809D01*
X165787319Y-117343809D02*
X165787319Y-117105714D01*
X164787319Y-118534285D02*
X164787319Y-118343809D01*
X164787319Y-118343809D02*
X164834938Y-118248571D01*
X164834938Y-118248571D02*
X164882557Y-118200952D01*
X164882557Y-118200952D02*
X165025414Y-118105714D01*
X165025414Y-118105714D02*
X165215890Y-118058095D01*
X165215890Y-118058095D02*
X165596842Y-118058095D01*
X165596842Y-118058095D02*
X165692080Y-118105714D01*
X165692080Y-118105714D02*
X165739700Y-118153333D01*
X165739700Y-118153333D02*
X165787319Y-118248571D01*
X165787319Y-118248571D02*
X165787319Y-118439047D01*
X165787319Y-118439047D02*
X165739700Y-118534285D01*
X165739700Y-118534285D02*
X165692080Y-118581904D01*
X165692080Y-118581904D02*
X165596842Y-118629523D01*
X165596842Y-118629523D02*
X165358747Y-118629523D01*
X165358747Y-118629523D02*
X165263509Y-118581904D01*
X165263509Y-118581904D02*
X165215890Y-118534285D01*
X165215890Y-118534285D02*
X165168271Y-118439047D01*
X165168271Y-118439047D02*
X165168271Y-118248571D01*
X165168271Y-118248571D02*
X165215890Y-118153333D01*
X165215890Y-118153333D02*
X165263509Y-118105714D01*
X165263509Y-118105714D02*
X165358747Y-118058095D01*
X165787319Y-119581904D02*
X165787319Y-119010476D01*
X165787319Y-119296190D02*
X164787319Y-119296190D01*
X164787319Y-119296190D02*
X164930176Y-119200952D01*
X164930176Y-119200952D02*
X165025414Y-119105714D01*
X165025414Y-119105714D02*
X165073033Y-119010476D01*
X165417319Y-123138095D02*
X164417319Y-123138095D01*
X165417319Y-123709523D02*
X164845890Y-123280952D01*
X164417319Y-123709523D02*
X164988747Y-123138095D01*
X115781069Y-136155714D02*
X114781069Y-136155714D01*
X114781069Y-136155714D02*
X114781069Y-136393809D01*
X114781069Y-136393809D02*
X114828688Y-136536666D01*
X114828688Y-136536666D02*
X114923926Y-136631904D01*
X114923926Y-136631904D02*
X115019164Y-136679523D01*
X115019164Y-136679523D02*
X115209640Y-136727142D01*
X115209640Y-136727142D02*
X115352497Y-136727142D01*
X115352497Y-136727142D02*
X115542973Y-136679523D01*
X115542973Y-136679523D02*
X115638211Y-136631904D01*
X115638211Y-136631904D02*
X115733450Y-136536666D01*
X115733450Y-136536666D02*
X115781069Y-136393809D01*
X115781069Y-136393809D02*
X115781069Y-136155714D01*
X114781069Y-137060476D02*
X114781069Y-137727142D01*
X114781069Y-137727142D02*
X115781069Y-137298571D01*
X115781069Y-138631904D02*
X115781069Y-138060476D01*
X115781069Y-138346190D02*
X114781069Y-138346190D01*
X114781069Y-138346190D02*
X114923926Y-138250952D01*
X114923926Y-138250952D02*
X115019164Y-138155714D01*
X115019164Y-138155714D02*
X115066783Y-138060476D01*
X115411069Y-142188095D02*
X114411069Y-142188095D01*
X115411069Y-142759523D02*
X114839640Y-142330952D01*
X114411069Y-142759523D02*
X114982497Y-142188095D01*
X156262319Y-98055714D02*
X155262319Y-98055714D01*
X155262319Y-98055714D02*
X155262319Y-98293809D01*
X155262319Y-98293809D02*
X155309938Y-98436666D01*
X155309938Y-98436666D02*
X155405176Y-98531904D01*
X155405176Y-98531904D02*
X155500414Y-98579523D01*
X155500414Y-98579523D02*
X155690890Y-98627142D01*
X155690890Y-98627142D02*
X155833747Y-98627142D01*
X155833747Y-98627142D02*
X156024223Y-98579523D01*
X156024223Y-98579523D02*
X156119461Y-98531904D01*
X156119461Y-98531904D02*
X156214700Y-98436666D01*
X156214700Y-98436666D02*
X156262319Y-98293809D01*
X156262319Y-98293809D02*
X156262319Y-98055714D01*
X155595652Y-99484285D02*
X156262319Y-99484285D01*
X155214700Y-99246190D02*
X155928985Y-99008095D01*
X155928985Y-99008095D02*
X155928985Y-99627142D01*
X155690890Y-100150952D02*
X155643271Y-100055714D01*
X155643271Y-100055714D02*
X155595652Y-100008095D01*
X155595652Y-100008095D02*
X155500414Y-99960476D01*
X155500414Y-99960476D02*
X155452795Y-99960476D01*
X155452795Y-99960476D02*
X155357557Y-100008095D01*
X155357557Y-100008095D02*
X155309938Y-100055714D01*
X155309938Y-100055714D02*
X155262319Y-100150952D01*
X155262319Y-100150952D02*
X155262319Y-100341428D01*
X155262319Y-100341428D02*
X155309938Y-100436666D01*
X155309938Y-100436666D02*
X155357557Y-100484285D01*
X155357557Y-100484285D02*
X155452795Y-100531904D01*
X155452795Y-100531904D02*
X155500414Y-100531904D01*
X155500414Y-100531904D02*
X155595652Y-100484285D01*
X155595652Y-100484285D02*
X155643271Y-100436666D01*
X155643271Y-100436666D02*
X155690890Y-100341428D01*
X155690890Y-100341428D02*
X155690890Y-100150952D01*
X155690890Y-100150952D02*
X155738509Y-100055714D01*
X155738509Y-100055714D02*
X155786128Y-100008095D01*
X155786128Y-100008095D02*
X155881366Y-99960476D01*
X155881366Y-99960476D02*
X156071842Y-99960476D01*
X156071842Y-99960476D02*
X156167080Y-100008095D01*
X156167080Y-100008095D02*
X156214700Y-100055714D01*
X156214700Y-100055714D02*
X156262319Y-100150952D01*
X156262319Y-100150952D02*
X156262319Y-100341428D01*
X156262319Y-100341428D02*
X156214700Y-100436666D01*
X156214700Y-100436666D02*
X156167080Y-100484285D01*
X156167080Y-100484285D02*
X156071842Y-100531904D01*
X156071842Y-100531904D02*
X155881366Y-100531904D01*
X155881366Y-100531904D02*
X155786128Y-100484285D01*
X155786128Y-100484285D02*
X155738509Y-100436666D01*
X155738509Y-100436666D02*
X155690890Y-100341428D01*
X155892319Y-104088095D02*
X154892319Y-104088095D01*
X155892319Y-104659523D02*
X155320890Y-104230952D01*
X154892319Y-104659523D02*
X155463747Y-104088095D01*
X428831069Y-98055714D02*
X427831069Y-98055714D01*
X427831069Y-98055714D02*
X427831069Y-98293809D01*
X427831069Y-98293809D02*
X427878688Y-98436666D01*
X427878688Y-98436666D02*
X427973926Y-98531904D01*
X427973926Y-98531904D02*
X428069164Y-98579523D01*
X428069164Y-98579523D02*
X428259640Y-98627142D01*
X428259640Y-98627142D02*
X428402497Y-98627142D01*
X428402497Y-98627142D02*
X428592973Y-98579523D01*
X428592973Y-98579523D02*
X428688211Y-98531904D01*
X428688211Y-98531904D02*
X428783450Y-98436666D01*
X428783450Y-98436666D02*
X428831069Y-98293809D01*
X428831069Y-98293809D02*
X428831069Y-98055714D01*
X427831069Y-99531904D02*
X427831069Y-99055714D01*
X427831069Y-99055714D02*
X428307259Y-99008095D01*
X428307259Y-99008095D02*
X428259640Y-99055714D01*
X428259640Y-99055714D02*
X428212021Y-99150952D01*
X428212021Y-99150952D02*
X428212021Y-99389047D01*
X428212021Y-99389047D02*
X428259640Y-99484285D01*
X428259640Y-99484285D02*
X428307259Y-99531904D01*
X428307259Y-99531904D02*
X428402497Y-99579523D01*
X428402497Y-99579523D02*
X428640592Y-99579523D01*
X428640592Y-99579523D02*
X428735830Y-99531904D01*
X428735830Y-99531904D02*
X428783450Y-99484285D01*
X428783450Y-99484285D02*
X428831069Y-99389047D01*
X428831069Y-99389047D02*
X428831069Y-99150952D01*
X428831069Y-99150952D02*
X428783450Y-99055714D01*
X428783450Y-99055714D02*
X428735830Y-99008095D01*
X427831069Y-100484285D02*
X427831069Y-100008095D01*
X427831069Y-100008095D02*
X428307259Y-99960476D01*
X428307259Y-99960476D02*
X428259640Y-100008095D01*
X428259640Y-100008095D02*
X428212021Y-100103333D01*
X428212021Y-100103333D02*
X428212021Y-100341428D01*
X428212021Y-100341428D02*
X428259640Y-100436666D01*
X428259640Y-100436666D02*
X428307259Y-100484285D01*
X428307259Y-100484285D02*
X428402497Y-100531904D01*
X428402497Y-100531904D02*
X428640592Y-100531904D01*
X428640592Y-100531904D02*
X428735830Y-100484285D01*
X428735830Y-100484285D02*
X428783450Y-100436666D01*
X428783450Y-100436666D02*
X428831069Y-100341428D01*
X428831069Y-100341428D02*
X428831069Y-100103333D01*
X428831069Y-100103333D02*
X428783450Y-100008095D01*
X428783450Y-100008095D02*
X428735830Y-99960476D01*
X428461069Y-104088095D02*
X427461069Y-104088095D01*
X428461069Y-104659523D02*
X427889640Y-104230952D01*
X427461069Y-104659523D02*
X428032497Y-104088095D01*
X421687319Y-136155714D02*
X420687319Y-136155714D01*
X420687319Y-136155714D02*
X420687319Y-136393809D01*
X420687319Y-136393809D02*
X420734938Y-136536666D01*
X420734938Y-136536666D02*
X420830176Y-136631904D01*
X420830176Y-136631904D02*
X420925414Y-136679523D01*
X420925414Y-136679523D02*
X421115890Y-136727142D01*
X421115890Y-136727142D02*
X421258747Y-136727142D01*
X421258747Y-136727142D02*
X421449223Y-136679523D01*
X421449223Y-136679523D02*
X421544461Y-136631904D01*
X421544461Y-136631904D02*
X421639700Y-136536666D01*
X421639700Y-136536666D02*
X421687319Y-136393809D01*
X421687319Y-136393809D02*
X421687319Y-136155714D01*
X420687319Y-137060476D02*
X420687319Y-137727142D01*
X420687319Y-137727142D02*
X421687319Y-137298571D01*
X420687319Y-138536666D02*
X420687319Y-138346190D01*
X420687319Y-138346190D02*
X420734938Y-138250952D01*
X420734938Y-138250952D02*
X420782557Y-138203333D01*
X420782557Y-138203333D02*
X420925414Y-138108095D01*
X420925414Y-138108095D02*
X421115890Y-138060476D01*
X421115890Y-138060476D02*
X421496842Y-138060476D01*
X421496842Y-138060476D02*
X421592080Y-138108095D01*
X421592080Y-138108095D02*
X421639700Y-138155714D01*
X421639700Y-138155714D02*
X421687319Y-138250952D01*
X421687319Y-138250952D02*
X421687319Y-138441428D01*
X421687319Y-138441428D02*
X421639700Y-138536666D01*
X421639700Y-138536666D02*
X421592080Y-138584285D01*
X421592080Y-138584285D02*
X421496842Y-138631904D01*
X421496842Y-138631904D02*
X421258747Y-138631904D01*
X421258747Y-138631904D02*
X421163509Y-138584285D01*
X421163509Y-138584285D02*
X421115890Y-138536666D01*
X421115890Y-138536666D02*
X421068271Y-138441428D01*
X421068271Y-138441428D02*
X421068271Y-138250952D01*
X421068271Y-138250952D02*
X421115890Y-138155714D01*
X421115890Y-138155714D02*
X421163509Y-138108095D01*
X421163509Y-138108095D02*
X421258747Y-138060476D01*
X421317319Y-142188095D02*
X420317319Y-142188095D01*
X421317319Y-142759523D02*
X420745890Y-142330952D01*
X420317319Y-142759523D02*
X420888747Y-142188095D01*
X331199819Y-117105714D02*
X330199819Y-117105714D01*
X330199819Y-117105714D02*
X330199819Y-117343809D01*
X330199819Y-117343809D02*
X330247438Y-117486666D01*
X330247438Y-117486666D02*
X330342676Y-117581904D01*
X330342676Y-117581904D02*
X330437914Y-117629523D01*
X330437914Y-117629523D02*
X330628390Y-117677142D01*
X330628390Y-117677142D02*
X330771247Y-117677142D01*
X330771247Y-117677142D02*
X330961723Y-117629523D01*
X330961723Y-117629523D02*
X331056961Y-117581904D01*
X331056961Y-117581904D02*
X331152200Y-117486666D01*
X331152200Y-117486666D02*
X331199819Y-117343809D01*
X331199819Y-117343809D02*
X331199819Y-117105714D01*
X330199819Y-118534285D02*
X330199819Y-118343809D01*
X330199819Y-118343809D02*
X330247438Y-118248571D01*
X330247438Y-118248571D02*
X330295057Y-118200952D01*
X330295057Y-118200952D02*
X330437914Y-118105714D01*
X330437914Y-118105714D02*
X330628390Y-118058095D01*
X330628390Y-118058095D02*
X331009342Y-118058095D01*
X331009342Y-118058095D02*
X331104580Y-118105714D01*
X331104580Y-118105714D02*
X331152200Y-118153333D01*
X331152200Y-118153333D02*
X331199819Y-118248571D01*
X331199819Y-118248571D02*
X331199819Y-118439047D01*
X331199819Y-118439047D02*
X331152200Y-118534285D01*
X331152200Y-118534285D02*
X331104580Y-118581904D01*
X331104580Y-118581904D02*
X331009342Y-118629523D01*
X331009342Y-118629523D02*
X330771247Y-118629523D01*
X330771247Y-118629523D02*
X330676009Y-118581904D01*
X330676009Y-118581904D02*
X330628390Y-118534285D01*
X330628390Y-118534285D02*
X330580771Y-118439047D01*
X330580771Y-118439047D02*
X330580771Y-118248571D01*
X330580771Y-118248571D02*
X330628390Y-118153333D01*
X330628390Y-118153333D02*
X330676009Y-118105714D01*
X330676009Y-118105714D02*
X330771247Y-118058095D01*
X330199819Y-118962857D02*
X330199819Y-119581904D01*
X330199819Y-119581904D02*
X330580771Y-119248571D01*
X330580771Y-119248571D02*
X330580771Y-119391428D01*
X330580771Y-119391428D02*
X330628390Y-119486666D01*
X330628390Y-119486666D02*
X330676009Y-119534285D01*
X330676009Y-119534285D02*
X330771247Y-119581904D01*
X330771247Y-119581904D02*
X331009342Y-119581904D01*
X331009342Y-119581904D02*
X331104580Y-119534285D01*
X331104580Y-119534285D02*
X331152200Y-119486666D01*
X331152200Y-119486666D02*
X331199819Y-119391428D01*
X331199819Y-119391428D02*
X331199819Y-119105714D01*
X331199819Y-119105714D02*
X331152200Y-119010476D01*
X331152200Y-119010476D02*
X331104580Y-118962857D01*
X330829819Y-123138095D02*
X329829819Y-123138095D01*
X330829819Y-123709523D02*
X330258390Y-123280952D01*
X329829819Y-123709523D02*
X330401247Y-123138095D01*
X103874819Y-59955714D02*
X102874819Y-59955714D01*
X102874819Y-59955714D02*
X102874819Y-60193809D01*
X102874819Y-60193809D02*
X102922438Y-60336666D01*
X102922438Y-60336666D02*
X103017676Y-60431904D01*
X103017676Y-60431904D02*
X103112914Y-60479523D01*
X103112914Y-60479523D02*
X103303390Y-60527142D01*
X103303390Y-60527142D02*
X103446247Y-60527142D01*
X103446247Y-60527142D02*
X103636723Y-60479523D01*
X103636723Y-60479523D02*
X103731961Y-60431904D01*
X103731961Y-60431904D02*
X103827200Y-60336666D01*
X103827200Y-60336666D02*
X103874819Y-60193809D01*
X103874819Y-60193809D02*
X103874819Y-59955714D01*
X103874819Y-61479523D02*
X103874819Y-60908095D01*
X103874819Y-61193809D02*
X102874819Y-61193809D01*
X102874819Y-61193809D02*
X103017676Y-61098571D01*
X103017676Y-61098571D02*
X103112914Y-61003333D01*
X103112914Y-61003333D02*
X103160533Y-60908095D01*
X103303390Y-62050952D02*
X103255771Y-61955714D01*
X103255771Y-61955714D02*
X103208152Y-61908095D01*
X103208152Y-61908095D02*
X103112914Y-61860476D01*
X103112914Y-61860476D02*
X103065295Y-61860476D01*
X103065295Y-61860476D02*
X102970057Y-61908095D01*
X102970057Y-61908095D02*
X102922438Y-61955714D01*
X102922438Y-61955714D02*
X102874819Y-62050952D01*
X102874819Y-62050952D02*
X102874819Y-62241428D01*
X102874819Y-62241428D02*
X102922438Y-62336666D01*
X102922438Y-62336666D02*
X102970057Y-62384285D01*
X102970057Y-62384285D02*
X103065295Y-62431904D01*
X103065295Y-62431904D02*
X103112914Y-62431904D01*
X103112914Y-62431904D02*
X103208152Y-62384285D01*
X103208152Y-62384285D02*
X103255771Y-62336666D01*
X103255771Y-62336666D02*
X103303390Y-62241428D01*
X103303390Y-62241428D02*
X103303390Y-62050952D01*
X103303390Y-62050952D02*
X103351009Y-61955714D01*
X103351009Y-61955714D02*
X103398628Y-61908095D01*
X103398628Y-61908095D02*
X103493866Y-61860476D01*
X103493866Y-61860476D02*
X103684342Y-61860476D01*
X103684342Y-61860476D02*
X103779580Y-61908095D01*
X103779580Y-61908095D02*
X103827200Y-61955714D01*
X103827200Y-61955714D02*
X103874819Y-62050952D01*
X103874819Y-62050952D02*
X103874819Y-62241428D01*
X103874819Y-62241428D02*
X103827200Y-62336666D01*
X103827200Y-62336666D02*
X103779580Y-62384285D01*
X103779580Y-62384285D02*
X103684342Y-62431904D01*
X103684342Y-62431904D02*
X103493866Y-62431904D01*
X103493866Y-62431904D02*
X103398628Y-62384285D01*
X103398628Y-62384285D02*
X103351009Y-62336666D01*
X103351009Y-62336666D02*
X103303390Y-62241428D01*
X103504819Y-65988095D02*
X102504819Y-65988095D01*
X103504819Y-66559523D02*
X102933390Y-66130952D01*
X102504819Y-66559523D02*
X103076247Y-65988095D01*
X161024819Y-41381905D02*
X160024819Y-41381905D01*
X160024819Y-41381905D02*
X160024819Y-41620000D01*
X160024819Y-41620000D02*
X160072438Y-41762857D01*
X160072438Y-41762857D02*
X160167676Y-41858095D01*
X160167676Y-41858095D02*
X160262914Y-41905714D01*
X160262914Y-41905714D02*
X160453390Y-41953333D01*
X160453390Y-41953333D02*
X160596247Y-41953333D01*
X160596247Y-41953333D02*
X160786723Y-41905714D01*
X160786723Y-41905714D02*
X160881961Y-41858095D01*
X160881961Y-41858095D02*
X160977200Y-41762857D01*
X160977200Y-41762857D02*
X161024819Y-41620000D01*
X161024819Y-41620000D02*
X161024819Y-41381905D01*
X160024819Y-42286667D02*
X160024819Y-42953333D01*
X160024819Y-42953333D02*
X161024819Y-42524762D01*
X160654819Y-46938095D02*
X159654819Y-46938095D01*
X160654819Y-47509523D02*
X160083390Y-47080952D01*
X159654819Y-47509523D02*
X160226247Y-46938095D01*
X440737319Y-136155714D02*
X439737319Y-136155714D01*
X439737319Y-136155714D02*
X439737319Y-136393809D01*
X439737319Y-136393809D02*
X439784938Y-136536666D01*
X439784938Y-136536666D02*
X439880176Y-136631904D01*
X439880176Y-136631904D02*
X439975414Y-136679523D01*
X439975414Y-136679523D02*
X440165890Y-136727142D01*
X440165890Y-136727142D02*
X440308747Y-136727142D01*
X440308747Y-136727142D02*
X440499223Y-136679523D01*
X440499223Y-136679523D02*
X440594461Y-136631904D01*
X440594461Y-136631904D02*
X440689700Y-136536666D01*
X440689700Y-136536666D02*
X440737319Y-136393809D01*
X440737319Y-136393809D02*
X440737319Y-136155714D01*
X439737319Y-137060476D02*
X439737319Y-137727142D01*
X439737319Y-137727142D02*
X440737319Y-137298571D01*
X439737319Y-138012857D02*
X439737319Y-138679523D01*
X439737319Y-138679523D02*
X440737319Y-138250952D01*
X440367319Y-142188095D02*
X439367319Y-142188095D01*
X440367319Y-142759523D02*
X439795890Y-142330952D01*
X439367319Y-142759523D02*
X439938747Y-142188095D01*
X103874819Y-41381905D02*
X102874819Y-41381905D01*
X102874819Y-41381905D02*
X102874819Y-41620000D01*
X102874819Y-41620000D02*
X102922438Y-41762857D01*
X102922438Y-41762857D02*
X103017676Y-41858095D01*
X103017676Y-41858095D02*
X103112914Y-41905714D01*
X103112914Y-41905714D02*
X103303390Y-41953333D01*
X103303390Y-41953333D02*
X103446247Y-41953333D01*
X103446247Y-41953333D02*
X103636723Y-41905714D01*
X103636723Y-41905714D02*
X103731961Y-41858095D01*
X103731961Y-41858095D02*
X103827200Y-41762857D01*
X103827200Y-41762857D02*
X103874819Y-41620000D01*
X103874819Y-41620000D02*
X103874819Y-41381905D01*
X103208152Y-42810476D02*
X103874819Y-42810476D01*
X102827200Y-42572381D02*
X103541485Y-42334286D01*
X103541485Y-42334286D02*
X103541485Y-42953333D01*
X103504819Y-46938095D02*
X102504819Y-46938095D01*
X103504819Y-47509523D02*
X102933390Y-47080952D01*
X102504819Y-47509523D02*
X103076247Y-46938095D01*
X113399819Y-79005714D02*
X112399819Y-79005714D01*
X112399819Y-79005714D02*
X112399819Y-79243809D01*
X112399819Y-79243809D02*
X112447438Y-79386666D01*
X112447438Y-79386666D02*
X112542676Y-79481904D01*
X112542676Y-79481904D02*
X112637914Y-79529523D01*
X112637914Y-79529523D02*
X112828390Y-79577142D01*
X112828390Y-79577142D02*
X112971247Y-79577142D01*
X112971247Y-79577142D02*
X113161723Y-79529523D01*
X113161723Y-79529523D02*
X113256961Y-79481904D01*
X113256961Y-79481904D02*
X113352200Y-79386666D01*
X113352200Y-79386666D02*
X113399819Y-79243809D01*
X113399819Y-79243809D02*
X113399819Y-79005714D01*
X112399819Y-79910476D02*
X112399819Y-80529523D01*
X112399819Y-80529523D02*
X112780771Y-80196190D01*
X112780771Y-80196190D02*
X112780771Y-80339047D01*
X112780771Y-80339047D02*
X112828390Y-80434285D01*
X112828390Y-80434285D02*
X112876009Y-80481904D01*
X112876009Y-80481904D02*
X112971247Y-80529523D01*
X112971247Y-80529523D02*
X113209342Y-80529523D01*
X113209342Y-80529523D02*
X113304580Y-80481904D01*
X113304580Y-80481904D02*
X113352200Y-80434285D01*
X113352200Y-80434285D02*
X113399819Y-80339047D01*
X113399819Y-80339047D02*
X113399819Y-80053333D01*
X113399819Y-80053333D02*
X113352200Y-79958095D01*
X113352200Y-79958095D02*
X113304580Y-79910476D01*
X112495057Y-80910476D02*
X112447438Y-80958095D01*
X112447438Y-80958095D02*
X112399819Y-81053333D01*
X112399819Y-81053333D02*
X112399819Y-81291428D01*
X112399819Y-81291428D02*
X112447438Y-81386666D01*
X112447438Y-81386666D02*
X112495057Y-81434285D01*
X112495057Y-81434285D02*
X112590295Y-81481904D01*
X112590295Y-81481904D02*
X112685533Y-81481904D01*
X112685533Y-81481904D02*
X112828390Y-81434285D01*
X112828390Y-81434285D02*
X113399819Y-80862857D01*
X113399819Y-80862857D02*
X113399819Y-81481904D01*
X113029819Y-85038095D02*
X112029819Y-85038095D01*
X113029819Y-85609523D02*
X112458390Y-85180952D01*
X112029819Y-85609523D02*
X112601247Y-85038095D01*
X431212319Y-59955714D02*
X430212319Y-59955714D01*
X430212319Y-59955714D02*
X430212319Y-60193809D01*
X430212319Y-60193809D02*
X430259938Y-60336666D01*
X430259938Y-60336666D02*
X430355176Y-60431904D01*
X430355176Y-60431904D02*
X430450414Y-60479523D01*
X430450414Y-60479523D02*
X430640890Y-60527142D01*
X430640890Y-60527142D02*
X430783747Y-60527142D01*
X430783747Y-60527142D02*
X430974223Y-60479523D01*
X430974223Y-60479523D02*
X431069461Y-60431904D01*
X431069461Y-60431904D02*
X431164700Y-60336666D01*
X431164700Y-60336666D02*
X431212319Y-60193809D01*
X431212319Y-60193809D02*
X431212319Y-59955714D01*
X430307557Y-60908095D02*
X430259938Y-60955714D01*
X430259938Y-60955714D02*
X430212319Y-61050952D01*
X430212319Y-61050952D02*
X430212319Y-61289047D01*
X430212319Y-61289047D02*
X430259938Y-61384285D01*
X430259938Y-61384285D02*
X430307557Y-61431904D01*
X430307557Y-61431904D02*
X430402795Y-61479523D01*
X430402795Y-61479523D02*
X430498033Y-61479523D01*
X430498033Y-61479523D02*
X430640890Y-61431904D01*
X430640890Y-61431904D02*
X431212319Y-60860476D01*
X431212319Y-60860476D02*
X431212319Y-61479523D01*
X430640890Y-62050952D02*
X430593271Y-61955714D01*
X430593271Y-61955714D02*
X430545652Y-61908095D01*
X430545652Y-61908095D02*
X430450414Y-61860476D01*
X430450414Y-61860476D02*
X430402795Y-61860476D01*
X430402795Y-61860476D02*
X430307557Y-61908095D01*
X430307557Y-61908095D02*
X430259938Y-61955714D01*
X430259938Y-61955714D02*
X430212319Y-62050952D01*
X430212319Y-62050952D02*
X430212319Y-62241428D01*
X430212319Y-62241428D02*
X430259938Y-62336666D01*
X430259938Y-62336666D02*
X430307557Y-62384285D01*
X430307557Y-62384285D02*
X430402795Y-62431904D01*
X430402795Y-62431904D02*
X430450414Y-62431904D01*
X430450414Y-62431904D02*
X430545652Y-62384285D01*
X430545652Y-62384285D02*
X430593271Y-62336666D01*
X430593271Y-62336666D02*
X430640890Y-62241428D01*
X430640890Y-62241428D02*
X430640890Y-62050952D01*
X430640890Y-62050952D02*
X430688509Y-61955714D01*
X430688509Y-61955714D02*
X430736128Y-61908095D01*
X430736128Y-61908095D02*
X430831366Y-61860476D01*
X430831366Y-61860476D02*
X431021842Y-61860476D01*
X431021842Y-61860476D02*
X431117080Y-61908095D01*
X431117080Y-61908095D02*
X431164700Y-61955714D01*
X431164700Y-61955714D02*
X431212319Y-62050952D01*
X431212319Y-62050952D02*
X431212319Y-62241428D01*
X431212319Y-62241428D02*
X431164700Y-62336666D01*
X431164700Y-62336666D02*
X431117080Y-62384285D01*
X431117080Y-62384285D02*
X431021842Y-62431904D01*
X431021842Y-62431904D02*
X430831366Y-62431904D01*
X430831366Y-62431904D02*
X430736128Y-62384285D01*
X430736128Y-62384285D02*
X430688509Y-62336666D01*
X430688509Y-62336666D02*
X430640890Y-62241428D01*
X430842319Y-65988095D02*
X429842319Y-65988095D01*
X430842319Y-66559523D02*
X430270890Y-66130952D01*
X429842319Y-66559523D02*
X430413747Y-65988095D01*
X51487319Y-79005714D02*
X50487319Y-79005714D01*
X50487319Y-79005714D02*
X50487319Y-79243809D01*
X50487319Y-79243809D02*
X50534938Y-79386666D01*
X50534938Y-79386666D02*
X50630176Y-79481904D01*
X50630176Y-79481904D02*
X50725414Y-79529523D01*
X50725414Y-79529523D02*
X50915890Y-79577142D01*
X50915890Y-79577142D02*
X51058747Y-79577142D01*
X51058747Y-79577142D02*
X51249223Y-79529523D01*
X51249223Y-79529523D02*
X51344461Y-79481904D01*
X51344461Y-79481904D02*
X51439700Y-79386666D01*
X51439700Y-79386666D02*
X51487319Y-79243809D01*
X51487319Y-79243809D02*
X51487319Y-79005714D01*
X50582557Y-79958095D02*
X50534938Y-80005714D01*
X50534938Y-80005714D02*
X50487319Y-80100952D01*
X50487319Y-80100952D02*
X50487319Y-80339047D01*
X50487319Y-80339047D02*
X50534938Y-80434285D01*
X50534938Y-80434285D02*
X50582557Y-80481904D01*
X50582557Y-80481904D02*
X50677795Y-80529523D01*
X50677795Y-80529523D02*
X50773033Y-80529523D01*
X50773033Y-80529523D02*
X50915890Y-80481904D01*
X50915890Y-80481904D02*
X51487319Y-79910476D01*
X51487319Y-79910476D02*
X51487319Y-80529523D01*
X51487319Y-81005714D02*
X51487319Y-81196190D01*
X51487319Y-81196190D02*
X51439700Y-81291428D01*
X51439700Y-81291428D02*
X51392080Y-81339047D01*
X51392080Y-81339047D02*
X51249223Y-81434285D01*
X51249223Y-81434285D02*
X51058747Y-81481904D01*
X51058747Y-81481904D02*
X50677795Y-81481904D01*
X50677795Y-81481904D02*
X50582557Y-81434285D01*
X50582557Y-81434285D02*
X50534938Y-81386666D01*
X50534938Y-81386666D02*
X50487319Y-81291428D01*
X50487319Y-81291428D02*
X50487319Y-81100952D01*
X50487319Y-81100952D02*
X50534938Y-81005714D01*
X50534938Y-81005714D02*
X50582557Y-80958095D01*
X50582557Y-80958095D02*
X50677795Y-80910476D01*
X50677795Y-80910476D02*
X50915890Y-80910476D01*
X50915890Y-80910476D02*
X51011128Y-80958095D01*
X51011128Y-80958095D02*
X51058747Y-81005714D01*
X51058747Y-81005714D02*
X51106366Y-81100952D01*
X51106366Y-81100952D02*
X51106366Y-81291428D01*
X51106366Y-81291428D02*
X51058747Y-81386666D01*
X51058747Y-81386666D02*
X51011128Y-81434285D01*
X51011128Y-81434285D02*
X50915890Y-81481904D01*
X51117319Y-85038095D02*
X50117319Y-85038095D01*
X51117319Y-85609523D02*
X50545890Y-85180952D01*
X50117319Y-85609523D02*
X50688747Y-85038095D01*
X359774819Y-98055714D02*
X358774819Y-98055714D01*
X358774819Y-98055714D02*
X358774819Y-98293809D01*
X358774819Y-98293809D02*
X358822438Y-98436666D01*
X358822438Y-98436666D02*
X358917676Y-98531904D01*
X358917676Y-98531904D02*
X359012914Y-98579523D01*
X359012914Y-98579523D02*
X359203390Y-98627142D01*
X359203390Y-98627142D02*
X359346247Y-98627142D01*
X359346247Y-98627142D02*
X359536723Y-98579523D01*
X359536723Y-98579523D02*
X359631961Y-98531904D01*
X359631961Y-98531904D02*
X359727200Y-98436666D01*
X359727200Y-98436666D02*
X359774819Y-98293809D01*
X359774819Y-98293809D02*
X359774819Y-98055714D01*
X358774819Y-99531904D02*
X358774819Y-99055714D01*
X358774819Y-99055714D02*
X359251009Y-99008095D01*
X359251009Y-99008095D02*
X359203390Y-99055714D01*
X359203390Y-99055714D02*
X359155771Y-99150952D01*
X359155771Y-99150952D02*
X359155771Y-99389047D01*
X359155771Y-99389047D02*
X359203390Y-99484285D01*
X359203390Y-99484285D02*
X359251009Y-99531904D01*
X359251009Y-99531904D02*
X359346247Y-99579523D01*
X359346247Y-99579523D02*
X359584342Y-99579523D01*
X359584342Y-99579523D02*
X359679580Y-99531904D01*
X359679580Y-99531904D02*
X359727200Y-99484285D01*
X359727200Y-99484285D02*
X359774819Y-99389047D01*
X359774819Y-99389047D02*
X359774819Y-99150952D01*
X359774819Y-99150952D02*
X359727200Y-99055714D01*
X359727200Y-99055714D02*
X359679580Y-99008095D01*
X358870057Y-99960476D02*
X358822438Y-100008095D01*
X358822438Y-100008095D02*
X358774819Y-100103333D01*
X358774819Y-100103333D02*
X358774819Y-100341428D01*
X358774819Y-100341428D02*
X358822438Y-100436666D01*
X358822438Y-100436666D02*
X358870057Y-100484285D01*
X358870057Y-100484285D02*
X358965295Y-100531904D01*
X358965295Y-100531904D02*
X359060533Y-100531904D01*
X359060533Y-100531904D02*
X359203390Y-100484285D01*
X359203390Y-100484285D02*
X359774819Y-99912857D01*
X359774819Y-99912857D02*
X359774819Y-100531904D01*
X359404819Y-104088095D02*
X358404819Y-104088095D01*
X359404819Y-104659523D02*
X358833390Y-104230952D01*
X358404819Y-104659523D02*
X358976247Y-104088095D01*
X122924819Y-41381905D02*
X121924819Y-41381905D01*
X121924819Y-41381905D02*
X121924819Y-41620000D01*
X121924819Y-41620000D02*
X121972438Y-41762857D01*
X121972438Y-41762857D02*
X122067676Y-41858095D01*
X122067676Y-41858095D02*
X122162914Y-41905714D01*
X122162914Y-41905714D02*
X122353390Y-41953333D01*
X122353390Y-41953333D02*
X122496247Y-41953333D01*
X122496247Y-41953333D02*
X122686723Y-41905714D01*
X122686723Y-41905714D02*
X122781961Y-41858095D01*
X122781961Y-41858095D02*
X122877200Y-41762857D01*
X122877200Y-41762857D02*
X122924819Y-41620000D01*
X122924819Y-41620000D02*
X122924819Y-41381905D01*
X121924819Y-42858095D02*
X121924819Y-42381905D01*
X121924819Y-42381905D02*
X122401009Y-42334286D01*
X122401009Y-42334286D02*
X122353390Y-42381905D01*
X122353390Y-42381905D02*
X122305771Y-42477143D01*
X122305771Y-42477143D02*
X122305771Y-42715238D01*
X122305771Y-42715238D02*
X122353390Y-42810476D01*
X122353390Y-42810476D02*
X122401009Y-42858095D01*
X122401009Y-42858095D02*
X122496247Y-42905714D01*
X122496247Y-42905714D02*
X122734342Y-42905714D01*
X122734342Y-42905714D02*
X122829580Y-42858095D01*
X122829580Y-42858095D02*
X122877200Y-42810476D01*
X122877200Y-42810476D02*
X122924819Y-42715238D01*
X122924819Y-42715238D02*
X122924819Y-42477143D01*
X122924819Y-42477143D02*
X122877200Y-42381905D01*
X122877200Y-42381905D02*
X122829580Y-42334286D01*
X122554819Y-46938095D02*
X121554819Y-46938095D01*
X122554819Y-47509523D02*
X121983390Y-47080952D01*
X121554819Y-47509523D02*
X122126247Y-46938095D01*
X364537319Y-136155714D02*
X363537319Y-136155714D01*
X363537319Y-136155714D02*
X363537319Y-136393809D01*
X363537319Y-136393809D02*
X363584938Y-136536666D01*
X363584938Y-136536666D02*
X363680176Y-136631904D01*
X363680176Y-136631904D02*
X363775414Y-136679523D01*
X363775414Y-136679523D02*
X363965890Y-136727142D01*
X363965890Y-136727142D02*
X364108747Y-136727142D01*
X364108747Y-136727142D02*
X364299223Y-136679523D01*
X364299223Y-136679523D02*
X364394461Y-136631904D01*
X364394461Y-136631904D02*
X364489700Y-136536666D01*
X364489700Y-136536666D02*
X364537319Y-136393809D01*
X364537319Y-136393809D02*
X364537319Y-136155714D01*
X363537319Y-137060476D02*
X363537319Y-137727142D01*
X363537319Y-137727142D02*
X364537319Y-137298571D01*
X363537319Y-138012857D02*
X363537319Y-138631904D01*
X363537319Y-138631904D02*
X363918271Y-138298571D01*
X363918271Y-138298571D02*
X363918271Y-138441428D01*
X363918271Y-138441428D02*
X363965890Y-138536666D01*
X363965890Y-138536666D02*
X364013509Y-138584285D01*
X364013509Y-138584285D02*
X364108747Y-138631904D01*
X364108747Y-138631904D02*
X364346842Y-138631904D01*
X364346842Y-138631904D02*
X364442080Y-138584285D01*
X364442080Y-138584285D02*
X364489700Y-138536666D01*
X364489700Y-138536666D02*
X364537319Y-138441428D01*
X364537319Y-138441428D02*
X364537319Y-138155714D01*
X364537319Y-138155714D02*
X364489700Y-138060476D01*
X364489700Y-138060476D02*
X364442080Y-138012857D01*
X364167319Y-142188095D02*
X363167319Y-142188095D01*
X364167319Y-142759523D02*
X363595890Y-142330952D01*
X363167319Y-142759523D02*
X363738747Y-142188095D01*
X326437319Y-41381905D02*
X325437319Y-41381905D01*
X325437319Y-41381905D02*
X325437319Y-41620000D01*
X325437319Y-41620000D02*
X325484938Y-41762857D01*
X325484938Y-41762857D02*
X325580176Y-41858095D01*
X325580176Y-41858095D02*
X325675414Y-41905714D01*
X325675414Y-41905714D02*
X325865890Y-41953333D01*
X325865890Y-41953333D02*
X326008747Y-41953333D01*
X326008747Y-41953333D02*
X326199223Y-41905714D01*
X326199223Y-41905714D02*
X326294461Y-41858095D01*
X326294461Y-41858095D02*
X326389700Y-41762857D01*
X326389700Y-41762857D02*
X326437319Y-41620000D01*
X326437319Y-41620000D02*
X326437319Y-41381905D01*
X326437319Y-42429524D02*
X326437319Y-42620000D01*
X326437319Y-42620000D02*
X326389700Y-42715238D01*
X326389700Y-42715238D02*
X326342080Y-42762857D01*
X326342080Y-42762857D02*
X326199223Y-42858095D01*
X326199223Y-42858095D02*
X326008747Y-42905714D01*
X326008747Y-42905714D02*
X325627795Y-42905714D01*
X325627795Y-42905714D02*
X325532557Y-42858095D01*
X325532557Y-42858095D02*
X325484938Y-42810476D01*
X325484938Y-42810476D02*
X325437319Y-42715238D01*
X325437319Y-42715238D02*
X325437319Y-42524762D01*
X325437319Y-42524762D02*
X325484938Y-42429524D01*
X325484938Y-42429524D02*
X325532557Y-42381905D01*
X325532557Y-42381905D02*
X325627795Y-42334286D01*
X325627795Y-42334286D02*
X325865890Y-42334286D01*
X325865890Y-42334286D02*
X325961128Y-42381905D01*
X325961128Y-42381905D02*
X326008747Y-42429524D01*
X326008747Y-42429524D02*
X326056366Y-42524762D01*
X326056366Y-42524762D02*
X326056366Y-42715238D01*
X326056366Y-42715238D02*
X326008747Y-42810476D01*
X326008747Y-42810476D02*
X325961128Y-42858095D01*
X325961128Y-42858095D02*
X325865890Y-42905714D01*
X326067319Y-46938095D02*
X325067319Y-46938095D01*
X326067319Y-47509523D02*
X325495890Y-47080952D01*
X325067319Y-47509523D02*
X325638747Y-46938095D01*
X46724819Y-41381905D02*
X45724819Y-41381905D01*
X45724819Y-41381905D02*
X45724819Y-41620000D01*
X45724819Y-41620000D02*
X45772438Y-41762857D01*
X45772438Y-41762857D02*
X45867676Y-41858095D01*
X45867676Y-41858095D02*
X45962914Y-41905714D01*
X45962914Y-41905714D02*
X46153390Y-41953333D01*
X46153390Y-41953333D02*
X46296247Y-41953333D01*
X46296247Y-41953333D02*
X46486723Y-41905714D01*
X46486723Y-41905714D02*
X46581961Y-41858095D01*
X46581961Y-41858095D02*
X46677200Y-41762857D01*
X46677200Y-41762857D02*
X46724819Y-41620000D01*
X46724819Y-41620000D02*
X46724819Y-41381905D01*
X46724819Y-42905714D02*
X46724819Y-42334286D01*
X46724819Y-42620000D02*
X45724819Y-42620000D01*
X45724819Y-42620000D02*
X45867676Y-42524762D01*
X45867676Y-42524762D02*
X45962914Y-42429524D01*
X45962914Y-42429524D02*
X46010533Y-42334286D01*
X46354819Y-46938095D02*
X45354819Y-46938095D01*
X46354819Y-47509523D02*
X45783390Y-47080952D01*
X45354819Y-47509523D02*
X45926247Y-46938095D01*
X345487319Y-59955714D02*
X344487319Y-59955714D01*
X344487319Y-59955714D02*
X344487319Y-60193809D01*
X344487319Y-60193809D02*
X344534938Y-60336666D01*
X344534938Y-60336666D02*
X344630176Y-60431904D01*
X344630176Y-60431904D02*
X344725414Y-60479523D01*
X344725414Y-60479523D02*
X344915890Y-60527142D01*
X344915890Y-60527142D02*
X345058747Y-60527142D01*
X345058747Y-60527142D02*
X345249223Y-60479523D01*
X345249223Y-60479523D02*
X345344461Y-60431904D01*
X345344461Y-60431904D02*
X345439700Y-60336666D01*
X345439700Y-60336666D02*
X345487319Y-60193809D01*
X345487319Y-60193809D02*
X345487319Y-59955714D01*
X344582557Y-60908095D02*
X344534938Y-60955714D01*
X344534938Y-60955714D02*
X344487319Y-61050952D01*
X344487319Y-61050952D02*
X344487319Y-61289047D01*
X344487319Y-61289047D02*
X344534938Y-61384285D01*
X344534938Y-61384285D02*
X344582557Y-61431904D01*
X344582557Y-61431904D02*
X344677795Y-61479523D01*
X344677795Y-61479523D02*
X344773033Y-61479523D01*
X344773033Y-61479523D02*
X344915890Y-61431904D01*
X344915890Y-61431904D02*
X345487319Y-60860476D01*
X345487319Y-60860476D02*
X345487319Y-61479523D01*
X344820652Y-62336666D02*
X345487319Y-62336666D01*
X344439700Y-62098571D02*
X345153985Y-61860476D01*
X345153985Y-61860476D02*
X345153985Y-62479523D01*
X345117319Y-65988095D02*
X344117319Y-65988095D01*
X345117319Y-66559523D02*
X344545890Y-66130952D01*
X344117319Y-66559523D02*
X344688747Y-65988095D01*
X118162319Y-98055714D02*
X117162319Y-98055714D01*
X117162319Y-98055714D02*
X117162319Y-98293809D01*
X117162319Y-98293809D02*
X117209938Y-98436666D01*
X117209938Y-98436666D02*
X117305176Y-98531904D01*
X117305176Y-98531904D02*
X117400414Y-98579523D01*
X117400414Y-98579523D02*
X117590890Y-98627142D01*
X117590890Y-98627142D02*
X117733747Y-98627142D01*
X117733747Y-98627142D02*
X117924223Y-98579523D01*
X117924223Y-98579523D02*
X118019461Y-98531904D01*
X118019461Y-98531904D02*
X118114700Y-98436666D01*
X118114700Y-98436666D02*
X118162319Y-98293809D01*
X118162319Y-98293809D02*
X118162319Y-98055714D01*
X117495652Y-99484285D02*
X118162319Y-99484285D01*
X117114700Y-99246190D02*
X117828985Y-99008095D01*
X117828985Y-99008095D02*
X117828985Y-99627142D01*
X117162319Y-100436666D02*
X117162319Y-100246190D01*
X117162319Y-100246190D02*
X117209938Y-100150952D01*
X117209938Y-100150952D02*
X117257557Y-100103333D01*
X117257557Y-100103333D02*
X117400414Y-100008095D01*
X117400414Y-100008095D02*
X117590890Y-99960476D01*
X117590890Y-99960476D02*
X117971842Y-99960476D01*
X117971842Y-99960476D02*
X118067080Y-100008095D01*
X118067080Y-100008095D02*
X118114700Y-100055714D01*
X118114700Y-100055714D02*
X118162319Y-100150952D01*
X118162319Y-100150952D02*
X118162319Y-100341428D01*
X118162319Y-100341428D02*
X118114700Y-100436666D01*
X118114700Y-100436666D02*
X118067080Y-100484285D01*
X118067080Y-100484285D02*
X117971842Y-100531904D01*
X117971842Y-100531904D02*
X117733747Y-100531904D01*
X117733747Y-100531904D02*
X117638509Y-100484285D01*
X117638509Y-100484285D02*
X117590890Y-100436666D01*
X117590890Y-100436666D02*
X117543271Y-100341428D01*
X117543271Y-100341428D02*
X117543271Y-100150952D01*
X117543271Y-100150952D02*
X117590890Y-100055714D01*
X117590890Y-100055714D02*
X117638509Y-100008095D01*
X117638509Y-100008095D02*
X117733747Y-99960476D01*
X117792319Y-104088095D02*
X116792319Y-104088095D01*
X117792319Y-104659523D02*
X117220890Y-104230952D01*
X116792319Y-104659523D02*
X117363747Y-104088095D01*
X435974819Y-79005714D02*
X434974819Y-79005714D01*
X434974819Y-79005714D02*
X434974819Y-79243809D01*
X434974819Y-79243809D02*
X435022438Y-79386666D01*
X435022438Y-79386666D02*
X435117676Y-79481904D01*
X435117676Y-79481904D02*
X435212914Y-79529523D01*
X435212914Y-79529523D02*
X435403390Y-79577142D01*
X435403390Y-79577142D02*
X435546247Y-79577142D01*
X435546247Y-79577142D02*
X435736723Y-79529523D01*
X435736723Y-79529523D02*
X435831961Y-79481904D01*
X435831961Y-79481904D02*
X435927200Y-79386666D01*
X435927200Y-79386666D02*
X435974819Y-79243809D01*
X435974819Y-79243809D02*
X435974819Y-79005714D01*
X435308152Y-80434285D02*
X435974819Y-80434285D01*
X434927200Y-80196190D02*
X435641485Y-79958095D01*
X435641485Y-79958095D02*
X435641485Y-80577142D01*
X435070057Y-80910476D02*
X435022438Y-80958095D01*
X435022438Y-80958095D02*
X434974819Y-81053333D01*
X434974819Y-81053333D02*
X434974819Y-81291428D01*
X434974819Y-81291428D02*
X435022438Y-81386666D01*
X435022438Y-81386666D02*
X435070057Y-81434285D01*
X435070057Y-81434285D02*
X435165295Y-81481904D01*
X435165295Y-81481904D02*
X435260533Y-81481904D01*
X435260533Y-81481904D02*
X435403390Y-81434285D01*
X435403390Y-81434285D02*
X435974819Y-80862857D01*
X435974819Y-80862857D02*
X435974819Y-81481904D01*
X435604819Y-85038095D02*
X434604819Y-85038095D01*
X435604819Y-85609523D02*
X435033390Y-85180952D01*
X434604819Y-85609523D02*
X435176247Y-85038095D01*
X53868569Y-98055714D02*
X52868569Y-98055714D01*
X52868569Y-98055714D02*
X52868569Y-98293809D01*
X52868569Y-98293809D02*
X52916188Y-98436666D01*
X52916188Y-98436666D02*
X53011426Y-98531904D01*
X53011426Y-98531904D02*
X53106664Y-98579523D01*
X53106664Y-98579523D02*
X53297140Y-98627142D01*
X53297140Y-98627142D02*
X53439997Y-98627142D01*
X53439997Y-98627142D02*
X53630473Y-98579523D01*
X53630473Y-98579523D02*
X53725711Y-98531904D01*
X53725711Y-98531904D02*
X53820950Y-98436666D01*
X53820950Y-98436666D02*
X53868569Y-98293809D01*
X53868569Y-98293809D02*
X53868569Y-98055714D01*
X53201902Y-99484285D02*
X53868569Y-99484285D01*
X52820950Y-99246190D02*
X53535235Y-99008095D01*
X53535235Y-99008095D02*
X53535235Y-99627142D01*
X52868569Y-99912857D02*
X52868569Y-100531904D01*
X52868569Y-100531904D02*
X53249521Y-100198571D01*
X53249521Y-100198571D02*
X53249521Y-100341428D01*
X53249521Y-100341428D02*
X53297140Y-100436666D01*
X53297140Y-100436666D02*
X53344759Y-100484285D01*
X53344759Y-100484285D02*
X53439997Y-100531904D01*
X53439997Y-100531904D02*
X53678092Y-100531904D01*
X53678092Y-100531904D02*
X53773330Y-100484285D01*
X53773330Y-100484285D02*
X53820950Y-100436666D01*
X53820950Y-100436666D02*
X53868569Y-100341428D01*
X53868569Y-100341428D02*
X53868569Y-100055714D01*
X53868569Y-100055714D02*
X53820950Y-99960476D01*
X53820950Y-99960476D02*
X53773330Y-99912857D01*
X53498569Y-104088095D02*
X52498569Y-104088095D01*
X53498569Y-104659523D02*
X52927140Y-104230952D01*
X52498569Y-104659523D02*
X53069997Y-104088095D01*
X146737319Y-117105714D02*
X145737319Y-117105714D01*
X145737319Y-117105714D02*
X145737319Y-117343809D01*
X145737319Y-117343809D02*
X145784938Y-117486666D01*
X145784938Y-117486666D02*
X145880176Y-117581904D01*
X145880176Y-117581904D02*
X145975414Y-117629523D01*
X145975414Y-117629523D02*
X146165890Y-117677142D01*
X146165890Y-117677142D02*
X146308747Y-117677142D01*
X146308747Y-117677142D02*
X146499223Y-117629523D01*
X146499223Y-117629523D02*
X146594461Y-117581904D01*
X146594461Y-117581904D02*
X146689700Y-117486666D01*
X146689700Y-117486666D02*
X146737319Y-117343809D01*
X146737319Y-117343809D02*
X146737319Y-117105714D01*
X145737319Y-118534285D02*
X145737319Y-118343809D01*
X145737319Y-118343809D02*
X145784938Y-118248571D01*
X145784938Y-118248571D02*
X145832557Y-118200952D01*
X145832557Y-118200952D02*
X145975414Y-118105714D01*
X145975414Y-118105714D02*
X146165890Y-118058095D01*
X146165890Y-118058095D02*
X146546842Y-118058095D01*
X146546842Y-118058095D02*
X146642080Y-118105714D01*
X146642080Y-118105714D02*
X146689700Y-118153333D01*
X146689700Y-118153333D02*
X146737319Y-118248571D01*
X146737319Y-118248571D02*
X146737319Y-118439047D01*
X146737319Y-118439047D02*
X146689700Y-118534285D01*
X146689700Y-118534285D02*
X146642080Y-118581904D01*
X146642080Y-118581904D02*
X146546842Y-118629523D01*
X146546842Y-118629523D02*
X146308747Y-118629523D01*
X146308747Y-118629523D02*
X146213509Y-118581904D01*
X146213509Y-118581904D02*
X146165890Y-118534285D01*
X146165890Y-118534285D02*
X146118271Y-118439047D01*
X146118271Y-118439047D02*
X146118271Y-118248571D01*
X146118271Y-118248571D02*
X146165890Y-118153333D01*
X146165890Y-118153333D02*
X146213509Y-118105714D01*
X146213509Y-118105714D02*
X146308747Y-118058095D01*
X145737319Y-119248571D02*
X145737319Y-119343809D01*
X145737319Y-119343809D02*
X145784938Y-119439047D01*
X145784938Y-119439047D02*
X145832557Y-119486666D01*
X145832557Y-119486666D02*
X145927795Y-119534285D01*
X145927795Y-119534285D02*
X146118271Y-119581904D01*
X146118271Y-119581904D02*
X146356366Y-119581904D01*
X146356366Y-119581904D02*
X146546842Y-119534285D01*
X146546842Y-119534285D02*
X146642080Y-119486666D01*
X146642080Y-119486666D02*
X146689700Y-119439047D01*
X146689700Y-119439047D02*
X146737319Y-119343809D01*
X146737319Y-119343809D02*
X146737319Y-119248571D01*
X146737319Y-119248571D02*
X146689700Y-119153333D01*
X146689700Y-119153333D02*
X146642080Y-119105714D01*
X146642080Y-119105714D02*
X146546842Y-119058095D01*
X146546842Y-119058095D02*
X146356366Y-119010476D01*
X146356366Y-119010476D02*
X146118271Y-119010476D01*
X146118271Y-119010476D02*
X145927795Y-119058095D01*
X145927795Y-119058095D02*
X145832557Y-119105714D01*
X145832557Y-119105714D02*
X145784938Y-119153333D01*
X145784938Y-119153333D02*
X145737319Y-119248571D01*
X146367319Y-123138095D02*
X145367319Y-123138095D01*
X146367319Y-123709523D02*
X145795890Y-123280952D01*
X145367319Y-123709523D02*
X145938747Y-123138095D01*
X402637319Y-40905714D02*
X401637319Y-40905714D01*
X401637319Y-40905714D02*
X401637319Y-41143809D01*
X401637319Y-41143809D02*
X401684938Y-41286666D01*
X401684938Y-41286666D02*
X401780176Y-41381904D01*
X401780176Y-41381904D02*
X401875414Y-41429523D01*
X401875414Y-41429523D02*
X402065890Y-41477142D01*
X402065890Y-41477142D02*
X402208747Y-41477142D01*
X402208747Y-41477142D02*
X402399223Y-41429523D01*
X402399223Y-41429523D02*
X402494461Y-41381904D01*
X402494461Y-41381904D02*
X402589700Y-41286666D01*
X402589700Y-41286666D02*
X402637319Y-41143809D01*
X402637319Y-41143809D02*
X402637319Y-40905714D01*
X402637319Y-42429523D02*
X402637319Y-41858095D01*
X402637319Y-42143809D02*
X401637319Y-42143809D01*
X401637319Y-42143809D02*
X401780176Y-42048571D01*
X401780176Y-42048571D02*
X401875414Y-41953333D01*
X401875414Y-41953333D02*
X401923033Y-41858095D01*
X401637319Y-42762857D02*
X401637319Y-43381904D01*
X401637319Y-43381904D02*
X402018271Y-43048571D01*
X402018271Y-43048571D02*
X402018271Y-43191428D01*
X402018271Y-43191428D02*
X402065890Y-43286666D01*
X402065890Y-43286666D02*
X402113509Y-43334285D01*
X402113509Y-43334285D02*
X402208747Y-43381904D01*
X402208747Y-43381904D02*
X402446842Y-43381904D01*
X402446842Y-43381904D02*
X402542080Y-43334285D01*
X402542080Y-43334285D02*
X402589700Y-43286666D01*
X402589700Y-43286666D02*
X402637319Y-43191428D01*
X402637319Y-43191428D02*
X402637319Y-42905714D01*
X402637319Y-42905714D02*
X402589700Y-42810476D01*
X402589700Y-42810476D02*
X402542080Y-42762857D01*
X402267319Y-46938095D02*
X401267319Y-46938095D01*
X402267319Y-47509523D02*
X401695890Y-47080952D01*
X401267319Y-47509523D02*
X401838747Y-46938095D01*
%TO.C,D56*%
D11*
X55706250Y-114580000D02*
X55706250Y-115600000D01*
X55706250Y-122060000D02*
X55706250Y-121040000D01*
X57176250Y-120020000D02*
X54236250Y-120020000D01*
X57176250Y-120140000D02*
X54236250Y-120140000D01*
X57176250Y-120260000D02*
X54236250Y-120260000D01*
X54236250Y-115600000D02*
X57176250Y-115600000D01*
X57176250Y-121040000D01*
X54236250Y-121040000D01*
X54236250Y-115600000D01*
%TO.C,D16*%
X62850000Y-57430000D02*
X62850000Y-58450000D01*
X62850000Y-64910000D02*
X62850000Y-63890000D01*
X64320000Y-62870000D02*
X61380000Y-62870000D01*
X64320000Y-62990000D02*
X61380000Y-62990000D01*
X64320000Y-63110000D02*
X61380000Y-63110000D01*
X61380000Y-58450000D02*
X64320000Y-58450000D01*
X64320000Y-63890000D01*
X61380000Y-63890000D01*
X61380000Y-58450000D01*
%TO.C,D8*%
X304377500Y-38380000D02*
X304377500Y-39400000D01*
X304377500Y-45860000D02*
X304377500Y-44840000D01*
X305847500Y-43820000D02*
X302907500Y-43820000D01*
X305847500Y-43940000D02*
X302907500Y-43940000D01*
X305847500Y-44060000D02*
X302907500Y-44060000D01*
X302907500Y-39400000D02*
X305847500Y-39400000D01*
X305847500Y-44840000D01*
X302907500Y-44840000D01*
X302907500Y-39400000D01*
%TO.C,D74*%
X380662500Y-133630000D02*
X380662500Y-134650000D01*
X380662500Y-141110000D02*
X380662500Y-140090000D01*
X382132500Y-139070000D02*
X379192500Y-139070000D01*
X382132500Y-139190000D02*
X379192500Y-139190000D01*
X382132500Y-139310000D02*
X379192500Y-139310000D01*
X379192500Y-134650000D02*
X382132500Y-134650000D01*
X382132500Y-140090000D01*
X379192500Y-140090000D01*
X379192500Y-134650000D01*
%TO.C,D59*%
X124762500Y-114580000D02*
X124762500Y-115600000D01*
X124762500Y-122060000D02*
X124762500Y-121040000D01*
X126232500Y-120020000D02*
X123292500Y-120020000D01*
X126232500Y-120140000D02*
X123292500Y-120140000D01*
X126232500Y-120260000D02*
X123292500Y-120260000D01*
X123292500Y-115600000D02*
X126232500Y-115600000D01*
X126232500Y-121040000D01*
X123292500Y-121040000D01*
X123292500Y-115600000D01*
%TO.C,D27*%
X399712500Y-57430000D02*
X399712500Y-58450000D01*
X399712500Y-64910000D02*
X399712500Y-63890000D01*
X401182500Y-62870000D02*
X398242500Y-62870000D01*
X401182500Y-62990000D02*
X398242500Y-62990000D01*
X401182500Y-63110000D02*
X398242500Y-63110000D01*
X398242500Y-58450000D02*
X401182500Y-58450000D01*
X401182500Y-63890000D01*
X398242500Y-63890000D01*
X398242500Y-58450000D01*
%TO.C,D30*%
X72375000Y-76480000D02*
X72375000Y-77500000D01*
X72375000Y-83960000D02*
X72375000Y-82940000D01*
X73845000Y-81920000D02*
X70905000Y-81920000D01*
X73845000Y-82040000D02*
X70905000Y-82040000D01*
X73845000Y-82160000D02*
X70905000Y-82160000D01*
X70905000Y-77500000D02*
X73845000Y-77500000D01*
X73845000Y-82940000D01*
X70905000Y-82940000D01*
X70905000Y-77500000D01*
%TO.C,D6*%
X139050000Y-38380000D02*
X139050000Y-39400000D01*
X139050000Y-45860000D02*
X139050000Y-44840000D01*
X140520000Y-43820000D02*
X137580000Y-43820000D01*
X140520000Y-43940000D02*
X137580000Y-43940000D01*
X140520000Y-44060000D02*
X137580000Y-44060000D01*
X137580000Y-39400000D02*
X140520000Y-39400000D01*
X140520000Y-44840000D01*
X137580000Y-44840000D01*
X137580000Y-39400000D01*
%TO.C,D47*%
X134287500Y-95530000D02*
X134287500Y-96550000D01*
X134287500Y-103010000D02*
X134287500Y-101990000D01*
X135757500Y-100970000D02*
X132817500Y-100970000D01*
X135757500Y-101090000D02*
X132817500Y-101090000D01*
X135757500Y-101210000D02*
X132817500Y-101210000D01*
X132817500Y-96550000D02*
X135757500Y-96550000D01*
X135757500Y-101990000D01*
X132817500Y-101990000D01*
X132817500Y-96550000D01*
%TO.C,D2*%
X62850000Y-38380000D02*
X62850000Y-39400000D01*
X62850000Y-45860000D02*
X62850000Y-44840000D01*
X64320000Y-43820000D02*
X61380000Y-43820000D01*
X64320000Y-43940000D02*
X61380000Y-43940000D01*
X64320000Y-44060000D02*
X61380000Y-44060000D01*
X61380000Y-39400000D02*
X64320000Y-39400000D01*
X64320000Y-44840000D01*
X61380000Y-44840000D01*
X61380000Y-39400000D01*
%TO.C,D31*%
X91425000Y-76480000D02*
X91425000Y-77500000D01*
X91425000Y-83960000D02*
X91425000Y-82940000D01*
X92895000Y-81920000D02*
X89955000Y-81920000D01*
X92895000Y-82040000D02*
X89955000Y-82040000D01*
X92895000Y-82160000D02*
X89955000Y-82160000D01*
X89955000Y-77500000D02*
X92895000Y-77500000D01*
X92895000Y-82940000D01*
X89955000Y-82940000D01*
X89955000Y-77500000D01*
%TO.C,D12*%
X380662500Y-38380000D02*
X380662500Y-39400000D01*
X380662500Y-45860000D02*
X380662500Y-44840000D01*
X382132500Y-43820000D02*
X379192500Y-43820000D01*
X382132500Y-43940000D02*
X379192500Y-43940000D01*
X382132500Y-44060000D02*
X379192500Y-44060000D01*
X379192500Y-39400000D02*
X382132500Y-39400000D01*
X382132500Y-44840000D01*
X379192500Y-44840000D01*
X379192500Y-39400000D01*
%TO.C,D66*%
X385425000Y-114580000D02*
X385425000Y-115600000D01*
X385425000Y-122060000D02*
X385425000Y-121040000D01*
X386895000Y-120020000D02*
X383955000Y-120020000D01*
X386895000Y-120140000D02*
X383955000Y-120140000D01*
X386895000Y-120260000D02*
X383955000Y-120260000D01*
X383955000Y-115600000D02*
X386895000Y-115600000D01*
X386895000Y-121040000D01*
X383955000Y-121040000D01*
X383955000Y-115600000D01*
%TO.C,D70*%
X89043750Y-133630000D02*
X89043750Y-134650000D01*
X89043750Y-141110000D02*
X89043750Y-140090000D01*
X90513750Y-139070000D02*
X87573750Y-139070000D01*
X90513750Y-139190000D02*
X87573750Y-139190000D01*
X90513750Y-139310000D02*
X87573750Y-139310000D01*
X87573750Y-134650000D02*
X90513750Y-134650000D01*
X90513750Y-140090000D01*
X87573750Y-140090000D01*
X87573750Y-134650000D01*
%TO.C,D53*%
X375900000Y-95530000D02*
X375900000Y-96550000D01*
X375900000Y-103010000D02*
X375900000Y-101990000D01*
X377370000Y-100970000D02*
X374430000Y-100970000D01*
X377370000Y-101090000D02*
X374430000Y-101090000D01*
X377370000Y-101210000D02*
X374430000Y-101210000D01*
X374430000Y-96550000D02*
X377370000Y-96550000D01*
X377370000Y-101990000D01*
X374430000Y-101990000D01*
X374430000Y-96550000D01*
%TO.C,D65*%
X366375000Y-114580000D02*
X366375000Y-115600000D01*
X366375000Y-122060000D02*
X366375000Y-121040000D01*
X367845000Y-120020000D02*
X364905000Y-120020000D01*
X367845000Y-120140000D02*
X364905000Y-120140000D01*
X367845000Y-120260000D02*
X364905000Y-120260000D01*
X364905000Y-115600000D02*
X367845000Y-115600000D01*
X367845000Y-121040000D01*
X364905000Y-121040000D01*
X364905000Y-115600000D01*
%TO.C,D17*%
X81900000Y-57430000D02*
X81900000Y-58450000D01*
X81900000Y-64910000D02*
X81900000Y-63890000D01*
X83370000Y-62870000D02*
X80430000Y-62870000D01*
X83370000Y-62990000D02*
X80430000Y-62990000D01*
X83370000Y-63110000D02*
X80430000Y-63110000D01*
X80430000Y-58450000D02*
X83370000Y-58450000D01*
X83370000Y-63890000D01*
X80430000Y-63890000D01*
X80430000Y-58450000D01*
%TO.C,D39*%
X371137500Y-76480000D02*
X371137500Y-77500000D01*
X371137500Y-83960000D02*
X371137500Y-82940000D01*
X372607500Y-81920000D02*
X369667500Y-81920000D01*
X372607500Y-82040000D02*
X369667500Y-82040000D01*
X372607500Y-82160000D02*
X369667500Y-82160000D01*
X369667500Y-77500000D02*
X372607500Y-77500000D01*
X372607500Y-82940000D01*
X369667500Y-82940000D01*
X369667500Y-77500000D01*
%TO.C,D23*%
X323512500Y-57430000D02*
X323512500Y-58450000D01*
X323512500Y-64910000D02*
X323512500Y-63890000D01*
X324982500Y-62870000D02*
X322042500Y-62870000D01*
X324982500Y-62990000D02*
X322042500Y-62990000D01*
X324982500Y-63110000D02*
X322042500Y-63110000D01*
X322042500Y-58450000D02*
X324982500Y-58450000D01*
X324982500Y-63890000D01*
X322042500Y-63890000D01*
X322042500Y-58450000D01*
%TO.C,D40*%
X390187500Y-76480000D02*
X390187500Y-77500000D01*
X390187500Y-83960000D02*
X390187500Y-82940000D01*
X391657500Y-81920000D02*
X388717500Y-81920000D01*
X391657500Y-82040000D02*
X388717500Y-82040000D01*
X391657500Y-82160000D02*
X388717500Y-82160000D01*
X388717500Y-77500000D02*
X391657500Y-77500000D01*
X391657500Y-82940000D01*
X388717500Y-82940000D01*
X388717500Y-77500000D01*
%TO.C,D72*%
X174768750Y-133630000D02*
X174768750Y-134650000D01*
X174768750Y-141110000D02*
X174768750Y-140090000D01*
X176238750Y-139070000D02*
X173298750Y-139070000D01*
X176238750Y-139190000D02*
X173298750Y-139190000D01*
X176238750Y-139310000D02*
X173298750Y-139310000D01*
X173298750Y-134650000D02*
X176238750Y-134650000D01*
X176238750Y-140090000D01*
X173298750Y-140090000D01*
X173298750Y-134650000D01*
%TO.C,D22*%
X304377500Y-57430000D02*
X304377500Y-58450000D01*
X304377500Y-64910000D02*
X304377500Y-63890000D01*
X305847500Y-62870000D02*
X302907500Y-62870000D01*
X305847500Y-62990000D02*
X302907500Y-62990000D01*
X305847500Y-63110000D02*
X302907500Y-63110000D01*
X302907500Y-58450000D02*
X305847500Y-58450000D01*
X305847500Y-63890000D01*
X302907500Y-63890000D01*
X302907500Y-58450000D01*
%TO.C,D3*%
X81900000Y-38380000D02*
X81900000Y-39400000D01*
X81900000Y-45860000D02*
X81900000Y-44840000D01*
X83370000Y-43820000D02*
X80430000Y-43820000D01*
X83370000Y-43940000D02*
X80430000Y-43940000D01*
X83370000Y-44060000D02*
X80430000Y-44060000D01*
X80430000Y-39400000D02*
X83370000Y-39400000D01*
X83370000Y-44840000D01*
X80430000Y-44840000D01*
X80430000Y-39400000D01*
%TO.C,D34*%
X148575000Y-76480000D02*
X148575000Y-77500000D01*
X148575000Y-83960000D02*
X148575000Y-82940000D01*
X150045000Y-81920000D02*
X147105000Y-81920000D01*
X150045000Y-82040000D02*
X147105000Y-82040000D01*
X150045000Y-82160000D02*
X147105000Y-82160000D01*
X147105000Y-77500000D02*
X150045000Y-77500000D01*
X150045000Y-82940000D01*
X147105000Y-82940000D01*
X147105000Y-77500000D01*
%TO.C,D25*%
X361612500Y-57430000D02*
X361612500Y-58450000D01*
X361612500Y-64910000D02*
X361612500Y-63890000D01*
X363082500Y-62870000D02*
X360142500Y-62870000D01*
X363082500Y-62990000D02*
X360142500Y-62990000D01*
X363082500Y-63110000D02*
X360142500Y-63110000D01*
X360142500Y-58450000D02*
X363082500Y-58450000D01*
X363082500Y-63890000D01*
X360142500Y-63890000D01*
X360142500Y-58450000D01*
%TO.C,D15*%
X43800000Y-57430000D02*
X43800000Y-58450000D01*
X43800000Y-64910000D02*
X43800000Y-63890000D01*
X45270000Y-62870000D02*
X42330000Y-62870000D01*
X45270000Y-62990000D02*
X42330000Y-62990000D01*
X45270000Y-63110000D02*
X42330000Y-63110000D01*
X42330000Y-58450000D02*
X45270000Y-58450000D01*
X45270000Y-63890000D01*
X42330000Y-63890000D01*
X42330000Y-58450000D01*
%TO.C,D26*%
X380662500Y-57430000D02*
X380662500Y-58450000D01*
X380662500Y-64910000D02*
X380662500Y-63890000D01*
X382132500Y-62870000D02*
X379192500Y-62870000D01*
X382132500Y-62990000D02*
X379192500Y-62990000D01*
X382132500Y-63110000D02*
X379192500Y-63110000D01*
X379192500Y-58450000D02*
X382132500Y-58450000D01*
X382132500Y-63890000D01*
X379192500Y-63890000D01*
X379192500Y-58450000D01*
%TO.C,D36*%
X313940000Y-76530000D02*
X313940000Y-77550000D01*
X313940000Y-84010000D02*
X313940000Y-82990000D01*
X315410000Y-81970000D02*
X312470000Y-81970000D01*
X315410000Y-82090000D02*
X312470000Y-82090000D01*
X315410000Y-82210000D02*
X312470000Y-82210000D01*
X312470000Y-77550000D02*
X315410000Y-77550000D01*
X315410000Y-82990000D01*
X312470000Y-82990000D01*
X312470000Y-77550000D01*
%TO.C,D14*%
X437812500Y-38380000D02*
X437812500Y-39400000D01*
X437812500Y-45860000D02*
X437812500Y-44840000D01*
X439282500Y-43820000D02*
X436342500Y-43820000D01*
X439282500Y-43940000D02*
X436342500Y-43940000D01*
X439282500Y-44060000D02*
X436342500Y-44060000D01*
X436342500Y-39400000D02*
X439282500Y-39400000D01*
X439282500Y-44840000D01*
X436342500Y-44840000D01*
X436342500Y-39400000D01*
%TO.C,D37*%
X333037500Y-76480000D02*
X333037500Y-77500000D01*
X333037500Y-83960000D02*
X333037500Y-82940000D01*
X334507500Y-81920000D02*
X331567500Y-81920000D01*
X334507500Y-82040000D02*
X331567500Y-82040000D01*
X334507500Y-82160000D02*
X331567500Y-82160000D01*
X331567500Y-77500000D02*
X334507500Y-77500000D01*
X334507500Y-82940000D01*
X331567500Y-82940000D01*
X331567500Y-77500000D01*
%TO.C,D11*%
X361612500Y-38380000D02*
X361612500Y-39400000D01*
X361612500Y-45860000D02*
X361612500Y-44840000D01*
X363082500Y-43820000D02*
X360142500Y-43820000D01*
X363082500Y-43940000D02*
X360142500Y-43940000D01*
X363082500Y-44060000D02*
X360142500Y-44060000D01*
X360142500Y-39400000D02*
X363082500Y-39400000D01*
X363082500Y-44840000D01*
X360142500Y-44840000D01*
X360142500Y-39400000D01*
%TO.C,D50*%
X318750000Y-95530000D02*
X318750000Y-96550000D01*
X318750000Y-103010000D02*
X318750000Y-101990000D01*
X320220000Y-100970000D02*
X317280000Y-100970000D01*
X320220000Y-101090000D02*
X317280000Y-101090000D01*
X320220000Y-101210000D02*
X317280000Y-101210000D01*
X317280000Y-96550000D02*
X320220000Y-96550000D01*
X320220000Y-101990000D01*
X317280000Y-101990000D01*
X317280000Y-96550000D01*
%TO.C,D38*%
X352087500Y-76480000D02*
X352087500Y-77500000D01*
X352087500Y-83960000D02*
X352087500Y-82940000D01*
X353557500Y-81920000D02*
X350617500Y-81920000D01*
X353557500Y-82040000D02*
X350617500Y-82040000D01*
X353557500Y-82160000D02*
X350617500Y-82160000D01*
X350617500Y-77500000D02*
X353557500Y-77500000D01*
X353557500Y-82940000D01*
X350617500Y-82940000D01*
X350617500Y-77500000D01*
%TO.C,D45*%
X96187500Y-95530000D02*
X96187500Y-96550000D01*
X96187500Y-103010000D02*
X96187500Y-101990000D01*
X97657500Y-100970000D02*
X94717500Y-100970000D01*
X97657500Y-101090000D02*
X94717500Y-101090000D01*
X97657500Y-101210000D02*
X94717500Y-101210000D01*
X94717500Y-96550000D02*
X97657500Y-96550000D01*
X97657500Y-101990000D01*
X94717500Y-101990000D01*
X94717500Y-96550000D01*
%TO.C,D54*%
X394950000Y-95530000D02*
X394950000Y-96550000D01*
X394950000Y-103010000D02*
X394950000Y-101990000D01*
X396420000Y-100970000D02*
X393480000Y-100970000D01*
X396420000Y-101090000D02*
X393480000Y-101090000D01*
X396420000Y-101210000D02*
X393480000Y-101210000D01*
X393480000Y-96550000D02*
X396420000Y-96550000D01*
X396420000Y-101990000D01*
X393480000Y-101990000D01*
X393480000Y-96550000D01*
%TO.C,D67*%
X418762500Y-114580000D02*
X418762500Y-115600000D01*
X418762500Y-122060000D02*
X418762500Y-121040000D01*
X420232500Y-120020000D02*
X417292500Y-120020000D01*
X420232500Y-120140000D02*
X417292500Y-120140000D01*
X420232500Y-120260000D02*
X417292500Y-120260000D01*
X417292500Y-115600000D02*
X420232500Y-115600000D01*
X420232500Y-121040000D01*
X417292500Y-121040000D01*
X417292500Y-115600000D01*
%TO.C,D19*%
X120000000Y-57430000D02*
X120000000Y-58450000D01*
X120000000Y-64910000D02*
X120000000Y-63890000D01*
X121470000Y-62870000D02*
X118530000Y-62870000D01*
X121470000Y-62990000D02*
X118530000Y-62990000D01*
X121470000Y-63110000D02*
X118530000Y-63110000D01*
X118530000Y-58450000D02*
X121470000Y-58450000D01*
X121470000Y-63890000D01*
X118530000Y-63890000D01*
X118530000Y-58450000D01*
%TO.C,D62*%
X309140000Y-114580000D02*
X309140000Y-115600000D01*
X309140000Y-122060000D02*
X309140000Y-121040000D01*
X310610000Y-120020000D02*
X307670000Y-120020000D01*
X310610000Y-120140000D02*
X307670000Y-120140000D01*
X310610000Y-120260000D02*
X307670000Y-120260000D01*
X307670000Y-115600000D02*
X310610000Y-115600000D01*
X310610000Y-121040000D01*
X307670000Y-121040000D01*
X307670000Y-115600000D01*
%TO.C,D41*%
X409237500Y-76480000D02*
X409237500Y-77500000D01*
X409237500Y-83960000D02*
X409237500Y-82940000D01*
X410707500Y-81920000D02*
X407767500Y-81920000D01*
X410707500Y-82040000D02*
X407767500Y-82040000D01*
X410707500Y-82160000D02*
X407767500Y-82160000D01*
X407767500Y-77500000D02*
X410707500Y-77500000D01*
X410707500Y-82940000D01*
X407767500Y-82940000D01*
X407767500Y-77500000D01*
%TO.C,D68*%
X46181250Y-133630000D02*
X46181250Y-134650000D01*
X46181250Y-141110000D02*
X46181250Y-140090000D01*
X47651250Y-139070000D02*
X44711250Y-139070000D01*
X47651250Y-139190000D02*
X44711250Y-139190000D01*
X47651250Y-139310000D02*
X44711250Y-139310000D01*
X44711250Y-134650000D02*
X47651250Y-134650000D01*
X47651250Y-140090000D01*
X44711250Y-140090000D01*
X44711250Y-134650000D01*
%TO.C,D57*%
X86662500Y-114580000D02*
X86662500Y-115600000D01*
X86662500Y-122060000D02*
X86662500Y-121040000D01*
X88132500Y-120020000D02*
X85192500Y-120020000D01*
X88132500Y-120140000D02*
X85192500Y-120140000D01*
X88132500Y-120260000D02*
X85192500Y-120260000D01*
X85192500Y-115600000D02*
X88132500Y-115600000D01*
X88132500Y-121040000D01*
X85192500Y-121040000D01*
X85192500Y-115600000D01*
%TO.C,D64*%
X347325000Y-114580000D02*
X347325000Y-115600000D01*
X347325000Y-122060000D02*
X347325000Y-121040000D01*
X348795000Y-120020000D02*
X345855000Y-120020000D01*
X348795000Y-120140000D02*
X345855000Y-120140000D01*
X348795000Y-120260000D02*
X345855000Y-120260000D01*
X345855000Y-115600000D02*
X348795000Y-115600000D01*
X348795000Y-121040000D01*
X345855000Y-121040000D01*
X345855000Y-115600000D01*
%TO.C,D33*%
X129525000Y-76480000D02*
X129525000Y-77500000D01*
X129525000Y-83960000D02*
X129525000Y-82940000D01*
X130995000Y-81920000D02*
X128055000Y-81920000D01*
X130995000Y-82040000D02*
X128055000Y-82040000D01*
X130995000Y-82160000D02*
X128055000Y-82160000D01*
X128055000Y-77500000D02*
X130995000Y-77500000D01*
X130995000Y-82940000D01*
X128055000Y-82940000D01*
X128055000Y-77500000D01*
%TO.C,D58*%
X105712500Y-114580000D02*
X105712500Y-115600000D01*
X105712500Y-122060000D02*
X105712500Y-121040000D01*
X107182500Y-120020000D02*
X104242500Y-120020000D01*
X107182500Y-120140000D02*
X104242500Y-120140000D01*
X107182500Y-120260000D02*
X104242500Y-120260000D01*
X104242500Y-115600000D02*
X107182500Y-115600000D01*
X107182500Y-121040000D01*
X104242500Y-121040000D01*
X104242500Y-115600000D01*
%TO.C,D35*%
X167700000Y-76480000D02*
X167700000Y-77500000D01*
X167700000Y-83960000D02*
X167700000Y-82940000D01*
X169170000Y-81920000D02*
X166230000Y-81920000D01*
X169170000Y-82040000D02*
X166230000Y-82040000D01*
X169170000Y-82160000D02*
X166230000Y-82160000D01*
X166230000Y-77500000D02*
X169170000Y-77500000D01*
X169170000Y-82940000D01*
X166230000Y-82940000D01*
X166230000Y-77500000D01*
%TO.C,D75*%
X399712500Y-133630000D02*
X399712500Y-134650000D01*
X399712500Y-141110000D02*
X399712500Y-140090000D01*
X401182500Y-139070000D02*
X398242500Y-139070000D01*
X401182500Y-139190000D02*
X398242500Y-139190000D01*
X401182500Y-139310000D02*
X398242500Y-139310000D01*
X398242500Y-134650000D02*
X401182500Y-134650000D01*
X401182500Y-140090000D01*
X398242500Y-140090000D01*
X398242500Y-134650000D01*
%TO.C,D51*%
X337800000Y-95530000D02*
X337800000Y-96550000D01*
X337800000Y-103010000D02*
X337800000Y-101990000D01*
X339270000Y-100970000D02*
X336330000Y-100970000D01*
X339270000Y-101090000D02*
X336330000Y-101090000D01*
X339270000Y-101210000D02*
X336330000Y-101210000D01*
X336330000Y-96550000D02*
X339270000Y-96550000D01*
X339270000Y-101990000D01*
X336330000Y-101990000D01*
X336330000Y-96550000D01*
%TO.C,D44*%
X77137500Y-95530000D02*
X77137500Y-96550000D01*
X77137500Y-103010000D02*
X77137500Y-101990000D01*
X78607500Y-100970000D02*
X75667500Y-100970000D01*
X78607500Y-101090000D02*
X75667500Y-101090000D01*
X78607500Y-101210000D02*
X75667500Y-101210000D01*
X75667500Y-96550000D02*
X78607500Y-96550000D01*
X78607500Y-101990000D01*
X75667500Y-101990000D01*
X75667500Y-96550000D01*
%TO.C,D10*%
X342562500Y-38380000D02*
X342562500Y-39400000D01*
X342562500Y-45860000D02*
X342562500Y-44840000D01*
X344032500Y-43820000D02*
X341092500Y-43820000D01*
X344032500Y-43940000D02*
X341092500Y-43940000D01*
X344032500Y-44060000D02*
X341092500Y-44060000D01*
X341092500Y-39400000D02*
X344032500Y-39400000D01*
X344032500Y-44840000D01*
X341092500Y-44840000D01*
X341092500Y-39400000D01*
%TO.C,D49*%
X299615000Y-95530000D02*
X299615000Y-96550000D01*
X299615000Y-103010000D02*
X299615000Y-101990000D01*
X301085000Y-100970000D02*
X298145000Y-100970000D01*
X301085000Y-101090000D02*
X298145000Y-101090000D01*
X301085000Y-101210000D02*
X298145000Y-101210000D01*
X298145000Y-96550000D02*
X301085000Y-96550000D01*
X301085000Y-101990000D01*
X298145000Y-101990000D01*
X298145000Y-96550000D01*
%TO.C,D20*%
X139050000Y-57430000D02*
X139050000Y-58450000D01*
X139050000Y-64910000D02*
X139050000Y-63890000D01*
X140520000Y-62870000D02*
X137580000Y-62870000D01*
X140520000Y-62990000D02*
X137580000Y-62990000D01*
X140520000Y-63110000D02*
X137580000Y-63110000D01*
X137580000Y-58450000D02*
X140520000Y-58450000D01*
X140520000Y-63890000D01*
X137580000Y-63890000D01*
X137580000Y-58450000D01*
%TO.C,D21*%
X158100000Y-57430000D02*
X158100000Y-58450000D01*
X158100000Y-64910000D02*
X158100000Y-63890000D01*
X159570000Y-62870000D02*
X156630000Y-62870000D01*
X159570000Y-62990000D02*
X156630000Y-62990000D01*
X159570000Y-63110000D02*
X156630000Y-63110000D01*
X156630000Y-58450000D02*
X159570000Y-58450000D01*
X159570000Y-63890000D01*
X156630000Y-63890000D01*
X156630000Y-58450000D01*
%TO.C,D69*%
X67612500Y-133630000D02*
X67612500Y-134650000D01*
X67612500Y-141110000D02*
X67612500Y-140090000D01*
X69082500Y-139070000D02*
X66142500Y-139070000D01*
X69082500Y-139190000D02*
X66142500Y-139190000D01*
X69082500Y-139310000D02*
X66142500Y-139310000D01*
X66142500Y-134650000D02*
X69082500Y-134650000D01*
X69082500Y-140090000D01*
X66142500Y-140090000D01*
X66142500Y-134650000D01*
%TO.C,D61*%
X162862500Y-114580000D02*
X162862500Y-115600000D01*
X162862500Y-122060000D02*
X162862500Y-121040000D01*
X164332500Y-120020000D02*
X161392500Y-120020000D01*
X164332500Y-120140000D02*
X161392500Y-120140000D01*
X164332500Y-120260000D02*
X161392500Y-120260000D01*
X161392500Y-115600000D02*
X164332500Y-115600000D01*
X164332500Y-121040000D01*
X161392500Y-121040000D01*
X161392500Y-115600000D01*
%TO.C,D71*%
X112856250Y-133630000D02*
X112856250Y-134650000D01*
X112856250Y-141110000D02*
X112856250Y-140090000D01*
X114326250Y-139070000D02*
X111386250Y-139070000D01*
X114326250Y-139190000D02*
X111386250Y-139190000D01*
X114326250Y-139310000D02*
X111386250Y-139310000D01*
X111386250Y-134650000D02*
X114326250Y-134650000D01*
X114326250Y-140090000D01*
X111386250Y-140090000D01*
X111386250Y-134650000D01*
%TO.C,D48*%
X153337500Y-95530000D02*
X153337500Y-96550000D01*
X153337500Y-103010000D02*
X153337500Y-101990000D01*
X154807500Y-100970000D02*
X151867500Y-100970000D01*
X154807500Y-101090000D02*
X151867500Y-101090000D01*
X154807500Y-101210000D02*
X151867500Y-101210000D01*
X151867500Y-96550000D02*
X154807500Y-96550000D01*
X154807500Y-101990000D01*
X151867500Y-101990000D01*
X151867500Y-96550000D01*
%TO.C,D55*%
X425906250Y-95530000D02*
X425906250Y-96550000D01*
X425906250Y-103010000D02*
X425906250Y-101990000D01*
X427376250Y-100970000D02*
X424436250Y-100970000D01*
X427376250Y-101090000D02*
X424436250Y-101090000D01*
X427376250Y-101210000D02*
X424436250Y-101210000D01*
X424436250Y-96550000D02*
X427376250Y-96550000D01*
X427376250Y-101990000D01*
X424436250Y-101990000D01*
X424436250Y-96550000D01*
%TO.C,D76*%
X418762500Y-133630000D02*
X418762500Y-134650000D01*
X418762500Y-141110000D02*
X418762500Y-140090000D01*
X420232500Y-139070000D02*
X417292500Y-139070000D01*
X420232500Y-139190000D02*
X417292500Y-139190000D01*
X420232500Y-139310000D02*
X417292500Y-139310000D01*
X417292500Y-134650000D02*
X420232500Y-134650000D01*
X420232500Y-140090000D01*
X417292500Y-140090000D01*
X417292500Y-134650000D01*
%TO.C,D63*%
X328275000Y-114580000D02*
X328275000Y-115600000D01*
X328275000Y-122060000D02*
X328275000Y-121040000D01*
X329745000Y-120020000D02*
X326805000Y-120020000D01*
X329745000Y-120140000D02*
X326805000Y-120140000D01*
X329745000Y-120260000D02*
X326805000Y-120260000D01*
X326805000Y-115600000D02*
X329745000Y-115600000D01*
X329745000Y-121040000D01*
X326805000Y-121040000D01*
X326805000Y-115600000D01*
%TO.C,D18*%
X100950000Y-57430000D02*
X100950000Y-58450000D01*
X100950000Y-64910000D02*
X100950000Y-63890000D01*
X102420000Y-62870000D02*
X99480000Y-62870000D01*
X102420000Y-62990000D02*
X99480000Y-62990000D01*
X102420000Y-63110000D02*
X99480000Y-63110000D01*
X99480000Y-58450000D02*
X102420000Y-58450000D01*
X102420000Y-63890000D01*
X99480000Y-63890000D01*
X99480000Y-58450000D01*
%TO.C,D7*%
X158100000Y-38380000D02*
X158100000Y-39400000D01*
X158100000Y-45860000D02*
X158100000Y-44840000D01*
X159570000Y-43820000D02*
X156630000Y-43820000D01*
X159570000Y-43940000D02*
X156630000Y-43940000D01*
X159570000Y-44060000D02*
X156630000Y-44060000D01*
X156630000Y-39400000D02*
X159570000Y-39400000D01*
X159570000Y-44840000D01*
X156630000Y-44840000D01*
X156630000Y-39400000D01*
%TO.C,D77*%
X437812500Y-133630000D02*
X437812500Y-134650000D01*
X437812500Y-141110000D02*
X437812500Y-140090000D01*
X439282500Y-139070000D02*
X436342500Y-139070000D01*
X439282500Y-139190000D02*
X436342500Y-139190000D01*
X439282500Y-139310000D02*
X436342500Y-139310000D01*
X436342500Y-134650000D02*
X439282500Y-134650000D01*
X439282500Y-140090000D01*
X436342500Y-140090000D01*
X436342500Y-134650000D01*
%TO.C,D4*%
X100950000Y-38380000D02*
X100950000Y-39400000D01*
X100950000Y-45860000D02*
X100950000Y-44840000D01*
X102420000Y-43820000D02*
X99480000Y-43820000D01*
X102420000Y-43940000D02*
X99480000Y-43940000D01*
X102420000Y-44060000D02*
X99480000Y-44060000D01*
X99480000Y-39400000D02*
X102420000Y-39400000D01*
X102420000Y-44840000D01*
X99480000Y-44840000D01*
X99480000Y-39400000D01*
%TO.C,D32*%
X110475000Y-76480000D02*
X110475000Y-77500000D01*
X110475000Y-83960000D02*
X110475000Y-82940000D01*
X111945000Y-81920000D02*
X109005000Y-81920000D01*
X111945000Y-82040000D02*
X109005000Y-82040000D01*
X111945000Y-82160000D02*
X109005000Y-82160000D01*
X109005000Y-77500000D02*
X111945000Y-77500000D01*
X111945000Y-82940000D01*
X109005000Y-82940000D01*
X109005000Y-77500000D01*
%TO.C,D28*%
X428287500Y-57430000D02*
X428287500Y-58450000D01*
X428287500Y-64910000D02*
X428287500Y-63890000D01*
X429757500Y-62870000D02*
X426817500Y-62870000D01*
X429757500Y-62990000D02*
X426817500Y-62990000D01*
X429757500Y-63110000D02*
X426817500Y-63110000D01*
X426817500Y-58450000D02*
X429757500Y-58450000D01*
X429757500Y-63890000D01*
X426817500Y-63890000D01*
X426817500Y-58450000D01*
%TO.C,D29*%
X48562500Y-76480000D02*
X48562500Y-77500000D01*
X48562500Y-83960000D02*
X48562500Y-82940000D01*
X50032500Y-81920000D02*
X47092500Y-81920000D01*
X50032500Y-82040000D02*
X47092500Y-82040000D01*
X50032500Y-82160000D02*
X47092500Y-82160000D01*
X47092500Y-77500000D02*
X50032500Y-77500000D01*
X50032500Y-82940000D01*
X47092500Y-82940000D01*
X47092500Y-77500000D01*
%TO.C,D52*%
X356850000Y-95530000D02*
X356850000Y-96550000D01*
X356850000Y-103010000D02*
X356850000Y-101990000D01*
X358320000Y-100970000D02*
X355380000Y-100970000D01*
X358320000Y-101090000D02*
X355380000Y-101090000D01*
X358320000Y-101210000D02*
X355380000Y-101210000D01*
X355380000Y-96550000D02*
X358320000Y-96550000D01*
X358320000Y-101990000D01*
X355380000Y-101990000D01*
X355380000Y-96550000D01*
%TO.C,D5*%
X120000000Y-38380000D02*
X120000000Y-39400000D01*
X120000000Y-45860000D02*
X120000000Y-44840000D01*
X121470000Y-43820000D02*
X118530000Y-43820000D01*
X121470000Y-43940000D02*
X118530000Y-43940000D01*
X121470000Y-44060000D02*
X118530000Y-44060000D01*
X118530000Y-39400000D02*
X121470000Y-39400000D01*
X121470000Y-44840000D01*
X118530000Y-44840000D01*
X118530000Y-39400000D01*
%TO.C,D73*%
X361612500Y-133630000D02*
X361612500Y-134650000D01*
X361612500Y-141110000D02*
X361612500Y-140090000D01*
X363082500Y-139070000D02*
X360142500Y-139070000D01*
X363082500Y-139190000D02*
X360142500Y-139190000D01*
X363082500Y-139310000D02*
X360142500Y-139310000D01*
X360142500Y-134650000D02*
X363082500Y-134650000D01*
X363082500Y-140090000D01*
X360142500Y-140090000D01*
X360142500Y-134650000D01*
%TO.C,D9*%
X323512500Y-38380000D02*
X323512500Y-39400000D01*
X323512500Y-45860000D02*
X323512500Y-44840000D01*
X324982500Y-43820000D02*
X322042500Y-43820000D01*
X324982500Y-43940000D02*
X322042500Y-43940000D01*
X324982500Y-44060000D02*
X322042500Y-44060000D01*
X322042500Y-39400000D02*
X324982500Y-39400000D01*
X324982500Y-44840000D01*
X322042500Y-44840000D01*
X322042500Y-39400000D01*
%TO.C,D1*%
X43800000Y-38380000D02*
X43800000Y-39400000D01*
X43800000Y-45860000D02*
X43800000Y-44840000D01*
X45270000Y-43820000D02*
X42330000Y-43820000D01*
X45270000Y-43940000D02*
X42330000Y-43940000D01*
X45270000Y-44060000D02*
X42330000Y-44060000D01*
X42330000Y-39400000D02*
X45270000Y-39400000D01*
X45270000Y-44840000D01*
X42330000Y-44840000D01*
X42330000Y-39400000D01*
%TO.C,D24*%
X342562500Y-57430000D02*
X342562500Y-58450000D01*
X342562500Y-64910000D02*
X342562500Y-63890000D01*
X344032500Y-62870000D02*
X341092500Y-62870000D01*
X344032500Y-62990000D02*
X341092500Y-62990000D01*
X344032500Y-63110000D02*
X341092500Y-63110000D01*
X341092500Y-58450000D02*
X344032500Y-58450000D01*
X344032500Y-63890000D01*
X341092500Y-63890000D01*
X341092500Y-58450000D01*
%TO.C,D46*%
X115237500Y-95530000D02*
X115237500Y-96550000D01*
X115237500Y-103010000D02*
X115237500Y-101990000D01*
X116707500Y-100970000D02*
X113767500Y-100970000D01*
X116707500Y-101090000D02*
X113767500Y-101090000D01*
X116707500Y-101210000D02*
X113767500Y-101210000D01*
X113767500Y-96550000D02*
X116707500Y-96550000D01*
X116707500Y-101990000D01*
X113767500Y-101990000D01*
X113767500Y-96550000D01*
%TO.C,D42*%
X433050000Y-76480000D02*
X433050000Y-77500000D01*
X433050000Y-83960000D02*
X433050000Y-82940000D01*
X434520000Y-81920000D02*
X431580000Y-81920000D01*
X434520000Y-82040000D02*
X431580000Y-82040000D01*
X434520000Y-82160000D02*
X431580000Y-82160000D01*
X431580000Y-77500000D02*
X434520000Y-77500000D01*
X434520000Y-82940000D01*
X431580000Y-82940000D01*
X431580000Y-77500000D01*
%TO.C,D43*%
X50943750Y-95530000D02*
X50943750Y-96550000D01*
X50943750Y-103010000D02*
X50943750Y-101990000D01*
X52413750Y-100970000D02*
X49473750Y-100970000D01*
X52413750Y-101090000D02*
X49473750Y-101090000D01*
X52413750Y-101210000D02*
X49473750Y-101210000D01*
X49473750Y-96550000D02*
X52413750Y-96550000D01*
X52413750Y-101990000D01*
X49473750Y-101990000D01*
X49473750Y-96550000D01*
%TO.C,D60*%
X143812500Y-114580000D02*
X143812500Y-115600000D01*
X143812500Y-122060000D02*
X143812500Y-121040000D01*
X145282500Y-120020000D02*
X142342500Y-120020000D01*
X145282500Y-120140000D02*
X142342500Y-120140000D01*
X145282500Y-120260000D02*
X142342500Y-120260000D01*
X142342500Y-115600000D02*
X145282500Y-115600000D01*
X145282500Y-121040000D01*
X142342500Y-121040000D01*
X142342500Y-115600000D01*
%TO.C,D13*%
X399712500Y-38380000D02*
X399712500Y-39400000D01*
X399712500Y-45860000D02*
X399712500Y-44840000D01*
X401182500Y-43820000D02*
X398242500Y-43820000D01*
X401182500Y-43940000D02*
X398242500Y-43940000D01*
X401182500Y-44060000D02*
X398242500Y-44060000D01*
X398242500Y-39400000D02*
X401182500Y-39400000D01*
X401182500Y-44840000D01*
X398242500Y-44840000D01*
X398242500Y-39400000D01*
%TD*%
M02*
