%TF.GenerationSoftware,KiCad,Pcbnew,10.0.1*%
%TF.CreationDate,2026-05-23T15:45:30+08:00*%
%TF.ProjectId,BT_Keyboard,42545f4b-6579-4626-9f61-72642e6b6963,rev?*%
%TF.SameCoordinates,Original*%
%TF.FileFunction,Copper,L2,Bot*%
%TF.FilePolarity,Positive*%
%FSLAX46Y46*%
G04 Gerber Fmt 4.6, Leading zero omitted, Abs format (unit mm)*
G04 Created by KiCad (PCBNEW 10.0.1) date 2026-05-23 15:45:30*
%MOMM*%
%LPD*%
G01*
G04 APERTURE LIST*
G04 Aperture macros list*
%AMRoundRect*
0 Rectangle with rounded corners*
0 $1 Rounding radius*
0 $2 $3 $4 $5 $6 $7 $8 $9 X,Y pos of 4 corners*
0 Add a 4 corners polygon primitive as box body*
4,1,4,$2,$3,$4,$5,$6,$7,$8,$9,$2,$3,0*
0 Add four circle primitives for the rounded corners*
1,1,$1+$1,$2,$3*
1,1,$1+$1,$4,$5*
1,1,$1+$1,$6,$7*
1,1,$1+$1,$8,$9*
0 Add four rect primitives between the rounded corners*
20,1,$1+$1,$2,$3,$4,$5,0*
20,1,$1+$1,$4,$5,$6,$7,0*
20,1,$1+$1,$6,$7,$8,$9,0*
20,1,$1+$1,$8,$9,$2,$3,0*%
G04 Aperture macros list end*
%TA.AperFunction,ComponentPad*%
%ADD10R,1.700000X1.700000*%
%TD*%
%TA.AperFunction,ComponentPad*%
%ADD11C,1.700000*%
%TD*%
%TA.AperFunction,ComponentPad*%
%ADD12C,2.200000*%
%TD*%
%TA.AperFunction,ComponentPad*%
%ADD13R,1.800000X1.800000*%
%TD*%
%TA.AperFunction,ComponentPad*%
%ADD14C,1.800000*%
%TD*%
%TA.AperFunction,ComponentPad*%
%ADD15RoundRect,0.249999X0.850001X-0.850001X0.850001X0.850001X-0.850001X0.850001X-0.850001X-0.850001X0*%
%TD*%
%TA.AperFunction,ViaPad*%
%ADD16C,0.600000*%
%TD*%
%TA.AperFunction,Conductor*%
%ADD17C,0.200000*%
%TD*%
G04 APERTURE END LIST*
D10*
%TO.P,J8,1,Pin_1_1*%
%TO.N,5V*%
X181300000Y-108140000D03*
D11*
%TO.P,J8,2,Pin_2_2*%
%TO.N,GND*%
X181300000Y-105600000D03*
%TD*%
D10*
%TO.P,J7,1,Pin_1_1*%
%TO.N,GND*%
X191970000Y-97300000D03*
D11*
%TO.P,J7,2,Pin_2_2*%
%TO.N,Speaker*%
X189430000Y-97300000D03*
%TD*%
D12*
%TO.P,SW67,1,1_1*%
%TO.N,Y4*%
X413682500Y-113770000D03*
%TO.P,SW67,2,2_2*%
%TO.N,Net-(D67-A)*%
X407332500Y-116310000D03*
%TD*%
%TO.P,SW74,1,1_1*%
%TO.N,Y5*%
X375582500Y-132820000D03*
%TO.P,SW74,2,2_2*%
%TO.N,Net-(D74-A)*%
X369232500Y-135360000D03*
%TD*%
%TO.P,SW48,1,1_1*%
%TO.N,Y3*%
X148257500Y-94720000D03*
%TO.P,SW48,2,2_2*%
%TO.N,Net-(D48-A)*%
X141907500Y-97260000D03*
%TD*%
%TO.P,SW53,1,1_1*%
%TO.N,Y3*%
X370820000Y-94720000D03*
%TO.P,SW53,2,2_2*%
%TO.N,Net-(D53-A)*%
X364470000Y-97260000D03*
%TD*%
%TO.P,SW60,1,1_1*%
%TO.N,Y4*%
X138732500Y-113770000D03*
%TO.P,SW60,2,2_2*%
%TO.N,Net-(D60-A)*%
X132382500Y-116310000D03*
%TD*%
%TO.P,SW7,1,1_1*%
%TO.N,Y0*%
X153020000Y-37570000D03*
%TO.P,SW7,2,2_2*%
%TO.N,Net-(D7-A)*%
X146670000Y-40110000D03*
%TD*%
%TO.P,SW54,1,1_1*%
%TO.N,Y3*%
X389870000Y-94720000D03*
%TO.P,SW54,2,2_2*%
%TO.N,Net-(D54-A)*%
X383520000Y-97260000D03*
%TD*%
%TO.P,SW35,1,1_1*%
%TO.N,Y2*%
X162620000Y-75670000D03*
%TO.P,SW35,2,2_2*%
%TO.N,Net-(D35-A)*%
X156270000Y-78210000D03*
%TD*%
%TO.P,SW62,1,1_1*%
%TO.N,Y4*%
X304060000Y-113770000D03*
%TO.P,SW62,2,2_2*%
%TO.N,Net-(D62-A)*%
X297710000Y-116310000D03*
%TD*%
%TO.P,SW18,1,1_1*%
%TO.N,Y1*%
X95870000Y-56620000D03*
%TO.P,SW18,2,2_2*%
%TO.N,Net-(D18-A)*%
X89520000Y-59160000D03*
%TD*%
%TO.P,SW70,1,1_1*%
%TO.N,Y5*%
X83963750Y-132820000D03*
%TO.P,SW70,2,2_2*%
%TO.N,Net-(D70-A)*%
X77613750Y-135360000D03*
%TD*%
%TO.P,SW16,1,1_1*%
%TO.N,Y1*%
X57770000Y-56620000D03*
%TO.P,SW16,2,2_2*%
%TO.N,Net-(D16-A)*%
X51420000Y-59160000D03*
%TD*%
%TO.P,SW26,1,1_1*%
%TO.N,Y1*%
X375582500Y-56620000D03*
%TO.P,SW26,2,2_2*%
%TO.N,Net-(D26-A)*%
X369232500Y-59160000D03*
%TD*%
%TO.P,SW5,1,1_1*%
%TO.N,Y0*%
X114920000Y-37570000D03*
%TO.P,SW5,2,2_2*%
%TO.N,Net-(D5-A)*%
X108570000Y-40110000D03*
%TD*%
%TO.P,SW69,1,1_1*%
%TO.N,Y5*%
X62532500Y-132820000D03*
%TO.P,SW69,2,2_2*%
%TO.N,Net-(D69-A)*%
X56182500Y-135360000D03*
%TD*%
%TO.P,SW36,1,1_1*%
%TO.N,Y2*%
X308860000Y-75720000D03*
%TO.P,SW36,2,2_2*%
%TO.N,Net-(D36-A)*%
X302510000Y-78260000D03*
%TD*%
%TO.P,SW65,1,1_1*%
%TO.N,Y4*%
X361295000Y-113770000D03*
%TO.P,SW65,2,2_2*%
%TO.N,Net-(D65-A)*%
X354945000Y-116310000D03*
%TD*%
D10*
%TO.P,J3,1,Pin_1_1*%
%TO.N,5V*%
X173500000Y-81560000D03*
D11*
%TO.P,J3,2,Pin_2_2*%
%TO.N,GND*%
X173500000Y-79020000D03*
%TO.P,J3,3,Pin_3_3*%
%TO.N,CS*%
X173500000Y-76480000D03*
%TO.P,J3,4,Pin_4_4*%
%TO.N,RESET*%
X173500000Y-73940000D03*
%TO.P,J3,5,Pin_5_5*%
%TO.N,RS*%
X173500000Y-71400000D03*
%TO.P,J3,6,Pin_6_6*%
%TO.N,SDI*%
X173500000Y-68860000D03*
%TO.P,J3,7,Pin_7_7*%
%TO.N,SCK*%
X173500000Y-66320000D03*
%TO.P,J3,8,Pin_8_8*%
%TO.N,LED*%
X173500000Y-63780000D03*
%TO.P,J3,9,Pin_9_9*%
%TO.N,SDO*%
X173500000Y-61240000D03*
%TO.P,J3,10,Pin_10_10*%
%TO.N,unconnected-(J3-Pin_10-Pad10)*%
X173500000Y-58700000D03*
%TO.P,J3,11,Pin_11_11*%
%TO.N,unconnected-(J3-Pin_11-Pad11)*%
X173500000Y-56160000D03*
%TO.P,J3,12,Pin_12_12*%
%TO.N,unconnected-(J3-Pin_12-Pad12)*%
X173500000Y-53620000D03*
%TO.P,J3,13,Pin_13_13*%
%TO.N,unconnected-(J3-Pin_13-Pad13)*%
X173500000Y-51080000D03*
%TO.P,J3,14,Pin_14_14*%
%TO.N,unconnected-(J3-Pin_14-Pad14)*%
X173500000Y-48540000D03*
%TD*%
D12*
%TO.P,SW10,1,1_1*%
%TO.N,Y0*%
X337482500Y-37570000D03*
%TO.P,SW10,2,2_2*%
%TO.N,Net-(D10-A)*%
X331132500Y-40110000D03*
%TD*%
D13*
%TO.P,D81,1,K_1*%
%TO.N,GND*%
X180206179Y-101400000D03*
D14*
%TO.P,D81,2,A_2*%
%TO.N,FN*%
X180206179Y-98860000D03*
%TD*%
D12*
%TO.P,SW58,1,1_1*%
%TO.N,Y4*%
X100632500Y-113770000D03*
%TO.P,SW58,2,2_2*%
%TO.N,Net-(D58-A)*%
X94282500Y-116310000D03*
%TD*%
D10*
%TO.P,J1,1,Pin_1_1*%
%TO.N,Net-(J1-Pin_1)*%
X225266179Y-123590000D03*
D11*
%TO.P,J1,2,Pin_2_2*%
%TO.N,Net-(J1-Pin_2)*%
X227806179Y-123590000D03*
%TO.P,J1,3,Pin_3_3*%
%TO.N,Net-(J1-Pin_3)*%
X230346179Y-123590000D03*
%TO.P,J1,4,Pin_4_4*%
%TO.N,RESET*%
X232886179Y-123590000D03*
%TO.P,J1,5,Pin_5_5*%
%TO.N,X13*%
X235426179Y-123590000D03*
%TO.P,J1,6,Pin_6_6*%
%TO.N,X12*%
X237966179Y-123590000D03*
%TO.P,J1,7,Pin_7_7*%
%TO.N,X11*%
X240506179Y-123590000D03*
%TO.P,J1,8,Pin_8_8*%
%TO.N,X10*%
X243046179Y-123590000D03*
%TO.P,J1,9,Pin_9_9*%
%TO.N,X9*%
X245586179Y-123590000D03*
%TO.P,J1,10,Pin_10_10*%
%TO.N,X8*%
X248126179Y-123590000D03*
%TO.P,J1,11,Pin_11_11*%
%TO.N,X7*%
X250666179Y-123590000D03*
%TO.P,J1,12,Pin_12_12*%
%TO.N,X6*%
X253206179Y-123590000D03*
%TO.P,J1,13,Pin_13_13*%
%TO.N,X5*%
X255746179Y-123590000D03*
%TO.P,J1,14,Pin_14_14*%
%TO.N,X4*%
X258286179Y-123590000D03*
%TO.P,J1,15,Pin_15_15*%
%TO.N,X3*%
X260826179Y-123590000D03*
%TO.P,J1,16,Pin_16_16*%
%TO.N,X2*%
X263366179Y-123590000D03*
%TO.P,J1,17,Pin_17_17*%
%TO.N,X1*%
X265906179Y-123590000D03*
%TO.P,J1,18,Pin_18_18*%
%TO.N,X0*%
X268446179Y-123590000D03*
%TO.P,J1,19,Pin_19_19*%
%TO.N,Net-(J1-Pin_19)*%
X270986179Y-123590000D03*
%TO.P,J1,20,Pin_20_20*%
%TO.N,FN*%
X273526179Y-123590000D03*
%TO.P,J1,21,Pin_21_21*%
%TO.N,NUM*%
X276066179Y-123590000D03*
%TO.P,J1,22,Pin_22_22*%
%TO.N,Net-(J1-Pin_22)*%
X278606179Y-123590000D03*
%TD*%
D12*
%TO.P,SW57,1,1_1*%
%TO.N,Y4*%
X81582500Y-113770000D03*
%TO.P,SW57,2,2_2*%
%TO.N,Net-(D57-A)*%
X75232500Y-116310000D03*
%TD*%
%TO.P,SW49,1,1_1*%
%TO.N,Y3*%
X294535000Y-94720000D03*
%TO.P,SW49,2,2_2*%
%TO.N,Net-(D49-A)*%
X288185000Y-97260000D03*
%TD*%
%TO.P,SW38,1,1_1*%
%TO.N,Y2*%
X347007500Y-75670000D03*
%TO.P,SW38,2,2_2*%
%TO.N,Net-(D38-A)*%
X340657500Y-78210000D03*
%TD*%
%TO.P,SW8,1,1_1*%
%TO.N,Y0*%
X299297500Y-37570000D03*
%TO.P,SW8,2,2_2*%
%TO.N,Net-(D8-A)*%
X292947500Y-40110000D03*
%TD*%
%TO.P,SW52,1,1_1*%
%TO.N,Y3*%
X351770000Y-94720000D03*
%TO.P,SW52,2,2_2*%
%TO.N,Net-(D52-A)*%
X345420000Y-97260000D03*
%TD*%
D10*
%TO.P,J2,1,Pin_1_1*%
%TO.N,Net-(J2-Pin_1)*%
X225266179Y-97100000D03*
D11*
%TO.P,J2,2,Pin_2_2*%
%TO.N,Net-(J2-Pin_2)*%
X227806179Y-97100000D03*
%TO.P,J2,3,Pin_3_3*%
%TO.N,Net-(J2-Pin_3)*%
X230346179Y-97100000D03*
%TO.P,J2,4,Pin_4_4*%
%TO.N,Speaker*%
X232886179Y-97100000D03*
%TO.P,J2,5,Pin_5_5*%
%TO.N,Resis_Strip*%
X235426179Y-97100000D03*
%TO.P,J2,6,Pin_6_6*%
%TO.N,Y0*%
X237966179Y-97100000D03*
%TO.P,J2,7,Pin_7_7*%
%TO.N,Y1*%
X240506179Y-97100000D03*
%TO.P,J2,8,Pin_8_8*%
%TO.N,Y2*%
X243046179Y-97100000D03*
%TO.P,J2,9,Pin_9_9*%
%TO.N,Y3*%
X245586179Y-97100000D03*
%TO.P,J2,10,Pin_10_10*%
%TO.N,Y4*%
X248126179Y-97100000D03*
%TO.P,J2,11,Pin_11_11*%
%TO.N,Y5*%
X250666179Y-97100000D03*
%TO.P,J2,12,Pin_12_12*%
%TO.N,Net-(J2-Pin_12)*%
X253206179Y-97100000D03*
%TO.P,J2,13,Pin_13_13*%
%TO.N,Net-(J2-Pin_13)*%
X255746179Y-97100000D03*
%TO.P,J2,14,Pin_14_14*%
%TO.N,Net-(J2-Pin_14)*%
X258286179Y-97100000D03*
%TO.P,J2,15,Pin_15_15*%
%TO.N,RS*%
X260826179Y-97100000D03*
%TO.P,J2,16,Pin_16_16*%
%TO.N,CS*%
X263366179Y-97100000D03*
%TO.P,J2,17,Pin_17_17*%
%TO.N,SDI*%
X265906179Y-97100000D03*
%TO.P,J2,18,Pin_18_18*%
%TO.N,SCK*%
X268446179Y-97100000D03*
%TO.P,J2,19,Pin_19_19*%
%TO.N,SDO*%
X270986179Y-97100000D03*
%TO.P,J2,20,Pin_20_20*%
%TO.N,Net-(J2-Pin_20)*%
X273526179Y-97100000D03*
%TO.P,J2,21,Pin_21_21*%
%TO.N,5V*%
X276066179Y-97100000D03*
%TO.P,J2,22,Pin_22_22*%
%TO.N,GND*%
X278606179Y-97100000D03*
%TD*%
D12*
%TO.P,SW6,1,1_1*%
%TO.N,Y0*%
X133970000Y-37570000D03*
%TO.P,SW6,2,2_2*%
%TO.N,Net-(D6-A)*%
X127620000Y-40110000D03*
%TD*%
%TO.P,SW61,1,1_1*%
%TO.N,Y4*%
X157782500Y-113770000D03*
%TO.P,SW61,2,2_2*%
%TO.N,Net-(D61-A)*%
X151432500Y-116310000D03*
%TD*%
%TO.P,SW77,1,1_1*%
%TO.N,Y5*%
X432732500Y-132820000D03*
%TO.P,SW77,2,2_2*%
%TO.N,Net-(D77-A)*%
X426382500Y-135360000D03*
%TD*%
%TO.P,SW27,1,1_1*%
%TO.N,Y1*%
X394632500Y-56620000D03*
%TO.P,SW27,2,2_2*%
%TO.N,Net-(D27-A)*%
X388282500Y-59160000D03*
%TD*%
%TO.P,SW19,1,1_1*%
%TO.N,Y1*%
X114920000Y-56620000D03*
%TO.P,SW19,2,2_2*%
%TO.N,Net-(D19-A)*%
X108570000Y-59160000D03*
%TD*%
%TO.P,SW22,1,1_1*%
%TO.N,Y1*%
X299297500Y-56620000D03*
%TO.P,SW22,2,2_2*%
%TO.N,Net-(D22-A)*%
X292947500Y-59160000D03*
%TD*%
%TO.P,SW59,1,1_1*%
%TO.N,Y4*%
X119682500Y-113770000D03*
%TO.P,SW59,2,2_2*%
%TO.N,Net-(D59-A)*%
X113332500Y-116310000D03*
%TD*%
%TO.P,SW2,1,1_1*%
%TO.N,Y0*%
X57770000Y-37570000D03*
%TO.P,SW2,2,2_2*%
%TO.N,Net-(D2-A)*%
X51420000Y-40110000D03*
%TD*%
%TO.P,SW11,1,1_1*%
%TO.N,Y0*%
X356532500Y-37570000D03*
%TO.P,SW11,2,2_2*%
%TO.N,Net-(D11-A)*%
X350182500Y-40110000D03*
%TD*%
%TO.P,SW28,1,1_1*%
%TO.N,Y1*%
X423207500Y-56620000D03*
%TO.P,SW28,2,2_2*%
%TO.N,Net-(D28-A)*%
X416857500Y-59160000D03*
%TD*%
%TO.P,SW25,1,1_1*%
%TO.N,Y1*%
X356532500Y-56620000D03*
%TO.P,SW25,2,2_2*%
%TO.N,Net-(D25-A)*%
X350182500Y-59160000D03*
%TD*%
D13*
%TO.P,D80,1,K_1*%
%TO.N,GND*%
X171336179Y-101400000D03*
D14*
%TO.P,D80,2,A_2*%
%TO.N,NUM*%
X171336179Y-98860000D03*
%TD*%
D12*
%TO.P,SW13,1,1_1*%
%TO.N,Y0*%
X394632500Y-37570000D03*
%TO.P,SW13,2,2_2*%
%TO.N,Net-(D13-A)*%
X388282500Y-40110000D03*
%TD*%
%TO.P,SW40,1,1_1*%
%TO.N,Y2*%
X385107500Y-75670000D03*
%TO.P,SW40,2,2_2*%
%TO.N,Net-(D40-A)*%
X378757500Y-78210000D03*
%TD*%
%TO.P,SW71,1,1_1*%
%TO.N,Y5*%
X107776250Y-132820000D03*
%TO.P,SW71,2,2_2*%
%TO.N,Net-(D71-A)*%
X101426250Y-135360000D03*
%TD*%
%TO.P,SW43,1,1_1*%
%TO.N,Y3*%
X45863750Y-94720000D03*
%TO.P,SW43,2,2_2*%
%TO.N,Net-(D43-A)*%
X39513750Y-97260000D03*
%TD*%
%TO.P,SW21,1,1_1*%
%TO.N,Y1*%
X153020000Y-56620000D03*
%TO.P,SW21,2,2_2*%
%TO.N,Net-(D21-A)*%
X146670000Y-59160000D03*
%TD*%
%TO.P,SW12,1,1_1*%
%TO.N,Y0*%
X375582500Y-37570000D03*
%TO.P,SW12,2,2_2*%
%TO.N,Net-(D12-A)*%
X369232500Y-40110000D03*
%TD*%
%TO.P,SW39,1,1_1*%
%TO.N,Y2*%
X366057500Y-75670000D03*
%TO.P,SW39,2,2_2*%
%TO.N,Net-(D39-A)*%
X359707500Y-78210000D03*
%TD*%
%TO.P,SW56,1,1_1*%
%TO.N,Y4*%
X50626250Y-113770000D03*
%TO.P,SW56,2,2_2*%
%TO.N,Net-(D56-A)*%
X44276250Y-116310000D03*
%TD*%
%TO.P,SW30,1,1_1*%
%TO.N,Y2*%
X67295000Y-75670000D03*
%TO.P,SW30,2,2_2*%
%TO.N,Net-(D30-A)*%
X60945000Y-78210000D03*
%TD*%
D10*
%TO.P,J5,1,Pin_1_1*%
%TO.N,Net-(J1-Pin_1)*%
X225266179Y-127200000D03*
D11*
%TO.P,J5,2,Pin_2_2*%
%TO.N,Net-(J1-Pin_2)*%
X227806179Y-127200000D03*
%TO.P,J5,3,Pin_3_3*%
%TO.N,Net-(J1-Pin_3)*%
X230346179Y-127200000D03*
%TO.P,J5,4,Pin_4_4*%
%TO.N,RESET*%
X232886179Y-127200000D03*
%TO.P,J5,5,Pin_5_5*%
%TO.N,X13*%
X235426179Y-127200000D03*
%TO.P,J5,6,Pin_6_6*%
%TO.N,X12*%
X237966179Y-127200000D03*
%TO.P,J5,7,Pin_7_7*%
%TO.N,X11*%
X240506179Y-127200000D03*
%TO.P,J5,8,Pin_8_8*%
%TO.N,X10*%
X243046179Y-127200000D03*
%TO.P,J5,9,Pin_9_9*%
%TO.N,X9*%
X245586179Y-127200000D03*
%TO.P,J5,10,Pin_10_10*%
%TO.N,X8*%
X248126179Y-127200000D03*
%TO.P,J5,11,Pin_11_11*%
%TO.N,X7*%
X250666179Y-127200000D03*
%TO.P,J5,12,Pin_12_12*%
%TO.N,X6*%
X253206179Y-127200000D03*
%TO.P,J5,13,Pin_13_13*%
%TO.N,X5*%
X255746179Y-127200000D03*
%TO.P,J5,14,Pin_14_14*%
%TO.N,X4*%
X258286179Y-127200000D03*
%TO.P,J5,15,Pin_15_15*%
%TO.N,X3*%
X260826179Y-127200000D03*
%TO.P,J5,16,Pin_16_16*%
%TO.N,X2*%
X263366179Y-127200000D03*
%TO.P,J5,17,Pin_17_17*%
%TO.N,X1*%
X265906179Y-127200000D03*
%TO.P,J5,18,Pin_18_18*%
%TO.N,X0*%
X268446179Y-127200000D03*
%TO.P,J5,19,Pin_19_19*%
%TO.N,Net-(J1-Pin_19)*%
X270986179Y-127200000D03*
%TO.P,J5,20,Pin_20_20*%
%TO.N,FN*%
X273526179Y-127200000D03*
%TO.P,J5,21,Pin_21_21*%
%TO.N,NUM*%
X276066179Y-127200000D03*
%TO.P,J5,22,Pin_22_22*%
%TO.N,Net-(J1-Pin_22)*%
X278606179Y-127200000D03*
%TD*%
D10*
%TO.P,J4,1,Pin_1_1*%
%TO.N,Net-(J2-Pin_1)*%
X225266179Y-100700000D03*
D11*
%TO.P,J4,2,Pin_2_2*%
%TO.N,Net-(J2-Pin_2)*%
X227806179Y-100700000D03*
%TO.P,J4,3,Pin_3_3*%
%TO.N,Net-(J2-Pin_3)*%
X230346179Y-100700000D03*
%TO.P,J4,4,Pin_4_4*%
%TO.N,Speaker*%
X232886179Y-100700000D03*
%TO.P,J4,5,Pin_5_5*%
%TO.N,Resis_Strip*%
X235426179Y-100700000D03*
%TO.P,J4,6,Pin_6_6*%
%TO.N,Y0*%
X237966179Y-100700000D03*
%TO.P,J4,7,Pin_7_7*%
%TO.N,Y1*%
X240506179Y-100700000D03*
%TO.P,J4,8,Pin_8_8*%
%TO.N,Y2*%
X243046179Y-100700000D03*
%TO.P,J4,9,Pin_9_9*%
%TO.N,Y3*%
X245586179Y-100700000D03*
%TO.P,J4,10,Pin_10_10*%
%TO.N,Y4*%
X248126179Y-100700000D03*
%TO.P,J4,11,Pin_11_11*%
%TO.N,Y5*%
X250666179Y-100700000D03*
%TO.P,J4,12,Pin_12_12*%
%TO.N,Net-(J2-Pin_12)*%
X253206179Y-100700000D03*
%TO.P,J4,13,Pin_13_13*%
%TO.N,Net-(J2-Pin_13)*%
X255746179Y-100700000D03*
%TO.P,J4,14,Pin_14_14*%
%TO.N,Net-(J2-Pin_14)*%
X258286179Y-100700000D03*
%TO.P,J4,15,Pin_15_15*%
%TO.N,RS*%
X260826179Y-100700000D03*
%TO.P,J4,16,Pin_16_16*%
%TO.N,CS*%
X263366179Y-100700000D03*
%TO.P,J4,17,Pin_17_17*%
%TO.N,SDI*%
X265906179Y-100700000D03*
%TO.P,J4,18,Pin_18_18*%
%TO.N,SCK*%
X268446179Y-100700000D03*
%TO.P,J4,19,Pin_19_19*%
%TO.N,SDO*%
X270986179Y-100700000D03*
%TO.P,J4,20,Pin_20_20*%
%TO.N,Net-(J2-Pin_20)*%
X273526179Y-100700000D03*
%TO.P,J4,21,Pin_21_21*%
%TO.N,5V*%
X276066179Y-100700000D03*
%TO.P,J4,22,Pin_22_22*%
%TO.N,GND*%
X278606179Y-100700000D03*
%TD*%
D12*
%TO.P,SW73,1,1_1*%
%TO.N,Y5*%
X356532500Y-132820000D03*
%TO.P,SW73,2,2_2*%
%TO.N,Net-(D73-A)*%
X350182500Y-135360000D03*
%TD*%
%TO.P,SW32,1,1_1*%
%TO.N,Y2*%
X105395000Y-75670000D03*
%TO.P,SW32,2,2_2*%
%TO.N,Net-(D32-A)*%
X99045000Y-78210000D03*
%TD*%
%TO.P,SW41,1,1_1*%
%TO.N,Y2*%
X404157500Y-75670000D03*
%TO.P,SW41,2,2_2*%
%TO.N,Net-(D41-A)*%
X397807500Y-78210000D03*
%TD*%
%TO.P,SW3,1,1_1*%
%TO.N,Y0*%
X76820000Y-37570000D03*
%TO.P,SW3,2,2_2*%
%TO.N,Net-(D3-A)*%
X70470000Y-40110000D03*
%TD*%
%TO.P,SW75,1,1_1*%
%TO.N,Y5*%
X394632500Y-132820000D03*
%TO.P,SW75,2,2_2*%
%TO.N,Net-(D75-A)*%
X388282500Y-135360000D03*
%TD*%
%TO.P,SW20,1,1_1*%
%TO.N,Y1*%
X133970000Y-56620000D03*
%TO.P,SW20,2,2_2*%
%TO.N,Net-(D20-A)*%
X127620000Y-59160000D03*
%TD*%
%TO.P,SW29,1,1_1*%
%TO.N,Y2*%
X43482500Y-75670000D03*
%TO.P,SW29,2,2_2*%
%TO.N,Net-(D29-A)*%
X37132500Y-78210000D03*
%TD*%
%TO.P,SW68,1,1_1*%
%TO.N,Y5*%
X41101250Y-132820000D03*
%TO.P,SW68,2,2_2*%
%TO.N,Net-(D68-A)*%
X34751250Y-135360000D03*
%TD*%
%TO.P,SW72,1,1_1*%
%TO.N,Y5*%
X169688750Y-132820000D03*
%TO.P,SW72,2,2_2*%
%TO.N,Net-(D72-A)*%
X163338750Y-135360000D03*
%TD*%
%TO.P,SW1,1,1_1*%
%TO.N,Y0*%
X38720000Y-37570000D03*
%TO.P,SW1,2,2_2*%
%TO.N,Net-(D1-A)*%
X32370000Y-40110000D03*
%TD*%
%TO.P,SW44,1,1_1*%
%TO.N,Y3*%
X72057500Y-94720000D03*
%TO.P,SW44,2,2_2*%
%TO.N,Net-(D44-A)*%
X65707500Y-97260000D03*
%TD*%
%TO.P,SW15,1,1_1*%
%TO.N,Y1*%
X38720000Y-56620000D03*
%TO.P,SW15,2,2_2*%
%TO.N,Net-(D15-A)*%
X32370000Y-59160000D03*
%TD*%
%TO.P,SW31,1,1_1*%
%TO.N,Y2*%
X86345000Y-75670000D03*
%TO.P,SW31,2,2_2*%
%TO.N,Net-(D31-A)*%
X79995000Y-78210000D03*
%TD*%
%TO.P,SW47,1,1_1*%
%TO.N,Y3*%
X129207500Y-94720000D03*
%TO.P,SW47,2,2_2*%
%TO.N,Net-(D47-A)*%
X122857500Y-97260000D03*
%TD*%
%TO.P,SW14,1,1_1*%
%TO.N,Y0*%
X432732500Y-37570000D03*
%TO.P,SW14,2,2_2*%
%TO.N,Net-(D14-A)*%
X426382500Y-40110000D03*
%TD*%
%TO.P,SW63,1,1_1*%
%TO.N,Y4*%
X323195000Y-113770000D03*
%TO.P,SW63,2,2_2*%
%TO.N,Net-(D63-A)*%
X316845000Y-116310000D03*
%TD*%
%TO.P,SW37,1,1_1*%
%TO.N,Y2*%
X327957500Y-75670000D03*
%TO.P,SW37,2,2_2*%
%TO.N,Net-(D37-A)*%
X321607500Y-78210000D03*
%TD*%
%TO.P,SW4,1,1_1*%
%TO.N,Y0*%
X95870000Y-37570000D03*
%TO.P,SW4,2,2_2*%
%TO.N,Net-(D4-A)*%
X89520000Y-40110000D03*
%TD*%
%TO.P,SW23,1,1_1*%
%TO.N,Y1*%
X318432500Y-56620000D03*
%TO.P,SW23,2,2_2*%
%TO.N,Net-(D23-A)*%
X312082500Y-59160000D03*
%TD*%
%TO.P,SW17,1,1_1*%
%TO.N,Y1*%
X76820000Y-56620000D03*
%TO.P,SW17,2,2_2*%
%TO.N,Net-(D17-A)*%
X70470000Y-59160000D03*
%TD*%
%TO.P,SW24,1,1_1*%
%TO.N,Y1*%
X337482500Y-56620000D03*
%TO.P,SW24,2,2_2*%
%TO.N,Net-(D24-A)*%
X331132500Y-59160000D03*
%TD*%
%TO.P,SW51,1,1_1*%
%TO.N,Y3*%
X332720000Y-94720000D03*
%TO.P,SW51,2,2_2*%
%TO.N,Net-(D51-A)*%
X326370000Y-97260000D03*
%TD*%
%TO.P,SW76,1,1_1*%
%TO.N,Y5*%
X413682500Y-132820000D03*
%TO.P,SW76,2,2_2*%
%TO.N,Net-(D76-A)*%
X407332500Y-135360000D03*
%TD*%
%TO.P,SW9,1,1_1*%
%TO.N,Y0*%
X318432500Y-37570000D03*
%TO.P,SW9,2,2_2*%
%TO.N,Net-(D9-A)*%
X312082500Y-40110000D03*
%TD*%
%TO.P,SW50,1,1_1*%
%TO.N,Y3*%
X313670000Y-94720000D03*
%TO.P,SW50,2,2_2*%
%TO.N,Net-(D50-A)*%
X307320000Y-97260000D03*
%TD*%
%TO.P,SW46,1,1_1*%
%TO.N,Y3*%
X110157500Y-94720000D03*
%TO.P,SW46,2,2_2*%
%TO.N,Net-(D46-A)*%
X103807500Y-97260000D03*
%TD*%
%TO.P,SW45,1,1_1*%
%TO.N,Y3*%
X91107500Y-94720000D03*
%TO.P,SW45,2,2_2*%
%TO.N,Net-(D45-A)*%
X84757500Y-97260000D03*
%TD*%
%TO.P,SW66,1,1_1*%
%TO.N,Y4*%
X380345000Y-113770000D03*
%TO.P,SW66,2,2_2*%
%TO.N,Net-(D66-A)*%
X373995000Y-116310000D03*
%TD*%
%TO.P,SW34,1,1_1*%
%TO.N,Y2*%
X143495000Y-75670000D03*
%TO.P,SW34,2,2_2*%
%TO.N,Net-(D34-A)*%
X137145000Y-78210000D03*
%TD*%
%TO.P,SW33,1,1_1*%
%TO.N,Y2*%
X124445000Y-75670000D03*
%TO.P,SW33,2,2_2*%
%TO.N,Net-(D33-A)*%
X118095000Y-78210000D03*
%TD*%
%TO.P,SW42,1,1_1*%
%TO.N,Y2*%
X427970000Y-75670000D03*
%TO.P,SW42,2,2_2*%
%TO.N,Net-(D42-A)*%
X421620000Y-78210000D03*
%TD*%
%TO.P,SW55,1,1_1*%
%TO.N,Y3*%
X420826250Y-94720000D03*
%TO.P,SW55,2,2_2*%
%TO.N,Net-(D55-A)*%
X414476250Y-97260000D03*
%TD*%
%TO.P,SW64,1,1_1*%
%TO.N,Y4*%
X342245000Y-113770000D03*
%TO.P,SW64,2,2_2*%
%TO.N,Net-(D64-A)*%
X335895000Y-116310000D03*
%TD*%
D15*
%TO.P,D56,1,K_1*%
%TO.N,X0*%
X55706250Y-123400000D03*
D12*
%TO.P,D56,2,A_2*%
%TO.N,Net-(D56-A)*%
X55706250Y-113240000D03*
%TD*%
D15*
%TO.P,D16,1,K_1*%
%TO.N,X1*%
X62850000Y-66250000D03*
D12*
%TO.P,D16,2,A_2*%
%TO.N,Net-(D16-A)*%
X62850000Y-56090000D03*
%TD*%
D15*
%TO.P,D8,1,K_1*%
%TO.N,X7*%
X304377500Y-47200000D03*
D12*
%TO.P,D8,2,A_2*%
%TO.N,Net-(D8-A)*%
X304377500Y-37040000D03*
%TD*%
D15*
%TO.P,D74,1,K_1*%
%TO.N,X6*%
X380662500Y-142450000D03*
D12*
%TO.P,D74,2,A_2*%
%TO.N,Net-(D74-A)*%
X380662500Y-132290000D03*
%TD*%
D15*
%TO.P,D59,1,K_1*%
%TO.N,X3*%
X124762500Y-123400000D03*
D12*
%TO.P,D59,2,A_2*%
%TO.N,Net-(D59-A)*%
X124762500Y-113240000D03*
%TD*%
D15*
%TO.P,D27,1,K_1*%
%TO.N,X12*%
X399712500Y-66250000D03*
D12*
%TO.P,D27,2,A_2*%
%TO.N,Net-(D27-A)*%
X399712500Y-56090000D03*
%TD*%
D15*
%TO.P,D30,1,K_1*%
%TO.N,X1*%
X72375000Y-85300000D03*
D12*
%TO.P,D30,2,A_2*%
%TO.N,Net-(D30-A)*%
X72375000Y-75140000D03*
%TD*%
D15*
%TO.P,D6,1,K_1*%
%TO.N,X5*%
X139050000Y-47200000D03*
D12*
%TO.P,D6,2,A_2*%
%TO.N,Net-(D6-A)*%
X139050000Y-37040000D03*
%TD*%
D15*
%TO.P,D47,1,K_1*%
%TO.N,X4*%
X134287500Y-104350000D03*
D12*
%TO.P,D47,2,A_2*%
%TO.N,Net-(D47-A)*%
X134287500Y-94190000D03*
%TD*%
D15*
%TO.P,D2,1,K_1*%
%TO.N,X1*%
X62850000Y-47200000D03*
D12*
%TO.P,D2,2,A_2*%
%TO.N,Net-(D2-A)*%
X62850000Y-37040000D03*
%TD*%
D15*
%TO.P,D31,1,K_1*%
%TO.N,X2*%
X91425000Y-85300000D03*
D12*
%TO.P,D31,2,A_2*%
%TO.N,Net-(D31-A)*%
X91425000Y-75140000D03*
%TD*%
D15*
%TO.P,D12,1,K_1*%
%TO.N,X11*%
X380662500Y-47200000D03*
D12*
%TO.P,D12,2,A_2*%
%TO.N,Net-(D12-A)*%
X380662500Y-37040000D03*
%TD*%
D15*
%TO.P,D66,1,K_1*%
%TO.N,X10*%
X385425000Y-123400000D03*
D12*
%TO.P,D66,2,A_2*%
%TO.N,Net-(D66-A)*%
X385425000Y-113240000D03*
%TD*%
D15*
%TO.P,D70,1,K_1*%
%TO.N,X2*%
X89043750Y-142450000D03*
D12*
%TO.P,D70,2,A_2*%
%TO.N,Net-(D70-A)*%
X89043750Y-132290000D03*
%TD*%
D15*
%TO.P,D53,1,K_1*%
%TO.N,X10*%
X375900000Y-104350000D03*
D12*
%TO.P,D53,2,A_2*%
%TO.N,Net-(D53-A)*%
X375900000Y-94190000D03*
%TD*%
D15*
%TO.P,D65,1,K_1*%
%TO.N,X9*%
X366375000Y-123400000D03*
D12*
%TO.P,D65,2,A_2*%
%TO.N,Net-(D65-A)*%
X366375000Y-113240000D03*
%TD*%
D15*
%TO.P,D17,1,K_1*%
%TO.N,X2*%
X81900000Y-66250000D03*
D12*
%TO.P,D17,2,A_2*%
%TO.N,Net-(D17-A)*%
X81900000Y-56090000D03*
%TD*%
D15*
%TO.P,D39,1,K_1*%
%TO.N,X10*%
X371137500Y-85300000D03*
D12*
%TO.P,D39,2,A_2*%
%TO.N,Net-(D39-A)*%
X371137500Y-75140000D03*
%TD*%
D15*
%TO.P,D23,1,K_1*%
%TO.N,X8*%
X323512500Y-66250000D03*
D12*
%TO.P,D23,2,A_2*%
%TO.N,Net-(D23-A)*%
X323512500Y-56090000D03*
%TD*%
D15*
%TO.P,D40,1,K_1*%
%TO.N,X11*%
X390187500Y-85300000D03*
D12*
%TO.P,D40,2,A_2*%
%TO.N,Net-(D40-A)*%
X390187500Y-75140000D03*
%TD*%
D15*
%TO.P,D72,1,K_1*%
%TO.N,X4*%
X174768750Y-142450000D03*
D12*
%TO.P,D72,2,A_2*%
%TO.N,Net-(D72-A)*%
X174768750Y-132290000D03*
%TD*%
D15*
%TO.P,D22,1,K_1*%
%TO.N,X7*%
X304377500Y-66250000D03*
D12*
%TO.P,D22,2,A_2*%
%TO.N,Net-(D22-A)*%
X304377500Y-56090000D03*
%TD*%
D15*
%TO.P,D3,1,K_1*%
%TO.N,X2*%
X81900000Y-47200000D03*
D12*
%TO.P,D3,2,A_2*%
%TO.N,Net-(D3-A)*%
X81900000Y-37040000D03*
%TD*%
D15*
%TO.P,D34,1,K_1*%
%TO.N,X5*%
X148575000Y-85300000D03*
D12*
%TO.P,D34,2,A_2*%
%TO.N,Net-(D34-A)*%
X148575000Y-75140000D03*
%TD*%
D15*
%TO.P,D25,1,K_1*%
%TO.N,X10*%
X361612500Y-66250000D03*
D12*
%TO.P,D25,2,A_2*%
%TO.N,Net-(D25-A)*%
X361612500Y-56090000D03*
%TD*%
D15*
%TO.P,D15,1,K_1*%
%TO.N,X0*%
X43800000Y-66250000D03*
D12*
%TO.P,D15,2,A_2*%
%TO.N,Net-(D15-A)*%
X43800000Y-56090000D03*
%TD*%
D15*
%TO.P,D26,1,K_1*%
%TO.N,X11*%
X380662500Y-66250000D03*
D12*
%TO.P,D26,2,A_2*%
%TO.N,Net-(D26-A)*%
X380662500Y-56090000D03*
%TD*%
D15*
%TO.P,D36,1,K_1*%
%TO.N,X7*%
X313940000Y-85350000D03*
D12*
%TO.P,D36,2,A_2*%
%TO.N,Net-(D36-A)*%
X313940000Y-75190000D03*
%TD*%
D15*
%TO.P,D14,1,K_1*%
%TO.N,X13*%
X437812500Y-47200000D03*
D12*
%TO.P,D14,2,A_2*%
%TO.N,Net-(D14-A)*%
X437812500Y-37040000D03*
%TD*%
D15*
%TO.P,D37,1,K_1*%
%TO.N,X8*%
X333037500Y-85300000D03*
D12*
%TO.P,D37,2,A_2*%
%TO.N,Net-(D37-A)*%
X333037500Y-75140000D03*
%TD*%
D15*
%TO.P,D11,1,K_1*%
%TO.N,X10*%
X361612500Y-47200000D03*
D12*
%TO.P,D11,2,A_2*%
%TO.N,Net-(D11-A)*%
X361612500Y-37040000D03*
%TD*%
D15*
%TO.P,D50,1,K_1*%
%TO.N,X7*%
X318750000Y-104350000D03*
D12*
%TO.P,D50,2,A_2*%
%TO.N,Net-(D50-A)*%
X318750000Y-94190000D03*
%TD*%
D15*
%TO.P,D38,1,K_1*%
%TO.N,X9*%
X352087500Y-85300000D03*
D12*
%TO.P,D38,2,A_2*%
%TO.N,Net-(D38-A)*%
X352087500Y-75140000D03*
%TD*%
D15*
%TO.P,D45,1,K_1*%
%TO.N,X2*%
X96187500Y-104350000D03*
D12*
%TO.P,D45,2,A_2*%
%TO.N,Net-(D45-A)*%
X96187500Y-94190000D03*
%TD*%
D15*
%TO.P,D54,1,K_1*%
%TO.N,X11*%
X394950000Y-104350000D03*
D12*
%TO.P,D54,2,A_2*%
%TO.N,Net-(D54-A)*%
X394950000Y-94190000D03*
%TD*%
D15*
%TO.P,D67,1,K_1*%
%TO.N,X11*%
X418762500Y-123400000D03*
D12*
%TO.P,D67,2,A_2*%
%TO.N,Net-(D67-A)*%
X418762500Y-113240000D03*
%TD*%
D15*
%TO.P,D19,1,K_1*%
%TO.N,X4*%
X120000000Y-66250000D03*
D12*
%TO.P,D19,2,A_2*%
%TO.N,Net-(D19-A)*%
X120000000Y-56090000D03*
%TD*%
D15*
%TO.P,D62,1,K_1*%
%TO.N,X6*%
X309140000Y-123400000D03*
D12*
%TO.P,D62,2,A_2*%
%TO.N,Net-(D62-A)*%
X309140000Y-113240000D03*
%TD*%
D15*
%TO.P,D41,1,K_1*%
%TO.N,X12*%
X409237500Y-85300000D03*
D12*
%TO.P,D41,2,A_2*%
%TO.N,Net-(D41-A)*%
X409237500Y-75140000D03*
%TD*%
D15*
%TO.P,D68,1,K_1*%
%TO.N,X0*%
X46181250Y-142450000D03*
D12*
%TO.P,D68,2,A_2*%
%TO.N,Net-(D68-A)*%
X46181250Y-132290000D03*
%TD*%
D15*
%TO.P,D57,1,K_1*%
%TO.N,X1*%
X86662500Y-123400000D03*
D12*
%TO.P,D57,2,A_2*%
%TO.N,Net-(D57-A)*%
X86662500Y-113240000D03*
%TD*%
D15*
%TO.P,D64,1,K_1*%
%TO.N,X8*%
X347325000Y-123400000D03*
D12*
%TO.P,D64,2,A_2*%
%TO.N,Net-(D64-A)*%
X347325000Y-113240000D03*
%TD*%
D15*
%TO.P,D33,1,K_1*%
%TO.N,X4*%
X129525000Y-85300000D03*
D12*
%TO.P,D33,2,A_2*%
%TO.N,Net-(D33-A)*%
X129525000Y-75140000D03*
%TD*%
D15*
%TO.P,D58,1,K_1*%
%TO.N,X2*%
X105712500Y-123400000D03*
D12*
%TO.P,D58,2,A_2*%
%TO.N,Net-(D58-A)*%
X105712500Y-113240000D03*
%TD*%
D15*
%TO.P,D35,1,K_1*%
%TO.N,X6*%
X167700000Y-85300000D03*
D12*
%TO.P,D35,2,A_2*%
%TO.N,Net-(D35-A)*%
X167700000Y-75140000D03*
%TD*%
D15*
%TO.P,D75,1,K_1*%
%TO.N,X7*%
X399712500Y-142450000D03*
D12*
%TO.P,D75,2,A_2*%
%TO.N,Net-(D75-A)*%
X399712500Y-132290000D03*
%TD*%
D15*
%TO.P,D51,1,K_1*%
%TO.N,X8*%
X337800000Y-104350000D03*
D12*
%TO.P,D51,2,A_2*%
%TO.N,Net-(D51-A)*%
X337800000Y-94190000D03*
%TD*%
D15*
%TO.P,D44,1,K_1*%
%TO.N,X1*%
X77137500Y-104350000D03*
D12*
%TO.P,D44,2,A_2*%
%TO.N,Net-(D44-A)*%
X77137500Y-94190000D03*
%TD*%
D15*
%TO.P,D10,1,K_1*%
%TO.N,X9*%
X342562500Y-47200000D03*
D12*
%TO.P,D10,2,A_2*%
%TO.N,Net-(D10-A)*%
X342562500Y-37040000D03*
%TD*%
D15*
%TO.P,D49,1,K_1*%
%TO.N,X6*%
X299615000Y-104350000D03*
D12*
%TO.P,D49,2,A_2*%
%TO.N,Net-(D49-A)*%
X299615000Y-94190000D03*
%TD*%
D15*
%TO.P,D20,1,K_1*%
%TO.N,X5*%
X139050000Y-66250000D03*
D12*
%TO.P,D20,2,A_2*%
%TO.N,Net-(D20-A)*%
X139050000Y-56090000D03*
%TD*%
D15*
%TO.P,D21,1,K_1*%
%TO.N,X6*%
X158100000Y-66250000D03*
D12*
%TO.P,D21,2,A_2*%
%TO.N,Net-(D21-A)*%
X158100000Y-56090000D03*
%TD*%
D15*
%TO.P,D69,1,K_1*%
%TO.N,X1*%
X67612500Y-142450000D03*
D12*
%TO.P,D69,2,A_2*%
%TO.N,Net-(D69-A)*%
X67612500Y-132290000D03*
%TD*%
D15*
%TO.P,D61,1,K_1*%
%TO.N,X5*%
X162862500Y-123400000D03*
D12*
%TO.P,D61,2,A_2*%
%TO.N,Net-(D61-A)*%
X162862500Y-113240000D03*
%TD*%
D15*
%TO.P,D71,1,K_1*%
%TO.N,X3*%
X112856250Y-142450000D03*
D12*
%TO.P,D71,2,A_2*%
%TO.N,Net-(D71-A)*%
X112856250Y-132290000D03*
%TD*%
D15*
%TO.P,D48,1,K_1*%
%TO.N,X5*%
X153337500Y-104350000D03*
D12*
%TO.P,D48,2,A_2*%
%TO.N,Net-(D48-A)*%
X153337500Y-94190000D03*
%TD*%
D15*
%TO.P,D55,1,K_1*%
%TO.N,X12*%
X425906250Y-104350000D03*
D12*
%TO.P,D55,2,A_2*%
%TO.N,Net-(D55-A)*%
X425906250Y-94190000D03*
%TD*%
D15*
%TO.P,D76,1,K_1*%
%TO.N,X8*%
X418762500Y-142450000D03*
D12*
%TO.P,D76,2,A_2*%
%TO.N,Net-(D76-A)*%
X418762500Y-132290000D03*
%TD*%
D15*
%TO.P,D63,1,K_1*%
%TO.N,X7*%
X328275000Y-123400000D03*
D12*
%TO.P,D63,2,A_2*%
%TO.N,Net-(D63-A)*%
X328275000Y-113240000D03*
%TD*%
D15*
%TO.P,D18,1,K_1*%
%TO.N,X3*%
X100950000Y-66250000D03*
D12*
%TO.P,D18,2,A_2*%
%TO.N,Net-(D18-A)*%
X100950000Y-56090000D03*
%TD*%
D15*
%TO.P,D7,1,K_1*%
%TO.N,X6*%
X158100000Y-47200000D03*
D12*
%TO.P,D7,2,A_2*%
%TO.N,Net-(D7-A)*%
X158100000Y-37040000D03*
%TD*%
D15*
%TO.P,D77,1,K_1*%
%TO.N,X9*%
X437812500Y-142450000D03*
D12*
%TO.P,D77,2,A_2*%
%TO.N,Net-(D77-A)*%
X437812500Y-132290000D03*
%TD*%
D15*
%TO.P,D4,1,K_1*%
%TO.N,X3*%
X100950000Y-47200000D03*
D12*
%TO.P,D4,2,A_2*%
%TO.N,Net-(D4-A)*%
X100950000Y-37040000D03*
%TD*%
D15*
%TO.P,D32,1,K_1*%
%TO.N,X3*%
X110475000Y-85300000D03*
D12*
%TO.P,D32,2,A_2*%
%TO.N,Net-(D32-A)*%
X110475000Y-75140000D03*
%TD*%
D15*
%TO.P,D28,1,K_1*%
%TO.N,X13*%
X428287500Y-66250000D03*
D12*
%TO.P,D28,2,A_2*%
%TO.N,Net-(D28-A)*%
X428287500Y-56090000D03*
%TD*%
D15*
%TO.P,D29,1,K_1*%
%TO.N,X0*%
X48562500Y-85300000D03*
D12*
%TO.P,D29,2,A_2*%
%TO.N,Net-(D29-A)*%
X48562500Y-75140000D03*
%TD*%
D15*
%TO.P,D52,1,K_1*%
%TO.N,X9*%
X356850000Y-104350000D03*
D12*
%TO.P,D52,2,A_2*%
%TO.N,Net-(D52-A)*%
X356850000Y-94190000D03*
%TD*%
D15*
%TO.P,D5,1,K_1*%
%TO.N,X4*%
X120000000Y-47200000D03*
D12*
%TO.P,D5,2,A_2*%
%TO.N,Net-(D5-A)*%
X120000000Y-37040000D03*
%TD*%
D15*
%TO.P,D73,1,K_1*%
%TO.N,X5*%
X361612500Y-142450000D03*
D12*
%TO.P,D73,2,A_2*%
%TO.N,Net-(D73-A)*%
X361612500Y-132290000D03*
%TD*%
D15*
%TO.P,D9,1,K_1*%
%TO.N,X8*%
X323512500Y-47200000D03*
D12*
%TO.P,D9,2,A_2*%
%TO.N,Net-(D9-A)*%
X323512500Y-37040000D03*
%TD*%
D15*
%TO.P,D1,1,K_1*%
%TO.N,X0*%
X43800000Y-47200000D03*
D12*
%TO.P,D1,2,A_2*%
%TO.N,Net-(D1-A)*%
X43800000Y-37040000D03*
%TD*%
D15*
%TO.P,D24,1,K_1*%
%TO.N,X9*%
X342562500Y-66250000D03*
D12*
%TO.P,D24,2,A_2*%
%TO.N,Net-(D24-A)*%
X342562500Y-56090000D03*
%TD*%
D15*
%TO.P,D46,1,K_1*%
%TO.N,X3*%
X115237500Y-104350000D03*
D12*
%TO.P,D46,2,A_2*%
%TO.N,Net-(D46-A)*%
X115237500Y-94190000D03*
%TD*%
D15*
%TO.P,D42,1,K_1*%
%TO.N,X13*%
X433050000Y-85300000D03*
D12*
%TO.P,D42,2,A_2*%
%TO.N,Net-(D42-A)*%
X433050000Y-75140000D03*
%TD*%
D15*
%TO.P,D43,1,K_1*%
%TO.N,X0*%
X50943750Y-104350000D03*
D12*
%TO.P,D43,2,A_2*%
%TO.N,Net-(D43-A)*%
X50943750Y-94190000D03*
%TD*%
D15*
%TO.P,D60,1,K_1*%
%TO.N,X4*%
X143812500Y-123400000D03*
D12*
%TO.P,D60,2,A_2*%
%TO.N,Net-(D60-A)*%
X143812500Y-113240000D03*
%TD*%
D15*
%TO.P,D13,1,K_1*%
%TO.N,X12*%
X399712500Y-47200000D03*
D12*
%TO.P,D13,2,A_2*%
%TO.N,Net-(D13-A)*%
X399712500Y-37040000D03*
%TD*%
D16*
%TO.N,Y1*%
X248300000Y-88800000D03*
X263265642Y-73343761D03*
%TO.N,Y0*%
X262600000Y-72900000D03*
X247400000Y-87900000D03*
%TO.N,Y3*%
X250700000Y-92000000D03*
X266200000Y-76400000D03*
%TO.N,Y2*%
X265100000Y-74700000D03*
X249600000Y-90400000D03*
%TO.N,GND*%
X177100000Y-91700000D03*
%TD*%
%TO.N,Y1*%
D17*
X263265642Y-73343761D02*
X279989403Y-56620000D01*
X279989403Y-56620000D02*
X299297500Y-56620000D01*
X240506179Y-97100000D02*
X248300000Y-89306179D01*
X248300000Y-89306179D02*
X248300000Y-88800000D01*
%TO.N,Y0*%
X237966179Y-97100000D02*
X247166179Y-87900000D01*
X262600000Y-66000000D02*
X291030000Y-37570000D01*
X247166179Y-87900000D02*
X247400000Y-87900000D01*
X291030000Y-37570000D02*
X299297500Y-37570000D01*
X262600000Y-72900000D02*
X262600000Y-66000000D01*
%TO.N,Y3*%
X266200000Y-76400000D02*
X284520000Y-94720000D01*
X245586179Y-97100000D02*
X250686179Y-92000000D01*
X250686179Y-92000000D02*
X250700000Y-92000000D01*
X284520000Y-94720000D02*
X294535000Y-94720000D01*
%TO.N,Y2*%
X243046179Y-97100000D02*
X249600000Y-90546179D01*
X265100000Y-74700000D02*
X266120000Y-75720000D01*
X266120000Y-75720000D02*
X308860000Y-75720000D01*
X249600000Y-90546179D02*
X249600000Y-90400000D01*
%TO.N,5V*%
X260526179Y-81560000D02*
X276066179Y-97100000D01*
X173500000Y-81560000D02*
X260526179Y-81560000D01*
%TO.N,GND*%
X171239122Y-97260000D02*
X170136179Y-98362943D01*
X252489833Y-101850000D02*
X251816179Y-101176346D01*
X183158921Y-99550000D02*
X180868921Y-97260000D01*
X277456179Y-101850000D02*
X252489833Y-101850000D01*
X251142525Y-99550000D02*
X183158921Y-99550000D01*
X170136179Y-98362943D02*
X170136179Y-100200000D01*
X176799122Y-91700000D02*
X170136179Y-98362943D01*
X177100000Y-91700000D02*
X176799122Y-91700000D01*
X278606179Y-100700000D02*
X277456179Y-101850000D01*
X180206179Y-101400000D02*
X171336179Y-101400000D01*
X180868921Y-97260000D02*
X171239122Y-97260000D01*
X251816179Y-101176346D02*
X251816179Y-100223654D01*
X170136179Y-100200000D02*
X171336179Y-101400000D01*
X251816179Y-100223654D02*
X251142525Y-99550000D01*
%TO.N,CS*%
X173500000Y-76480000D02*
X172350000Y-77630000D01*
X172350000Y-77630000D02*
X172350000Y-82710000D01*
X172350000Y-82710000D02*
X248976179Y-82710000D01*
X248976179Y-82710000D02*
X263366179Y-97100000D01*
%TO.N,RESET*%
X165900000Y-55565686D02*
X156700000Y-64765686D01*
X166700000Y-53315256D02*
X159184744Y-45800000D01*
X159184744Y-45800000D02*
X157015256Y-45800000D01*
X231736179Y-124740000D02*
X232886179Y-123590000D01*
X157700000Y-68334744D02*
X157700000Y-91165685D01*
X191274315Y-124740000D02*
X231736179Y-124740000D01*
X173500000Y-73940000D02*
X166700000Y-67140000D01*
X157700000Y-91165685D02*
X191274315Y-124740000D01*
X156700000Y-67334744D02*
X157700000Y-68334744D01*
X156700000Y-46115256D02*
X156700000Y-48284744D01*
X157015256Y-48600000D02*
X158934314Y-48600000D01*
X157015256Y-45800000D02*
X156700000Y-46115256D01*
X158934314Y-48600000D02*
X165900000Y-55565686D01*
X166700000Y-67140000D02*
X166700000Y-53315256D01*
X156700000Y-48284744D02*
X157015256Y-48600000D01*
X156700000Y-64765686D02*
X156700000Y-67334744D01*
%TO.N,RS*%
X246836179Y-83110000D02*
X260826179Y-97100000D01*
X177430000Y-75330000D02*
X173023654Y-75330000D01*
X173023654Y-75330000D02*
X171950000Y-76403654D01*
X173500000Y-71400000D02*
X177430000Y-75330000D01*
X171950000Y-82875685D02*
X172184315Y-83110000D01*
X171950000Y-76403654D02*
X171950000Y-82875685D01*
X172184315Y-83110000D02*
X246836179Y-83110000D01*
%TO.N,SDI*%
X277216179Y-96623654D02*
X277216179Y-97576346D01*
X277216179Y-97576346D02*
X276542525Y-98250000D01*
X249452525Y-68860000D02*
X277216179Y-96623654D01*
X276542525Y-98250000D02*
X267056179Y-98250000D01*
X267056179Y-98250000D02*
X265906179Y-97100000D01*
X173500000Y-68860000D02*
X249452525Y-68860000D01*
%TO.N,SCK*%
X279756179Y-97576346D02*
X278682525Y-98650000D01*
X265829833Y-98650000D02*
X264756179Y-97576346D01*
X278682525Y-98650000D02*
X265829833Y-98650000D01*
X264756179Y-97576346D02*
X264756179Y-93410000D01*
X264756179Y-93410000D02*
X268446179Y-97100000D01*
X173500000Y-66320000D02*
X249452525Y-66320000D01*
X249452525Y-66320000D02*
X279756179Y-96623654D01*
X279756179Y-96623654D02*
X279756179Y-97576346D01*
%TO.N,SDO*%
X280156179Y-96457969D02*
X280156179Y-98476346D01*
X272136179Y-99550000D02*
X270986179Y-100700000D01*
X280156179Y-98476346D02*
X279082525Y-99550000D01*
X173500000Y-61240000D02*
X244938210Y-61240000D01*
X244938210Y-61240000D02*
X280156179Y-96457969D01*
X279082525Y-99550000D02*
X272136179Y-99550000D01*
%TO.N,FN*%
X201146179Y-119800000D02*
X180206179Y-98860000D01*
X273526179Y-123590000D02*
X269736179Y-119800000D01*
X269736179Y-119800000D02*
X201146179Y-119800000D01*
%TO.N,X13*%
X428287500Y-74007601D02*
X433050000Y-78770101D01*
X428287500Y-66250000D02*
X428287500Y-74007601D01*
X437812500Y-56725000D02*
X428287500Y-66250000D01*
X433050000Y-78770101D02*
X433050000Y-85300000D01*
X437812500Y-47200000D02*
X437812500Y-56725000D01*
%TO.N,X12*%
X401112500Y-48600000D02*
X401112500Y-64850000D01*
X409237500Y-85046598D02*
X409237500Y-85300000D01*
X399712500Y-47200000D02*
X401112500Y-48600000D01*
X399712500Y-66250000D02*
X399712500Y-75521598D01*
X399712500Y-75521598D02*
X409237500Y-85046598D01*
X401112500Y-64850000D02*
X399712500Y-66250000D01*
X420636250Y-99080000D02*
X425906250Y-104350000D01*
X420636250Y-96698750D02*
X420636250Y-99080000D01*
X409237500Y-85300000D02*
X420636250Y-96698750D01*
%TO.N,X11*%
X382062500Y-48600000D02*
X382062500Y-64850000D01*
X410525902Y-114910000D02*
X405510000Y-114910000D01*
X390187500Y-93057601D02*
X394950000Y-97820101D01*
X390187500Y-77119899D02*
X380662500Y-67594899D01*
X390187500Y-85300000D02*
X390187500Y-77119899D01*
X380662500Y-67594899D02*
X380662500Y-66250000D01*
X418762500Y-123146598D02*
X410525902Y-114910000D01*
X418762500Y-123400000D02*
X418762500Y-123146598D01*
X380662500Y-47200000D02*
X382062500Y-48600000D01*
X405510000Y-114910000D02*
X394950000Y-104350000D01*
X390187500Y-85300000D02*
X390187500Y-93057601D01*
X394950000Y-97820101D02*
X394950000Y-104350000D01*
X382062500Y-64850000D02*
X380662500Y-66250000D01*
%TO.N,X10*%
X361612500Y-58069899D02*
X360212500Y-56669899D01*
X361612500Y-66250000D02*
X361612500Y-58069899D01*
X385425000Y-123146598D02*
X385425000Y-123400000D01*
X371137500Y-85300000D02*
X371137500Y-93057601D01*
X375900000Y-97820101D02*
X375900000Y-104350000D01*
X361612500Y-67594899D02*
X361612500Y-66250000D01*
X371137500Y-93057601D02*
X375900000Y-97820101D01*
X371137500Y-77119899D02*
X361612500Y-67594899D01*
X360212500Y-48600000D02*
X361612500Y-47200000D01*
X371137500Y-85300000D02*
X371137500Y-77119899D01*
X360212500Y-56669899D02*
X360212500Y-48600000D01*
X375900000Y-104350000D02*
X375900000Y-113621598D01*
X375900000Y-113621598D02*
X385425000Y-123146598D01*
%TO.N,X9*%
X342562500Y-66250000D02*
X342562500Y-58069899D01*
X366375000Y-123146598D02*
X366375000Y-123400000D01*
X342562500Y-67594899D02*
X342562500Y-66250000D01*
X352087500Y-85300000D02*
X352087500Y-77119899D01*
X420415902Y-124800000D02*
X367775000Y-124800000D01*
X341162500Y-56669899D02*
X341162500Y-48600000D01*
X356850000Y-97820101D02*
X356850000Y-104350000D01*
X352087500Y-77119899D02*
X342562500Y-67594899D01*
X437812500Y-142196598D02*
X420415902Y-124800000D01*
X341162500Y-48600000D02*
X342562500Y-47200000D01*
X356850000Y-113621598D02*
X366375000Y-123146598D01*
X367775000Y-124800000D02*
X366375000Y-123400000D01*
X342562500Y-58069899D02*
X341162500Y-56669899D01*
X437812500Y-142450000D02*
X437812500Y-142196598D01*
X352087500Y-93057601D02*
X356850000Y-97820101D01*
X356850000Y-104350000D02*
X356850000Y-113621598D01*
X352087500Y-85300000D02*
X352087500Y-93057601D01*
%TO.N,X8*%
X322112500Y-56669899D02*
X322112500Y-48600000D01*
X347325000Y-123146598D02*
X347325000Y-123400000D01*
X390642601Y-125200000D02*
X349125000Y-125200000D01*
X333037500Y-91407399D02*
X333037500Y-85300000D01*
X323512500Y-66250000D02*
X323512500Y-58069899D01*
X337800000Y-104350000D02*
X337800000Y-96169899D01*
X322112500Y-48600000D02*
X323512500Y-47200000D01*
X337800000Y-113621598D02*
X347325000Y-123146598D01*
X418762500Y-142450000D02*
X416562500Y-144650000D01*
X299595467Y-144650000D02*
X280885468Y-125940000D01*
X337800000Y-96169899D02*
X333037500Y-91407399D01*
X416562500Y-144650000D02*
X299595467Y-144650000D01*
X323512500Y-58069899D02*
X322112500Y-56669899D01*
X333037500Y-77119899D02*
X323512500Y-67594899D01*
X407892601Y-142450000D02*
X390642601Y-125200000D01*
X418762500Y-142450000D02*
X407892601Y-142450000D01*
X349125000Y-125200000D02*
X347325000Y-123400000D01*
X333037500Y-85300000D02*
X333037500Y-77119899D01*
X323512500Y-67594899D02*
X323512500Y-66250000D01*
X280885468Y-125940000D02*
X250476179Y-125940000D01*
X250476179Y-125940000D02*
X248126179Y-123590000D01*
X337800000Y-104350000D02*
X337800000Y-113621598D01*
%TO.N,X7*%
X299761153Y-144250000D02*
X281051154Y-125540000D01*
X388700000Y-142500000D02*
X398500000Y-142500000D01*
X305777500Y-64850000D02*
X304377500Y-66250000D01*
X281051154Y-125540000D02*
X252616179Y-125540000D01*
X398500000Y-142500000D02*
X398550000Y-142450000D01*
X318750000Y-113621598D02*
X328275000Y-123146598D01*
X333375000Y-128500000D02*
X374700000Y-128500000D01*
X399712500Y-142450000D02*
X397912500Y-144250000D01*
X252616179Y-125540000D02*
X250666179Y-123590000D01*
X304377500Y-67607399D02*
X304377500Y-66250000D01*
X313940000Y-77169899D02*
X304377500Y-67607399D01*
X318750000Y-104350000D02*
X318750000Y-113621598D01*
X318750000Y-97820101D02*
X318750000Y-104350000D01*
X374700000Y-128500000D02*
X388700000Y-142500000D01*
X313940000Y-85350000D02*
X313940000Y-77169899D01*
X328275000Y-123400000D02*
X333375000Y-128500000D01*
X305777500Y-48600000D02*
X305777500Y-64850000D01*
X328275000Y-123146598D02*
X328275000Y-123400000D01*
X304377500Y-47200000D02*
X305777500Y-48600000D01*
X398550000Y-142450000D02*
X399712500Y-142450000D01*
X313940000Y-85350000D02*
X313940000Y-93010101D01*
X397912500Y-144250000D02*
X299761153Y-144250000D01*
X313940000Y-93010101D02*
X318750000Y-97820101D01*
%TO.N,X6*%
X299926839Y-143850000D02*
X281216840Y-125140000D01*
X167700000Y-77119899D02*
X158100000Y-67519899D01*
X254756179Y-125140000D02*
X253206179Y-123590000D01*
X317160000Y-131420000D02*
X309140000Y-123400000D01*
X379262500Y-143850000D02*
X299926839Y-143850000D01*
X281216840Y-125140000D02*
X254756179Y-125140000D01*
X166300000Y-75719899D02*
X166300000Y-55400000D01*
X309140000Y-115219899D02*
X299615000Y-105694899D01*
X380662500Y-142450000D02*
X369650000Y-142450000D01*
X309140000Y-123400000D02*
X309140000Y-115219899D01*
X380662500Y-142450000D02*
X379262500Y-143850000D01*
X167700000Y-77119899D02*
X166300000Y-75719899D01*
X166300000Y-55400000D02*
X158100000Y-47200000D01*
X252056179Y-122440000D02*
X253206179Y-123590000D01*
X299615000Y-105694899D02*
X299615000Y-104350000D01*
X167700000Y-85300000D02*
X167700000Y-100600000D01*
X369650000Y-142450000D02*
X358620000Y-131420000D01*
X167700000Y-85300000D02*
X167700000Y-77119899D01*
X167700000Y-100600000D02*
X189540000Y-122440000D01*
X189540000Y-122440000D02*
X252056179Y-122440000D01*
X158100000Y-67519899D02*
X158100000Y-66250000D01*
X358620000Y-131420000D02*
X317160000Y-131420000D01*
%TO.N,X5*%
X140450000Y-64850000D02*
X139050000Y-66250000D01*
X148575000Y-93057601D02*
X153337500Y-97820101D01*
X361612500Y-142450000D02*
X299092525Y-142450000D01*
X254596179Y-128350000D02*
X167812500Y-128350000D01*
X255746179Y-127200000D02*
X254596179Y-128350000D01*
X299092525Y-142450000D02*
X281382525Y-124740000D01*
X148575000Y-77119899D02*
X139050000Y-67594899D01*
X256896179Y-124740000D02*
X255746179Y-123590000D01*
X281382525Y-124740000D02*
X256896179Y-124740000D01*
X139050000Y-67594899D02*
X139050000Y-66250000D01*
X140450000Y-48600000D02*
X140450000Y-64850000D01*
X148575000Y-85300000D02*
X148575000Y-77119899D01*
X153337500Y-105737500D02*
X153337500Y-104350000D01*
X162862500Y-115262500D02*
X153337500Y-105737500D01*
X153337500Y-97820101D02*
X153337500Y-104350000D01*
X139050000Y-47200000D02*
X140450000Y-48600000D01*
X162862500Y-123400000D02*
X162862500Y-115262500D01*
X148575000Y-85300000D02*
X148575000Y-93057601D01*
X167812500Y-128350000D02*
X162862500Y-123400000D01*
%TO.N,X4*%
X129525000Y-77119899D02*
X120000000Y-67594899D01*
X121400000Y-64850000D02*
X120000000Y-66250000D01*
X129525000Y-85300000D02*
X129525000Y-93057601D01*
X134287500Y-97820101D02*
X134287500Y-104350000D01*
X120000000Y-67594899D02*
X120000000Y-66250000D01*
X121400000Y-48600000D02*
X121400000Y-64850000D01*
X120000000Y-47200000D02*
X121400000Y-48600000D01*
X174768750Y-142450000D02*
X169498750Y-137180000D01*
X169498750Y-137180000D02*
X169498750Y-136489194D01*
X243036179Y-142450000D02*
X258286179Y-127200000D01*
X137359556Y-104350000D02*
X134287500Y-104350000D01*
X129525000Y-93057601D02*
X134287500Y-97820101D01*
X169498750Y-136489194D02*
X137359556Y-104350000D01*
X174768750Y-142450000D02*
X243036179Y-142450000D01*
X129525000Y-85300000D02*
X129525000Y-77119899D01*
X162862500Y-142450000D02*
X143812500Y-123400000D01*
X174768750Y-142450000D02*
X162862500Y-142450000D01*
%TO.N,X3*%
X124762500Y-130543750D02*
X112856250Y-142450000D01*
X173368750Y-143534744D02*
X173684006Y-143850000D01*
X243201865Y-142850000D02*
X243251864Y-142800000D01*
X173368750Y-142850000D02*
X173368750Y-143534744D01*
X124762500Y-123400000D02*
X124762500Y-130543750D01*
X124762500Y-123400000D02*
X124762500Y-115219899D01*
X245226179Y-142800000D02*
X260826179Y-127200000D01*
X175853494Y-143850000D02*
X176168750Y-143534744D01*
X102350000Y-48600000D02*
X102350000Y-64850000D01*
X162696815Y-142850000D02*
X173368750Y-142850000D01*
X124762500Y-115219899D02*
X115237500Y-105694899D01*
X110475000Y-85300000D02*
X110475000Y-77119899D01*
X162646814Y-142800000D02*
X162696815Y-142850000D01*
X113206250Y-142800000D02*
X162646814Y-142800000D01*
X110475000Y-77119899D02*
X100950000Y-67594899D01*
X112856250Y-142450000D02*
X113206250Y-142800000D01*
X173684006Y-143850000D02*
X175853494Y-143850000D01*
X243251864Y-142800000D02*
X245226179Y-142800000D01*
X176168750Y-143534744D02*
X176168750Y-142850000D01*
X100950000Y-47200000D02*
X102350000Y-48600000D01*
X110475000Y-85300000D02*
X110475000Y-93057601D01*
X110475000Y-93057601D02*
X115237500Y-97820101D01*
X115237500Y-105694899D02*
X115237500Y-104350000D01*
X100950000Y-67594899D02*
X100950000Y-66250000D01*
X102350000Y-64850000D02*
X100950000Y-66250000D01*
X115237500Y-97820101D02*
X115237500Y-104350000D01*
X176168750Y-142850000D02*
X243201865Y-142850000D01*
%TO.N,X2*%
X91425000Y-93057601D02*
X96187500Y-97820101D01*
X105712500Y-123400000D02*
X105712500Y-125781250D01*
X162481130Y-143200000D02*
X162531133Y-143250002D01*
X243036181Y-143250000D02*
X243036183Y-143250002D01*
X243367550Y-143250000D02*
X243367555Y-143249998D01*
X111771506Y-143850000D02*
X113940994Y-143850000D01*
X111456250Y-143200000D02*
X111456250Y-143534744D01*
X243036183Y-143250002D02*
X243367550Y-143250000D01*
X83300000Y-64850000D02*
X81900000Y-66250000D01*
X91425000Y-85300000D02*
X91425000Y-93057601D01*
X113940994Y-143850000D02*
X114256250Y-143534744D01*
X81900000Y-67594899D02*
X81900000Y-66250000D01*
X105712500Y-125781250D02*
X89043750Y-142450000D01*
X105712500Y-123400000D02*
X105712500Y-115219899D01*
X96187500Y-105694899D02*
X96187500Y-104350000D01*
X89043750Y-142450000D02*
X89793750Y-143200000D01*
X172968750Y-143700430D02*
X173518321Y-144250000D01*
X83300000Y-48600000D02*
X83300000Y-64850000D01*
X111456250Y-143534744D02*
X111771506Y-143850000D01*
X81900000Y-47200000D02*
X83300000Y-48600000D01*
X114256250Y-143534744D02*
X114256250Y-143200000D01*
X176568750Y-143700429D02*
X176568750Y-143250000D01*
X172968750Y-143250000D02*
X172968750Y-143700430D01*
X114256250Y-143200000D02*
X162481130Y-143200000D01*
X162531133Y-143250002D02*
X162696819Y-143250000D01*
X243417552Y-143200000D02*
X247366179Y-143200000D01*
X105712500Y-115219899D02*
X96187500Y-105694899D01*
X96187500Y-97820101D02*
X96187500Y-104350000D01*
X176019180Y-144250000D02*
X176568750Y-143700429D01*
X89793750Y-143200000D02*
X111456250Y-143200000D01*
X247366179Y-143200000D02*
X263366179Y-127200000D01*
X173518321Y-144250000D02*
X176019180Y-144250000D01*
X176568750Y-143250000D02*
X243036181Y-143250000D01*
X243367555Y-143249998D02*
X243417552Y-143200000D01*
X91425000Y-77119899D02*
X81900000Y-67594899D01*
X91425000Y-85300000D02*
X91425000Y-77119899D01*
X162696819Y-143250000D02*
X172968750Y-143250000D01*
%TO.N,X1*%
X176184866Y-144649999D02*
X176968750Y-143866114D01*
X243583240Y-143600000D02*
X249506179Y-143600000D01*
X62850000Y-67594899D02*
X62850000Y-66250000D01*
X162315446Y-143600000D02*
X162365453Y-143650004D01*
X114656250Y-143700429D02*
X114656250Y-143600000D01*
X62850000Y-47200000D02*
X64250000Y-48600000D01*
X64250000Y-48600000D02*
X64250000Y-64850000D01*
X111056250Y-143600000D02*
X111056250Y-143700430D01*
X176968749Y-143650000D02*
X242870495Y-143650000D01*
X243533245Y-143649996D02*
X243583240Y-143600000D01*
X68762500Y-143600000D02*
X87709006Y-143600000D01*
X72375000Y-93057601D02*
X77137500Y-97820101D01*
X86662500Y-115219899D02*
X77137500Y-105694899D01*
X72375000Y-77119899D02*
X62850000Y-67594899D01*
X249506179Y-143600000D02*
X265906179Y-127200000D01*
X67612500Y-142450000D02*
X68762500Y-143600000D01*
X176968750Y-143866114D02*
X176968749Y-143650000D01*
X242870495Y-143650000D02*
X242870500Y-143650003D01*
X114106680Y-144250000D02*
X114656250Y-143700429D01*
X111056250Y-143700430D02*
X111605821Y-144250000D01*
X111605821Y-144250000D02*
X114106680Y-144250000D01*
X87959006Y-143850000D02*
X90128494Y-143850000D01*
X162365453Y-143650004D02*
X162696824Y-143650000D01*
X72375000Y-85300000D02*
X72375000Y-77119899D01*
X173352636Y-144650000D02*
X176184866Y-144649999D01*
X87709006Y-143600000D02*
X87959006Y-143850000D01*
X77137500Y-105694899D02*
X77137500Y-104350000D01*
X77137500Y-97820101D02*
X77137500Y-104350000D01*
X172568751Y-143866116D02*
X173352636Y-144650000D01*
X162696824Y-143650000D02*
X172568750Y-143650000D01*
X86662500Y-123400000D02*
X86662500Y-115219899D01*
X64250000Y-64850000D02*
X62850000Y-66250000D01*
X72375000Y-85300000D02*
X72375000Y-93057601D01*
X242870500Y-143650003D02*
X243533237Y-143649999D01*
X172568750Y-143650000D02*
X172568751Y-143866116D01*
X90128494Y-143850000D02*
X90378494Y-143600000D01*
X86662500Y-123400000D02*
X67612500Y-142450000D01*
X90378494Y-143600000D02*
X111056250Y-143600000D01*
X114656250Y-143600000D02*
X162315446Y-143600000D01*
X243533237Y-143649999D02*
X243533245Y-143649996D01*
%TO.N,X0*%
X87543320Y-144000000D02*
X87793321Y-144250000D01*
X90294180Y-144250000D02*
X90544180Y-144000000D01*
X243036186Y-144050005D02*
X243036189Y-144050002D01*
X162685787Y-144050000D02*
X172186949Y-144050000D01*
X176350552Y-145049999D02*
X177350548Y-144050000D01*
X55706250Y-123400000D02*
X55706250Y-115219899D01*
X43800000Y-47200000D02*
X45200000Y-48600000D01*
X48562500Y-85300000D02*
X48562500Y-77119899D01*
X48562500Y-77119899D02*
X43800000Y-72357399D01*
X177350548Y-144050000D02*
X242704809Y-144050000D01*
X43800000Y-72357399D02*
X43800000Y-66250000D01*
X243698935Y-144049994D02*
X243748928Y-144000000D01*
X173186951Y-145050000D02*
X176350552Y-145049999D01*
X162149766Y-144000000D02*
X162199773Y-144050006D01*
X47731250Y-144000000D02*
X87543320Y-144000000D01*
X251646179Y-144000000D02*
X268446179Y-127200000D01*
X48562500Y-98261694D02*
X50943750Y-100642944D01*
X50943750Y-110457399D02*
X50943750Y-104350000D01*
X55706250Y-123400000D02*
X55706250Y-132925000D01*
X45200000Y-64850000D02*
X43800000Y-66250000D01*
X162199780Y-144050008D02*
X162685787Y-144050000D01*
X87793321Y-144250000D02*
X90294180Y-144250000D01*
X162199773Y-144050006D02*
X162199780Y-144050008D01*
X242704814Y-144050005D02*
X243036186Y-144050005D01*
X55706250Y-132925000D02*
X46181250Y-142450000D01*
X55706250Y-115219899D02*
X50943750Y-110457399D01*
X114922364Y-144000000D02*
X162149766Y-144000000D01*
X243036189Y-144050002D02*
X243698924Y-144049998D01*
X46181250Y-142450000D02*
X47731250Y-144000000D01*
X111440136Y-144650000D02*
X114272366Y-144649999D01*
X243748928Y-144000000D02*
X251646179Y-144000000D01*
X50943750Y-100642944D02*
X50943750Y-104350000D01*
X110790135Y-144000000D02*
X111440136Y-144650000D01*
X172186949Y-144050000D02*
X173186951Y-145050000D01*
X242704809Y-144050000D02*
X242704814Y-144050005D01*
X243698928Y-144049994D02*
X243698935Y-144049994D01*
X243698924Y-144049998D02*
X243698928Y-144049994D01*
X114272366Y-144649999D02*
X114922364Y-144000000D01*
X90544180Y-144000000D02*
X110790135Y-144000000D01*
X48562500Y-85300000D02*
X48562500Y-98261694D01*
X45200000Y-48600000D02*
X45200000Y-64850000D01*
%TO.N,Y4*%
X261196179Y-113770000D02*
X248126179Y-100700000D01*
X304060000Y-113770000D02*
X261196179Y-113770000D01*
%TO.N,Y5*%
X290028211Y-126981688D02*
X301839899Y-115170000D01*
X262336179Y-112370000D02*
X250666179Y-100700000D01*
X304639899Y-112370000D02*
X262336179Y-112370000D01*
X290028211Y-132820000D02*
X290028211Y-126981688D01*
X305460000Y-114349899D02*
X305460000Y-113190101D01*
X356532500Y-132820000D02*
X355432501Y-133919999D01*
X305460000Y-113190101D02*
X304639899Y-112370000D01*
X291128210Y-133919999D02*
X290028211Y-132820000D01*
X301839899Y-115170000D02*
X304639899Y-115170000D01*
X304639899Y-115170000D02*
X305460000Y-114349899D01*
X355432501Y-133919999D02*
X291128210Y-133919999D01*
%TO.N,NUM*%
X180703236Y-97660000D02*
X172536179Y-97660000D01*
X172536179Y-97660000D02*
X171336179Y-98860000D01*
X202443236Y-119400000D02*
X180703236Y-97660000D01*
X276066179Y-123590000D02*
X271876179Y-119400000D01*
X271876179Y-119400000D02*
X202443236Y-119400000D01*
%TD*%
M02*
