%TF.GenerationSoftware,KiCad,Pcbnew,10.0.1*%
%TF.CreationDate,2026-06-03T21:17:05+08:00*%
%TF.ProjectId,BT_Keyboard,42545f4b-6579-4626-9f61-72642e6b6963,rev?*%
%TF.SameCoordinates,Original*%
%TF.FileFunction,Soldermask,Bot*%
%TF.FilePolarity,Negative*%
%FSLAX46Y46*%
G04 Gerber Fmt 4.6, Leading zero omitted, Abs format (unit mm)*
G04 Created by KiCad (PCBNEW 10.0.1) date 2026-06-03 21:17:05*
%MOMM*%
%LPD*%
G01*
G04 APERTURE LIST*
G04 Aperture macros list*
%AMRoundRect*
0 Rectangle with rounded corners*
0 $1 Rounding radius*
0 $2 $3 $4 $5 $6 $7 $8 $9 X,Y pos of 4 corners*
0 Add a 4 corners polygon primitive as box body*
4,1,4,$2,$3,$4,$5,$6,$7,$8,$9,$2,$3,0*
0 Add four circle primitives for the rounded corners*
1,1,$1+$1,$2,$3*
1,1,$1+$1,$4,$5*
1,1,$1+$1,$6,$7*
1,1,$1+$1,$8,$9*
0 Add four rect primitives between the rounded corners*
20,1,$1+$1,$2,$3,$4,$5,0*
20,1,$1+$1,$4,$5,$6,$7,0*
20,1,$1+$1,$6,$7,$8,$9,0*
20,1,$1+$1,$8,$9,$2,$3,0*%
G04 Aperture macros list end*
%ADD10RoundRect,0.250000X-1.025000X-1.000000X1.025000X-1.000000X1.025000X1.000000X-1.025000X1.000000X0*%
%ADD11C,1.750000*%
%ADD12C,4.000000*%
%ADD13C,3.600000*%
%ADD14R,1.700000X1.700000*%
%ADD15C,1.700000*%
%ADD16R,1.800000X1.800000*%
%ADD17C,1.800000*%
%ADD18RoundRect,0.249999X0.850001X-0.850001X0.850001X0.850001X-0.850001X0.850001X-0.850001X-0.850001X0*%
%ADD19C,2.200000*%
G04 APERTURE END LIST*
D10*
%TO.C,SW67*%
X403510000Y-116250000D03*
D11*
X405515000Y-118790000D03*
D12*
X410595000Y-118790000D03*
D11*
X415675000Y-118790000D03*
D10*
X416437000Y-113710000D03*
D13*
X406785000Y-116250000D03*
X413135000Y-113710000D03*
%TD*%
D10*
%TO.C,SW74*%
X365410000Y-135300000D03*
D11*
X367415000Y-137840000D03*
D12*
X372495000Y-137840000D03*
D11*
X377575000Y-137840000D03*
D10*
X378337000Y-132760000D03*
D13*
X368685000Y-135300000D03*
X375035000Y-132760000D03*
%TD*%
D10*
%TO.C,SW48*%
X138085000Y-97200000D03*
D11*
X140090000Y-99740000D03*
D12*
X145170000Y-99740000D03*
D11*
X150250000Y-99740000D03*
D10*
X151012000Y-94660000D03*
D13*
X141360000Y-97200000D03*
X147710000Y-94660000D03*
%TD*%
D10*
%TO.C,SW53*%
X360647500Y-97200000D03*
D11*
X362652500Y-99740000D03*
D12*
X367732500Y-99740000D03*
D11*
X372812500Y-99740000D03*
D10*
X373574500Y-94660000D03*
D13*
X363922500Y-97200000D03*
X370272500Y-94660000D03*
%TD*%
D10*
%TO.C,SW60*%
X128560000Y-116250000D03*
D11*
X130565000Y-118790000D03*
D12*
X135645000Y-118790000D03*
D11*
X140725000Y-118790000D03*
D10*
X141487000Y-113710000D03*
D13*
X131835000Y-116250000D03*
X138185000Y-113710000D03*
%TD*%
D10*
%TO.C,SW7*%
X142847500Y-40050000D03*
D11*
X144852500Y-42590000D03*
D12*
X149932500Y-42590000D03*
D11*
X155012500Y-42590000D03*
D10*
X155774500Y-37510000D03*
D13*
X146122500Y-40050000D03*
X152472500Y-37510000D03*
%TD*%
D10*
%TO.C,SW54*%
X379697500Y-97200000D03*
D11*
X381702500Y-99740000D03*
D12*
X386782500Y-99740000D03*
D11*
X391862500Y-99740000D03*
D10*
X392624500Y-94660000D03*
D13*
X382972500Y-97200000D03*
X389322500Y-94660000D03*
%TD*%
D10*
%TO.C,SW35*%
X152447500Y-78150000D03*
D11*
X154452500Y-80690000D03*
D12*
X159532500Y-80690000D03*
D11*
X164612500Y-80690000D03*
D10*
X165374500Y-75610000D03*
D13*
X155722500Y-78150000D03*
X162072500Y-75610000D03*
%TD*%
D10*
%TO.C,SW62*%
X293887500Y-116250000D03*
D11*
X295892500Y-118790000D03*
D12*
X300972500Y-118790000D03*
D11*
X306052500Y-118790000D03*
D10*
X306814500Y-113710000D03*
D13*
X297162500Y-116250000D03*
X303512500Y-113710000D03*
%TD*%
D10*
%TO.C,SW18*%
X85697500Y-59100000D03*
D11*
X87702500Y-61640000D03*
D12*
X92782500Y-61640000D03*
D11*
X97862500Y-61640000D03*
D10*
X98624500Y-56560000D03*
D13*
X88972500Y-59100000D03*
X95322500Y-56560000D03*
%TD*%
D10*
%TO.C,SW70*%
X73791250Y-135300000D03*
D11*
X75796250Y-137840000D03*
D12*
X80876250Y-137840000D03*
D11*
X85956250Y-137840000D03*
D10*
X86718250Y-132760000D03*
D13*
X77066250Y-135300000D03*
X83416250Y-132760000D03*
%TD*%
D10*
%TO.C,SW16*%
X47597500Y-59100000D03*
D11*
X49602500Y-61640000D03*
D12*
X54682500Y-61640000D03*
D11*
X59762500Y-61640000D03*
D10*
X60524500Y-56560000D03*
D13*
X50872500Y-59100000D03*
X57222500Y-56560000D03*
%TD*%
D10*
%TO.C,SW26*%
X365410000Y-59100000D03*
D11*
X367415000Y-61640000D03*
D12*
X372495000Y-61640000D03*
D11*
X377575000Y-61640000D03*
D10*
X378337000Y-56560000D03*
D13*
X368685000Y-59100000D03*
X375035000Y-56560000D03*
%TD*%
D10*
%TO.C,SW5*%
X104747500Y-40050000D03*
D11*
X106752500Y-42590000D03*
D12*
X111832500Y-42590000D03*
D11*
X116912500Y-42590000D03*
D10*
X117674500Y-37510000D03*
D13*
X108022500Y-40050000D03*
X114372500Y-37510000D03*
%TD*%
D10*
%TO.C,SW69*%
X52360000Y-135300000D03*
D11*
X54365000Y-137840000D03*
D12*
X59445000Y-137840000D03*
D11*
X64525000Y-137840000D03*
D10*
X65287000Y-132760000D03*
D13*
X55635000Y-135300000D03*
X61985000Y-132760000D03*
%TD*%
D10*
%TO.C,SW36*%
X298687500Y-78200000D03*
D11*
X300692500Y-80740000D03*
D12*
X305772500Y-80740000D03*
D11*
X310852500Y-80740000D03*
D10*
X311614500Y-75660000D03*
D13*
X301962500Y-78200000D03*
X308312500Y-75660000D03*
%TD*%
D14*
%TO.C,J7*%
X191970000Y-97300000D03*
D15*
X189430000Y-97300000D03*
%TD*%
D10*
%TO.C,SW65*%
X351122500Y-116250000D03*
D11*
X353127500Y-118790000D03*
D12*
X358207500Y-118790000D03*
D11*
X363287500Y-118790000D03*
D10*
X364049500Y-113710000D03*
D13*
X354397500Y-116250000D03*
X360747500Y-113710000D03*
%TD*%
D14*
%TO.C,J3*%
X173500000Y-81560000D03*
D15*
X173500000Y-79020000D03*
X173500000Y-76480000D03*
X173500000Y-73940000D03*
X173500000Y-71400000D03*
X173500000Y-68860000D03*
X173500000Y-66320000D03*
X173500000Y-63780000D03*
X173500000Y-61240000D03*
X173500000Y-58700000D03*
X173500000Y-56160000D03*
X173500000Y-53620000D03*
X173500000Y-51080000D03*
X173500000Y-48540000D03*
%TD*%
D10*
%TO.C,SW10*%
X327310000Y-40050000D03*
D11*
X329315000Y-42590000D03*
D12*
X334395000Y-42590000D03*
D11*
X339475000Y-42590000D03*
D10*
X340237000Y-37510000D03*
D13*
X330585000Y-40050000D03*
X336935000Y-37510000D03*
%TD*%
D16*
%TO.C,D81*%
X180206179Y-101400000D03*
D17*
X180206179Y-98860000D03*
%TD*%
D10*
%TO.C,SW58*%
X90460000Y-116250000D03*
D11*
X92465000Y-118790000D03*
D12*
X97545000Y-118790000D03*
D11*
X102625000Y-118790000D03*
D10*
X103387000Y-113710000D03*
D13*
X93735000Y-116250000D03*
X100085000Y-113710000D03*
%TD*%
D14*
%TO.C,J1*%
X225266179Y-123590000D03*
D15*
X227806179Y-123590000D03*
X230346179Y-123590000D03*
X232886179Y-123590000D03*
X235426179Y-123590000D03*
X237966179Y-123590000D03*
X240506179Y-123590000D03*
X243046179Y-123590000D03*
X245586179Y-123590000D03*
X248126179Y-123590000D03*
X250666179Y-123590000D03*
X253206179Y-123590000D03*
X255746179Y-123590000D03*
X258286179Y-123590000D03*
X260826179Y-123590000D03*
X263366179Y-123590000D03*
X265906179Y-123590000D03*
X268446179Y-123590000D03*
X270986179Y-123590000D03*
X273526179Y-123590000D03*
X276066179Y-123590000D03*
X278606179Y-123590000D03*
%TD*%
D10*
%TO.C,SW57*%
X71410000Y-116250000D03*
D11*
X73415000Y-118790000D03*
D12*
X78495000Y-118790000D03*
D11*
X83575000Y-118790000D03*
D10*
X84337000Y-113710000D03*
D13*
X74685000Y-116250000D03*
X81035000Y-113710000D03*
%TD*%
D10*
%TO.C,SW49*%
X284362500Y-97200000D03*
D11*
X286367500Y-99740000D03*
D12*
X291447500Y-99740000D03*
D11*
X296527500Y-99740000D03*
D10*
X297289500Y-94660000D03*
D13*
X287637500Y-97200000D03*
X293987500Y-94660000D03*
%TD*%
D10*
%TO.C,SW38*%
X336835000Y-78150000D03*
D11*
X338840000Y-80690000D03*
D12*
X343920000Y-80690000D03*
D11*
X349000000Y-80690000D03*
D10*
X349762000Y-75610000D03*
D13*
X340110000Y-78150000D03*
X346460000Y-75610000D03*
%TD*%
D10*
%TO.C,SW8*%
X289125000Y-40050000D03*
D11*
X291130000Y-42590000D03*
D12*
X296210000Y-42590000D03*
D11*
X301290000Y-42590000D03*
D10*
X302052000Y-37510000D03*
D13*
X292400000Y-40050000D03*
X298750000Y-37510000D03*
%TD*%
D10*
%TO.C,SW52*%
X341597500Y-97200000D03*
D11*
X343602500Y-99740000D03*
D12*
X348682500Y-99740000D03*
D11*
X353762500Y-99740000D03*
D10*
X354524500Y-94660000D03*
D13*
X344872500Y-97200000D03*
X351222500Y-94660000D03*
%TD*%
D14*
%TO.C,J2*%
X225266179Y-97100000D03*
D15*
X227806179Y-97100000D03*
X230346179Y-97100000D03*
X232886179Y-97100000D03*
X235426179Y-97100000D03*
X237966179Y-97100000D03*
X240506179Y-97100000D03*
X243046179Y-97100000D03*
X245586179Y-97100000D03*
X248126179Y-97100000D03*
X250666179Y-97100000D03*
X253206179Y-97100000D03*
X255746179Y-97100000D03*
X258286179Y-97100000D03*
X260826179Y-97100000D03*
X263366179Y-97100000D03*
X265906179Y-97100000D03*
X268446179Y-97100000D03*
X270986179Y-97100000D03*
X273526179Y-97100000D03*
X276066179Y-97100000D03*
X278606179Y-97100000D03*
%TD*%
D10*
%TO.C,SW6*%
X123797500Y-40050000D03*
D11*
X125802500Y-42590000D03*
D12*
X130882500Y-42590000D03*
D11*
X135962500Y-42590000D03*
D10*
X136724500Y-37510000D03*
D13*
X127072500Y-40050000D03*
X133422500Y-37510000D03*
%TD*%
D10*
%TO.C,SW61*%
X147610000Y-116250000D03*
D11*
X149615000Y-118790000D03*
D12*
X154695000Y-118790000D03*
D11*
X159775000Y-118790000D03*
D10*
X160537000Y-113710000D03*
D13*
X150885000Y-116250000D03*
X157235000Y-113710000D03*
%TD*%
D10*
%TO.C,SW77*%
X422560000Y-135300000D03*
D11*
X424565000Y-137840000D03*
D12*
X429645000Y-137840000D03*
D11*
X434725000Y-137840000D03*
D10*
X435487000Y-132760000D03*
D13*
X425835000Y-135300000D03*
X432185000Y-132760000D03*
%TD*%
D10*
%TO.C,SW27*%
X384460000Y-59100000D03*
D11*
X386465000Y-61640000D03*
D12*
X391545000Y-61640000D03*
D11*
X396625000Y-61640000D03*
D10*
X397387000Y-56560000D03*
D13*
X387735000Y-59100000D03*
X394085000Y-56560000D03*
%TD*%
D10*
%TO.C,SW19*%
X104747500Y-59100000D03*
D11*
X106752500Y-61640000D03*
D12*
X111832500Y-61640000D03*
D11*
X116912500Y-61640000D03*
D10*
X117674500Y-56560000D03*
D13*
X108022500Y-59100000D03*
X114372500Y-56560000D03*
%TD*%
D10*
%TO.C,SW22*%
X289125000Y-59100000D03*
D11*
X291130000Y-61640000D03*
D12*
X296210000Y-61640000D03*
D11*
X301290000Y-61640000D03*
D10*
X302052000Y-56560000D03*
D13*
X292400000Y-59100000D03*
X298750000Y-56560000D03*
%TD*%
D10*
%TO.C,SW59*%
X109510000Y-116250000D03*
D11*
X111515000Y-118790000D03*
D12*
X116595000Y-118790000D03*
D11*
X121675000Y-118790000D03*
D10*
X122437000Y-113710000D03*
D13*
X112785000Y-116250000D03*
X119135000Y-113710000D03*
%TD*%
D10*
%TO.C,SW2*%
X47597500Y-40050000D03*
D11*
X49602500Y-42590000D03*
D12*
X54682500Y-42590000D03*
D11*
X59762500Y-42590000D03*
D10*
X60524500Y-37510000D03*
D13*
X50872500Y-40050000D03*
X57222500Y-37510000D03*
%TD*%
D10*
%TO.C,SW11*%
X346360000Y-40050000D03*
D11*
X348365000Y-42590000D03*
D12*
X353445000Y-42590000D03*
D11*
X358525000Y-42590000D03*
D10*
X359287000Y-37510000D03*
D13*
X349635000Y-40050000D03*
X355985000Y-37510000D03*
%TD*%
D10*
%TO.C,SW28*%
X413035000Y-59100000D03*
D11*
X415040000Y-61640000D03*
D12*
X420120000Y-61640000D03*
D11*
X425200000Y-61640000D03*
D10*
X425962000Y-56560000D03*
D13*
X416310000Y-59100000D03*
X422660000Y-56560000D03*
%TD*%
D10*
%TO.C,SW25*%
X346360000Y-59100000D03*
D11*
X348365000Y-61640000D03*
D12*
X353445000Y-61640000D03*
D11*
X358525000Y-61640000D03*
D10*
X359287000Y-56560000D03*
D13*
X349635000Y-59100000D03*
X355985000Y-56560000D03*
%TD*%
D16*
%TO.C,D80*%
X171336179Y-101400000D03*
D17*
X171336179Y-98860000D03*
%TD*%
D10*
%TO.C,SW13*%
X384460000Y-40050000D03*
D11*
X386465000Y-42590000D03*
D12*
X391545000Y-42590000D03*
D11*
X396625000Y-42590000D03*
D10*
X397387000Y-37510000D03*
D13*
X387735000Y-40050000D03*
X394085000Y-37510000D03*
%TD*%
D10*
%TO.C,SW40*%
X374935000Y-78150000D03*
D11*
X376940000Y-80690000D03*
D12*
X382020000Y-80690000D03*
D11*
X387100000Y-80690000D03*
D10*
X387862000Y-75610000D03*
D13*
X378210000Y-78150000D03*
X384560000Y-75610000D03*
%TD*%
D10*
%TO.C,SW71*%
X97603750Y-135300000D03*
D11*
X99608750Y-137840000D03*
D12*
X104688750Y-137840000D03*
D11*
X109768750Y-137840000D03*
D10*
X110530750Y-132760000D03*
D13*
X100878750Y-135300000D03*
X107228750Y-132760000D03*
%TD*%
D10*
%TO.C,SW43*%
X35691250Y-97200000D03*
D11*
X37696250Y-99740000D03*
D12*
X42776250Y-99740000D03*
D11*
X47856250Y-99740000D03*
D10*
X48618250Y-94660000D03*
D13*
X38966250Y-97200000D03*
X45316250Y-94660000D03*
%TD*%
D10*
%TO.C,SW21*%
X142847500Y-59100000D03*
D11*
X144852500Y-61640000D03*
D12*
X149932500Y-61640000D03*
D11*
X155012500Y-61640000D03*
D10*
X155774500Y-56560000D03*
D13*
X146122500Y-59100000D03*
X152472500Y-56560000D03*
%TD*%
D10*
%TO.C,SW12*%
X365410000Y-40050000D03*
D11*
X367415000Y-42590000D03*
D12*
X372495000Y-42590000D03*
D11*
X377575000Y-42590000D03*
D10*
X378337000Y-37510000D03*
D13*
X368685000Y-40050000D03*
X375035000Y-37510000D03*
%TD*%
D10*
%TO.C,SW39*%
X355885000Y-78150000D03*
D11*
X357890000Y-80690000D03*
D12*
X362970000Y-80690000D03*
D11*
X368050000Y-80690000D03*
D10*
X368812000Y-75610000D03*
D13*
X359160000Y-78150000D03*
X365510000Y-75610000D03*
%TD*%
D10*
%TO.C,SW56*%
X40453750Y-116250000D03*
D11*
X42458750Y-118790000D03*
D12*
X47538750Y-118790000D03*
D11*
X52618750Y-118790000D03*
D10*
X53380750Y-113710000D03*
D13*
X43728750Y-116250000D03*
X50078750Y-113710000D03*
%TD*%
D10*
%TO.C,SW30*%
X57122500Y-78150000D03*
D11*
X59127500Y-80690000D03*
D12*
X64207500Y-80690000D03*
D11*
X69287500Y-80690000D03*
D10*
X70049500Y-75610000D03*
D13*
X60397500Y-78150000D03*
X66747500Y-75610000D03*
%TD*%
D14*
%TO.C,J5*%
X225266179Y-127200000D03*
D15*
X227806179Y-127200000D03*
X230346179Y-127200000D03*
X232886179Y-127200000D03*
X235426179Y-127200000D03*
X237966179Y-127200000D03*
X240506179Y-127200000D03*
X243046179Y-127200000D03*
X245586179Y-127200000D03*
X248126179Y-127200000D03*
X250666179Y-127200000D03*
X253206179Y-127200000D03*
X255746179Y-127200000D03*
X258286179Y-127200000D03*
X260826179Y-127200000D03*
X263366179Y-127200000D03*
X265906179Y-127200000D03*
X268446179Y-127200000D03*
X270986179Y-127200000D03*
X273526179Y-127200000D03*
X276066179Y-127200000D03*
X278606179Y-127200000D03*
%TD*%
D14*
%TO.C,J4*%
X225266179Y-100700000D03*
D15*
X227806179Y-100700000D03*
X230346179Y-100700000D03*
X232886179Y-100700000D03*
X235426179Y-100700000D03*
X237966179Y-100700000D03*
X240506179Y-100700000D03*
X243046179Y-100700000D03*
X245586179Y-100700000D03*
X248126179Y-100700000D03*
X250666179Y-100700000D03*
X253206179Y-100700000D03*
X255746179Y-100700000D03*
X258286179Y-100700000D03*
X260826179Y-100700000D03*
X263366179Y-100700000D03*
X265906179Y-100700000D03*
X268446179Y-100700000D03*
X270986179Y-100700000D03*
X273526179Y-100700000D03*
X276066179Y-100700000D03*
X278606179Y-100700000D03*
%TD*%
D10*
%TO.C,SW73*%
X346360000Y-135300000D03*
D11*
X348365000Y-137840000D03*
D12*
X353445000Y-137840000D03*
D11*
X358525000Y-137840000D03*
D10*
X359287000Y-132760000D03*
D13*
X349635000Y-135300000D03*
X355985000Y-132760000D03*
%TD*%
D10*
%TO.C,SW32*%
X95222500Y-78150000D03*
D11*
X97227500Y-80690000D03*
D12*
X102307500Y-80690000D03*
D11*
X107387500Y-80690000D03*
D10*
X108149500Y-75610000D03*
D13*
X98497500Y-78150000D03*
X104847500Y-75610000D03*
%TD*%
D10*
%TO.C,SW41*%
X393985000Y-78150000D03*
D11*
X395990000Y-80690000D03*
D12*
X401070000Y-80690000D03*
D11*
X406150000Y-80690000D03*
D10*
X406912000Y-75610000D03*
D13*
X397260000Y-78150000D03*
X403610000Y-75610000D03*
%TD*%
D10*
%TO.C,SW3*%
X66647500Y-40050000D03*
D11*
X68652500Y-42590000D03*
D12*
X73732500Y-42590000D03*
D11*
X78812500Y-42590000D03*
D10*
X79574500Y-37510000D03*
D13*
X69922500Y-40050000D03*
X76272500Y-37510000D03*
%TD*%
D10*
%TO.C,SW75*%
X384460000Y-135300000D03*
D11*
X386465000Y-137840000D03*
D12*
X391545000Y-137840000D03*
D11*
X396625000Y-137840000D03*
D10*
X397387000Y-132760000D03*
D13*
X387735000Y-135300000D03*
X394085000Y-132760000D03*
%TD*%
D10*
%TO.C,SW20*%
X123797500Y-59100000D03*
D11*
X125802500Y-61640000D03*
D12*
X130882500Y-61640000D03*
D11*
X135962500Y-61640000D03*
D10*
X136724500Y-56560000D03*
D13*
X127072500Y-59100000D03*
X133422500Y-56560000D03*
%TD*%
D10*
%TO.C,SW29*%
X33310000Y-78150000D03*
D11*
X35315000Y-80690000D03*
D12*
X40395000Y-80690000D03*
D11*
X45475000Y-80690000D03*
D10*
X46237000Y-75610000D03*
D13*
X36585000Y-78150000D03*
X42935000Y-75610000D03*
%TD*%
D10*
%TO.C,SW68*%
X30928750Y-135300000D03*
D11*
X32933750Y-137840000D03*
D12*
X38013750Y-137840000D03*
D11*
X43093750Y-137840000D03*
D10*
X43855750Y-132760000D03*
D13*
X34203750Y-135300000D03*
X40553750Y-132760000D03*
%TD*%
D14*
%TO.C,J8*%
X181300000Y-108140000D03*
D15*
X181300000Y-105600000D03*
%TD*%
D10*
%TO.C,SW72*%
X159615000Y-135260000D03*
D11*
X161620000Y-137800000D03*
D12*
X166700000Y-137800000D03*
D11*
X171780000Y-137800000D03*
D10*
X172542000Y-132720000D03*
D13*
X162890000Y-135260000D03*
X169240000Y-132720000D03*
%TD*%
D10*
%TO.C,SW1*%
X28547500Y-40050000D03*
D11*
X30552500Y-42590000D03*
D12*
X35632500Y-42590000D03*
D11*
X40712500Y-42590000D03*
D10*
X41474500Y-37510000D03*
D13*
X31822500Y-40050000D03*
X38172500Y-37510000D03*
%TD*%
D10*
%TO.C,SW44*%
X61885000Y-97200000D03*
D11*
X63890000Y-99740000D03*
D12*
X68970000Y-99740000D03*
D11*
X74050000Y-99740000D03*
D10*
X74812000Y-94660000D03*
D13*
X65160000Y-97200000D03*
X71510000Y-94660000D03*
%TD*%
D10*
%TO.C,SW15*%
X28547500Y-59100000D03*
D11*
X30552500Y-61640000D03*
D12*
X35632500Y-61640000D03*
D11*
X40712500Y-61640000D03*
D10*
X41474500Y-56560000D03*
D13*
X31822500Y-59100000D03*
X38172500Y-56560000D03*
%TD*%
D10*
%TO.C,SW31*%
X76172500Y-78150000D03*
D11*
X78177500Y-80690000D03*
D12*
X83257500Y-80690000D03*
D11*
X88337500Y-80690000D03*
D10*
X89099500Y-75610000D03*
D13*
X79447500Y-78150000D03*
X85797500Y-75610000D03*
%TD*%
D10*
%TO.C,SW47*%
X119035000Y-97200000D03*
D11*
X121040000Y-99740000D03*
D12*
X126120000Y-99740000D03*
D11*
X131200000Y-99740000D03*
D10*
X131962000Y-94660000D03*
D13*
X122310000Y-97200000D03*
X128660000Y-94660000D03*
%TD*%
D10*
%TO.C,SW14*%
X422560000Y-40050000D03*
D11*
X424565000Y-42590000D03*
D12*
X429645000Y-42590000D03*
D11*
X434725000Y-42590000D03*
D10*
X435487000Y-37510000D03*
D13*
X425835000Y-40050000D03*
X432185000Y-37510000D03*
%TD*%
D10*
%TO.C,SW63*%
X313022500Y-116250000D03*
D11*
X315027500Y-118790000D03*
D12*
X320107500Y-118790000D03*
D11*
X325187500Y-118790000D03*
D10*
X325949500Y-113710000D03*
D13*
X316297500Y-116250000D03*
X322647500Y-113710000D03*
%TD*%
D10*
%TO.C,SW37*%
X317785000Y-78150000D03*
D11*
X319790000Y-80690000D03*
D12*
X324870000Y-80690000D03*
D11*
X329950000Y-80690000D03*
D10*
X330712000Y-75610000D03*
D13*
X321060000Y-78150000D03*
X327410000Y-75610000D03*
%TD*%
D10*
%TO.C,SW4*%
X85697500Y-40050000D03*
D11*
X87702500Y-42590000D03*
D12*
X92782500Y-42590000D03*
D11*
X97862500Y-42590000D03*
D10*
X98624500Y-37510000D03*
D13*
X88972500Y-40050000D03*
X95322500Y-37510000D03*
%TD*%
D10*
%TO.C,SW23*%
X308260000Y-59100000D03*
D11*
X310265000Y-61640000D03*
D12*
X315345000Y-61640000D03*
D11*
X320425000Y-61640000D03*
D10*
X321187000Y-56560000D03*
D13*
X311535000Y-59100000D03*
X317885000Y-56560000D03*
%TD*%
D10*
%TO.C,SW17*%
X66647500Y-59100000D03*
D11*
X68652500Y-61640000D03*
D12*
X73732500Y-61640000D03*
D11*
X78812500Y-61640000D03*
D10*
X79574500Y-56560000D03*
D13*
X69922500Y-59100000D03*
X76272500Y-56560000D03*
%TD*%
D10*
%TO.C,SW24*%
X327310000Y-59100000D03*
D11*
X329315000Y-61640000D03*
D12*
X334395000Y-61640000D03*
D11*
X339475000Y-61640000D03*
D10*
X340237000Y-56560000D03*
D13*
X330585000Y-59100000D03*
X336935000Y-56560000D03*
%TD*%
D10*
%TO.C,SW51*%
X322547500Y-97200000D03*
D11*
X324552500Y-99740000D03*
D12*
X329632500Y-99740000D03*
D11*
X334712500Y-99740000D03*
D10*
X335474500Y-94660000D03*
D13*
X325822500Y-97200000D03*
X332172500Y-94660000D03*
%TD*%
D10*
%TO.C,SW76*%
X403510000Y-135300000D03*
D11*
X405515000Y-137840000D03*
D12*
X410595000Y-137840000D03*
D11*
X415675000Y-137840000D03*
D10*
X416437000Y-132760000D03*
D13*
X406785000Y-135300000D03*
X413135000Y-132760000D03*
%TD*%
D10*
%TO.C,SW9*%
X308260000Y-40050000D03*
D11*
X310265000Y-42590000D03*
D12*
X315345000Y-42590000D03*
D11*
X320425000Y-42590000D03*
D10*
X321187000Y-37510000D03*
D13*
X311535000Y-40050000D03*
X317885000Y-37510000D03*
%TD*%
D10*
%TO.C,SW50*%
X303497500Y-97200000D03*
D11*
X305502500Y-99740000D03*
D12*
X310582500Y-99740000D03*
D11*
X315662500Y-99740000D03*
D10*
X316424500Y-94660000D03*
D13*
X306772500Y-97200000D03*
X313122500Y-94660000D03*
%TD*%
D10*
%TO.C,SW46*%
X99985000Y-97200000D03*
D11*
X101990000Y-99740000D03*
D12*
X107070000Y-99740000D03*
D11*
X112150000Y-99740000D03*
D10*
X112912000Y-94660000D03*
D13*
X103260000Y-97200000D03*
X109610000Y-94660000D03*
%TD*%
D10*
%TO.C,SW45*%
X80935000Y-97200000D03*
D11*
X82940000Y-99740000D03*
D12*
X88020000Y-99740000D03*
D11*
X93100000Y-99740000D03*
D10*
X93862000Y-94660000D03*
D13*
X84210000Y-97200000D03*
X90560000Y-94660000D03*
%TD*%
D10*
%TO.C,SW66*%
X370172500Y-116250000D03*
D11*
X372177500Y-118790000D03*
D12*
X377257500Y-118790000D03*
D11*
X382337500Y-118790000D03*
D10*
X383099500Y-113710000D03*
D13*
X373447500Y-116250000D03*
X379797500Y-113710000D03*
%TD*%
D10*
%TO.C,SW34*%
X133322500Y-78150000D03*
D11*
X135327500Y-80690000D03*
D12*
X140407500Y-80690000D03*
D11*
X145487500Y-80690000D03*
D10*
X146249500Y-75610000D03*
D13*
X136597500Y-78150000D03*
X142947500Y-75610000D03*
%TD*%
D10*
%TO.C,SW33*%
X114272500Y-78150000D03*
D11*
X116277500Y-80690000D03*
D12*
X121357500Y-80690000D03*
D11*
X126437500Y-80690000D03*
D10*
X127199500Y-75610000D03*
D13*
X117547500Y-78150000D03*
X123897500Y-75610000D03*
%TD*%
D10*
%TO.C,SW42*%
X417797500Y-78150000D03*
D11*
X419802500Y-80690000D03*
D12*
X424882500Y-80690000D03*
D11*
X429962500Y-80690000D03*
D10*
X430724500Y-75610000D03*
D13*
X421072500Y-78150000D03*
X427422500Y-75610000D03*
%TD*%
D10*
%TO.C,SW55*%
X410653750Y-97200000D03*
D11*
X412658750Y-99740000D03*
D12*
X417738750Y-99740000D03*
D11*
X422818750Y-99740000D03*
D10*
X423580750Y-94660000D03*
D13*
X413928750Y-97200000D03*
X420278750Y-94660000D03*
%TD*%
D10*
%TO.C,SW64*%
X332072500Y-116250000D03*
D11*
X334077500Y-118790000D03*
D12*
X339157500Y-118790000D03*
D11*
X344237500Y-118790000D03*
D10*
X344999500Y-113710000D03*
D13*
X335347500Y-116250000D03*
X341697500Y-113710000D03*
%TD*%
D18*
%TO.C,D56*%
X56743750Y-129060000D03*
D19*
X56743750Y-118900000D03*
%TD*%
D18*
%TO.C,D16*%
X63887500Y-71910000D03*
D19*
X63887500Y-61750000D03*
%TD*%
D18*
%TO.C,D8*%
X305415000Y-52860000D03*
D19*
X305415000Y-42700000D03*
%TD*%
D18*
%TO.C,D74*%
X381700000Y-148110000D03*
D19*
X381700000Y-137950000D03*
%TD*%
D18*
%TO.C,D59*%
X125800000Y-129060000D03*
D19*
X125800000Y-118900000D03*
%TD*%
D18*
%TO.C,D27*%
X400750000Y-71910000D03*
D19*
X400750000Y-61750000D03*
%TD*%
D18*
%TO.C,D30*%
X73412500Y-90960000D03*
D19*
X73412500Y-80800000D03*
%TD*%
D18*
%TO.C,D6*%
X140087500Y-52860000D03*
D19*
X140087500Y-42700000D03*
%TD*%
D18*
%TO.C,D47*%
X135325000Y-110010000D03*
D19*
X135325000Y-99850000D03*
%TD*%
D18*
%TO.C,D2*%
X63887500Y-52860000D03*
D19*
X63887500Y-42700000D03*
%TD*%
D18*
%TO.C,D31*%
X92462500Y-90960000D03*
D19*
X92462500Y-80800000D03*
%TD*%
D18*
%TO.C,D12*%
X381700000Y-52860000D03*
D19*
X381700000Y-42700000D03*
%TD*%
D18*
%TO.C,D66*%
X386462500Y-129060000D03*
D19*
X386462500Y-118900000D03*
%TD*%
D18*
%TO.C,D70*%
X90081250Y-148110000D03*
D19*
X90081250Y-137950000D03*
%TD*%
D18*
%TO.C,D53*%
X376937500Y-110010000D03*
D19*
X376937500Y-99850000D03*
%TD*%
D18*
%TO.C,D65*%
X367412500Y-129060000D03*
D19*
X367412500Y-118900000D03*
%TD*%
D18*
%TO.C,D17*%
X82937500Y-71910000D03*
D19*
X82937500Y-61750000D03*
%TD*%
D18*
%TO.C,D39*%
X372175000Y-90960000D03*
D19*
X372175000Y-80800000D03*
%TD*%
D18*
%TO.C,D23*%
X324550000Y-71910000D03*
D19*
X324550000Y-61750000D03*
%TD*%
D18*
%TO.C,D40*%
X391225000Y-90960000D03*
D19*
X391225000Y-80800000D03*
%TD*%
D18*
%TO.C,D72*%
X175806250Y-148110000D03*
D19*
X175806250Y-137950000D03*
%TD*%
D18*
%TO.C,D22*%
X305415000Y-71910000D03*
D19*
X305415000Y-61750000D03*
%TD*%
D18*
%TO.C,D3*%
X82937500Y-52860000D03*
D19*
X82937500Y-42700000D03*
%TD*%
D18*
%TO.C,D34*%
X149612500Y-90960000D03*
D19*
X149612500Y-80800000D03*
%TD*%
D18*
%TO.C,D25*%
X362650000Y-71910000D03*
D19*
X362650000Y-61750000D03*
%TD*%
D18*
%TO.C,D15*%
X44837500Y-71910000D03*
D19*
X44837500Y-61750000D03*
%TD*%
D18*
%TO.C,D26*%
X381700000Y-71910000D03*
D19*
X381700000Y-61750000D03*
%TD*%
D18*
%TO.C,D36*%
X314977500Y-91010000D03*
D19*
X314977500Y-80850000D03*
%TD*%
D18*
%TO.C,D14*%
X438850000Y-52860000D03*
D19*
X438850000Y-42700000D03*
%TD*%
D18*
%TO.C,D37*%
X334075000Y-90960000D03*
D19*
X334075000Y-80800000D03*
%TD*%
D18*
%TO.C,D11*%
X362650000Y-52860000D03*
D19*
X362650000Y-42700000D03*
%TD*%
D18*
%TO.C,D50*%
X319787500Y-110010000D03*
D19*
X319787500Y-99850000D03*
%TD*%
D18*
%TO.C,D38*%
X353125000Y-90960000D03*
D19*
X353125000Y-80800000D03*
%TD*%
D18*
%TO.C,D45*%
X97225000Y-110010000D03*
D19*
X97225000Y-99850000D03*
%TD*%
D18*
%TO.C,D54*%
X395987500Y-110010000D03*
D19*
X395987500Y-99850000D03*
%TD*%
D18*
%TO.C,D67*%
X419800000Y-129060000D03*
D19*
X419800000Y-118900000D03*
%TD*%
D18*
%TO.C,D19*%
X121037500Y-71910000D03*
D19*
X121037500Y-61750000D03*
%TD*%
D18*
%TO.C,D62*%
X310177500Y-129060000D03*
D19*
X310177500Y-118900000D03*
%TD*%
D18*
%TO.C,D41*%
X410275000Y-90960000D03*
D19*
X410275000Y-80800000D03*
%TD*%
D18*
%TO.C,D68*%
X47218750Y-148110000D03*
D19*
X47218750Y-137950000D03*
%TD*%
D18*
%TO.C,D57*%
X87700000Y-129060000D03*
D19*
X87700000Y-118900000D03*
%TD*%
D18*
%TO.C,D64*%
X348362500Y-129060000D03*
D19*
X348362500Y-118900000D03*
%TD*%
D18*
%TO.C,D33*%
X130562500Y-90960000D03*
D19*
X130562500Y-80800000D03*
%TD*%
D18*
%TO.C,D58*%
X106750000Y-129060000D03*
D19*
X106750000Y-118900000D03*
%TD*%
D18*
%TO.C,D35*%
X168737500Y-90960000D03*
D19*
X168737500Y-80800000D03*
%TD*%
D18*
%TO.C,D75*%
X400750000Y-148110000D03*
D19*
X400750000Y-137950000D03*
%TD*%
D18*
%TO.C,D51*%
X338837500Y-110010000D03*
D19*
X338837500Y-99850000D03*
%TD*%
D18*
%TO.C,D44*%
X78175000Y-110010000D03*
D19*
X78175000Y-99850000D03*
%TD*%
D18*
%TO.C,D10*%
X343600000Y-52860000D03*
D19*
X343600000Y-42700000D03*
%TD*%
D18*
%TO.C,D49*%
X300652500Y-110010000D03*
D19*
X300652500Y-99850000D03*
%TD*%
D18*
%TO.C,D20*%
X140087500Y-71910000D03*
D19*
X140087500Y-61750000D03*
%TD*%
D18*
%TO.C,D21*%
X159137500Y-71910000D03*
D19*
X159137500Y-61750000D03*
%TD*%
D18*
%TO.C,D69*%
X68650000Y-148110000D03*
D19*
X68650000Y-137950000D03*
%TD*%
D18*
%TO.C,D61*%
X163900000Y-129060000D03*
D19*
X163900000Y-118900000D03*
%TD*%
D18*
%TO.C,D71*%
X113893750Y-148110000D03*
D19*
X113893750Y-137950000D03*
%TD*%
D18*
%TO.C,D48*%
X154375000Y-110010000D03*
D19*
X154375000Y-99850000D03*
%TD*%
D18*
%TO.C,D55*%
X426943750Y-110010000D03*
D19*
X426943750Y-99850000D03*
%TD*%
D18*
%TO.C,D76*%
X419800000Y-148110000D03*
D19*
X419800000Y-137950000D03*
%TD*%
D18*
%TO.C,D63*%
X329312500Y-129060000D03*
D19*
X329312500Y-118900000D03*
%TD*%
D18*
%TO.C,D18*%
X101987500Y-71910000D03*
D19*
X101987500Y-61750000D03*
%TD*%
D18*
%TO.C,D7*%
X159137500Y-52860000D03*
D19*
X159137500Y-42700000D03*
%TD*%
D18*
%TO.C,D77*%
X438850000Y-148110000D03*
D19*
X438850000Y-137950000D03*
%TD*%
D18*
%TO.C,D4*%
X101987500Y-52860000D03*
D19*
X101987500Y-42700000D03*
%TD*%
D18*
%TO.C,D32*%
X111512500Y-90960000D03*
D19*
X111512500Y-80800000D03*
%TD*%
D18*
%TO.C,D28*%
X429325000Y-71910000D03*
D19*
X429325000Y-61750000D03*
%TD*%
D18*
%TO.C,D29*%
X49600000Y-90960000D03*
D19*
X49600000Y-80800000D03*
%TD*%
D18*
%TO.C,D52*%
X357887500Y-110010000D03*
D19*
X357887500Y-99850000D03*
%TD*%
D18*
%TO.C,D5*%
X121037500Y-52860000D03*
D19*
X121037500Y-42700000D03*
%TD*%
D18*
%TO.C,D73*%
X362650000Y-148110000D03*
D19*
X362650000Y-137950000D03*
%TD*%
D18*
%TO.C,D9*%
X324550000Y-52860000D03*
D19*
X324550000Y-42700000D03*
%TD*%
D18*
%TO.C,D1*%
X44837500Y-52860000D03*
D19*
X44837500Y-42700000D03*
%TD*%
D18*
%TO.C,D24*%
X343600000Y-71910000D03*
D19*
X343600000Y-61750000D03*
%TD*%
D18*
%TO.C,D46*%
X116275000Y-110010000D03*
D19*
X116275000Y-99850000D03*
%TD*%
D18*
%TO.C,D42*%
X434087500Y-90960000D03*
D19*
X434087500Y-80800000D03*
%TD*%
D18*
%TO.C,D43*%
X51981250Y-110010000D03*
D19*
X51981250Y-99850000D03*
%TD*%
D18*
%TO.C,D60*%
X144850000Y-129060000D03*
D19*
X144850000Y-118900000D03*
%TD*%
D18*
%TO.C,D13*%
X400750000Y-52860000D03*
D19*
X400750000Y-42700000D03*
%TD*%
M02*
