M48
; DRILL file KiCad 10.0.1 date 2026-05-23T15:45:29
; FORMAT={-:-/ absolute / metric / decimal}
; #@! TF.CreationDate,2026-05-23T15:45:29+08:00
; #@! TF.GenerationSoftware,Kicad,Pcbnew,10.0.1
; #@! TF.FileFunction,NonPlated,1,2,NPTH
FMAT,2
METRIC
; #@! TA.AperFunction,NonPlated,NPTH,ComponentDrill
T1C1.700
; #@! TA.AperFunction,NonPlated,NPTH,ComponentDrill
T2C3.050
; #@! TA.AperFunction,NonPlated,NPTH,ComponentDrill
T3C4.000
%
G90
G05
T1
X31.1Y-42.65
X31.1Y-61.7
X33.481Y-137.9
X35.862Y-80.75
X38.244Y-99.8
X41.26Y-42.65
X41.26Y-61.7
X43.006Y-118.85
X43.641Y-137.9
X46.023Y-80.75
X48.404Y-99.8
X50.15Y-42.65
X50.15Y-61.7
X53.166Y-118.85
X54.912Y-137.9
X59.675Y-80.75
X60.31Y-42.65
X60.31Y-61.7
X64.438Y-99.8
X65.072Y-137.9
X69.2Y-42.65
X69.2Y-61.7
X69.835Y-80.75
X73.962Y-118.85
X74.597Y-99.8
X76.344Y-137.9
X78.725Y-80.75
X79.36Y-42.65
X79.36Y-61.7
X83.487Y-99.8
X84.123Y-118.85
X86.504Y-137.9
X88.25Y-42.65
X88.25Y-61.7
X88.885Y-80.75
X93.013Y-118.85
X93.647Y-99.8
X97.775Y-80.75
X98.41Y-42.65
X98.41Y-61.7
X100.156Y-137.9
X102.537Y-99.8
X103.172Y-118.85
X107.3Y-42.65
X107.3Y-61.7
X107.935Y-80.75
X110.316Y-137.9
X112.062Y-118.85
X112.697Y-99.8
X116.825Y-80.75
X117.46Y-42.65
X117.46Y-61.7
X121.587Y-99.8
X122.222Y-118.85
X126.35Y-42.65
X126.35Y-61.7
X126.985Y-80.75
X131.112Y-118.85
X131.748Y-99.8
X135.875Y-80.75
X136.51Y-42.65
X136.51Y-61.7
X140.637Y-99.8
X141.272Y-118.85
X145.4Y-42.65
X145.4Y-61.7
X146.035Y-80.75
X150.162Y-118.85
X150.797Y-99.8
X155.0Y-80.75
X155.56Y-42.65
X155.56Y-61.7
X160.322Y-118.85
X162.069Y-137.9
X165.16Y-80.75
X172.229Y-137.9
X286.915Y-99.8
X291.678Y-42.65
X291.678Y-61.7
X296.44Y-118.85
X297.075Y-99.8
X301.24Y-80.8
X301.837Y-42.65
X301.837Y-61.7
X306.05Y-99.8
X306.6Y-118.85
X310.812Y-42.65
X310.812Y-61.7
X311.4Y-80.8
X315.575Y-118.85
X316.21Y-99.8
X320.337Y-80.75
X320.972Y-42.65
X320.972Y-61.7
X325.1Y-99.8
X325.735Y-118.85
X329.863Y-42.65
X329.863Y-61.7
X330.498Y-80.75
X334.625Y-118.85
X335.26Y-99.8
X339.387Y-80.75
X340.022Y-42.65
X340.022Y-61.7
X344.15Y-99.8
X344.785Y-118.85
X348.912Y-42.65
X348.912Y-61.7
X348.912Y-137.9
X349.547Y-80.75
X353.675Y-118.85
X354.31Y-99.8
X358.438Y-80.75
X359.072Y-42.65
X359.072Y-61.7
X359.072Y-137.9
X363.2Y-99.8
X363.835Y-118.85
X367.962Y-42.65
X367.962Y-61.7
X367.962Y-137.9
X368.597Y-80.75
X372.725Y-118.85
X373.36Y-99.8
X377.487Y-80.75
X378.123Y-42.65
X378.123Y-61.7
X378.123Y-137.9
X382.25Y-99.8
X382.885Y-118.85
X387.012Y-42.65
X387.012Y-61.7
X387.012Y-137.9
X387.647Y-80.75
X392.41Y-99.8
X396.537Y-80.75
X397.172Y-42.65
X397.172Y-61.7
X397.172Y-137.9
X406.062Y-118.85
X406.062Y-137.9
X406.697Y-80.75
X413.206Y-99.8
X415.587Y-61.7
X416.222Y-118.85
X416.222Y-137.9
X420.35Y-80.75
X423.366Y-99.8
X425.112Y-42.65
X425.112Y-137.9
X425.748Y-61.7
X430.51Y-80.75
X435.272Y-42.65
X435.272Y-137.9
T2
X36.186Y-111.85
X59.986Y-111.85
X406.386Y-92.8
X430.186Y-92.8
T3
X36.18Y-42.65
X36.18Y-61.7
X36.186Y-127.09
X38.561Y-137.9
X40.942Y-80.75
X43.324Y-99.8
X48.086Y-118.85
X55.23Y-42.65
X55.23Y-61.7
X59.986Y-127.09
X59.992Y-137.9
X64.755Y-80.75
X69.517Y-99.8
X74.28Y-42.65
X74.28Y-61.7
X79.042Y-118.85
X81.424Y-137.9
X83.805Y-80.75
X88.567Y-99.8
X93.33Y-42.65
X93.33Y-61.7
X98.093Y-118.85
X102.855Y-80.75
X105.236Y-137.9
X107.617Y-99.8
X112.38Y-42.65
X112.38Y-61.7
X117.142Y-118.85
X121.905Y-80.75
X126.667Y-99.8
X131.43Y-42.65
X131.43Y-61.7
X136.192Y-118.85
X140.955Y-80.75
X145.718Y-99.8
X150.48Y-42.65
X150.48Y-61.7
X155.243Y-118.85
X160.08Y-80.75
X167.149Y-137.9
X291.995Y-99.8
X296.757Y-42.65
X296.757Y-61.7
X301.52Y-118.85
X306.32Y-80.8
X311.13Y-99.8
X315.892Y-42.65
X315.892Y-61.7
X320.655Y-118.85
X325.417Y-80.75
X330.18Y-99.8
X334.942Y-42.65
X334.942Y-61.7
X339.705Y-118.85
X344.467Y-80.75
X349.23Y-99.8
X353.993Y-42.65
X353.993Y-61.7
X353.993Y-137.9
X358.755Y-118.85
X363.517Y-80.75
X368.28Y-99.8
X373.042Y-42.65
X373.042Y-61.7
X373.042Y-137.9
X377.805Y-118.85
X382.567Y-80.75
X387.33Y-99.8
X392.092Y-42.65
X392.092Y-61.7
X392.092Y-137.9
X401.618Y-80.75
X406.386Y-108.04
X411.142Y-118.85
X411.142Y-137.9
X418.286Y-99.8
X420.667Y-61.7
X425.43Y-80.75
X430.186Y-108.04
X430.192Y-42.65
X430.192Y-137.9
M30
