M48
; DRILL file KiCad 10.0.1 date 2026-06-03T21:17:04
; FORMAT={-:-/ absolute / metric / decimal}
; #@! TF.CreationDate,2026-06-03T21:17:04+08:00
; #@! TF.GenerationSoftware,Kicad,Pcbnew,10.0.1
; #@! TF.FileFunction,NonPlated,1,2,NPTH
FMAT,2
METRIC
; #@! TA.AperFunction,NonPlated,NPTH,ComponentDrill
T1C1.750
; #@! TA.AperFunction,NonPlated,NPTH,ComponentDrill
T2C4.000
%
G90
G05
T1
X30.552Y-42.59
X30.552Y-61.64
X32.934Y-137.84
X35.315Y-80.69
X37.696Y-99.74
X40.712Y-42.59
X40.712Y-61.64
X42.459Y-118.79
X43.094Y-137.84
X45.475Y-80.69
X47.856Y-99.74
X49.602Y-42.59
X49.602Y-61.64
X52.619Y-118.79
X54.365Y-137.84
X59.127Y-80.69
X59.762Y-42.59
X59.762Y-61.64
X63.89Y-99.74
X64.525Y-137.84
X68.653Y-42.59
X68.653Y-61.64
X69.287Y-80.69
X73.415Y-118.79
X74.05Y-99.74
X75.796Y-137.84
X78.177Y-80.69
X78.812Y-42.59
X78.812Y-61.64
X82.94Y-99.74
X83.575Y-118.79
X85.956Y-137.84
X87.703Y-42.59
X87.703Y-61.64
X88.337Y-80.69
X92.465Y-118.79
X93.1Y-99.74
X97.227Y-80.69
X97.862Y-42.59
X97.862Y-61.64
X99.609Y-137.84
X101.99Y-99.74
X102.625Y-118.79
X106.752Y-42.59
X106.752Y-61.64
X107.387Y-80.69
X109.769Y-137.84
X111.515Y-118.79
X112.15Y-99.74
X116.277Y-80.69
X116.912Y-42.59
X116.912Y-61.64
X121.04Y-99.74
X121.675Y-118.79
X125.802Y-42.59
X125.802Y-61.64
X126.438Y-80.69
X130.565Y-118.79
X131.2Y-99.74
X135.327Y-80.69
X135.963Y-42.59
X135.963Y-61.64
X140.09Y-99.74
X140.725Y-118.79
X144.852Y-42.59
X144.852Y-61.64
X145.487Y-80.69
X149.615Y-118.79
X150.25Y-99.74
X154.452Y-80.69
X155.012Y-42.59
X155.012Y-61.64
X159.775Y-118.79
X161.62Y-137.8
X164.612Y-80.69
X171.78Y-137.8
X286.368Y-99.74
X291.13Y-42.59
X291.13Y-61.64
X295.892Y-118.79
X296.527Y-99.74
X300.692Y-80.74
X301.29Y-42.59
X301.29Y-61.64
X305.502Y-99.74
X306.053Y-118.79
X310.265Y-42.59
X310.265Y-61.64
X310.852Y-80.74
X315.027Y-118.79
X315.662Y-99.74
X319.79Y-80.69
X320.425Y-42.59
X320.425Y-61.64
X324.553Y-99.74
X325.188Y-118.79
X329.315Y-42.59
X329.315Y-61.64
X329.95Y-80.69
X334.077Y-118.79
X334.712Y-99.74
X338.84Y-80.69
X339.475Y-42.59
X339.475Y-61.64
X343.602Y-99.74
X344.238Y-118.79
X348.365Y-42.59
X348.365Y-61.64
X348.365Y-137.84
X349.0Y-80.69
X353.127Y-118.79
X353.762Y-99.74
X357.89Y-80.69
X358.525Y-42.59
X358.525Y-61.64
X358.525Y-137.84
X362.652Y-99.74
X363.287Y-118.79
X367.415Y-42.59
X367.415Y-61.64
X367.415Y-137.84
X368.05Y-80.69
X372.178Y-118.79
X372.812Y-99.74
X376.94Y-80.69
X377.575Y-42.59
X377.575Y-61.64
X377.575Y-137.84
X381.702Y-99.74
X382.337Y-118.79
X386.465Y-42.59
X386.465Y-61.64
X386.465Y-137.84
X387.1Y-80.69
X391.862Y-99.74
X395.99Y-80.69
X396.625Y-42.59
X396.625Y-61.64
X396.625Y-137.84
X405.515Y-118.79
X405.515Y-137.84
X406.15Y-80.69
X412.659Y-99.74
X415.04Y-61.64
X415.675Y-118.79
X415.675Y-137.84
X419.803Y-80.69
X422.819Y-99.74
X424.565Y-42.59
X424.565Y-137.84
X425.2Y-61.64
X429.962Y-80.69
X434.725Y-42.59
X434.725Y-137.84
T2
X35.633Y-42.59
X35.633Y-61.64
X38.014Y-137.84
X40.395Y-80.69
X42.776Y-99.74
X47.539Y-118.79
X54.682Y-42.59
X54.682Y-61.64
X59.445Y-137.84
X64.207Y-80.69
X68.97Y-99.74
X73.733Y-42.59
X73.733Y-61.64
X78.495Y-118.79
X80.876Y-137.84
X83.257Y-80.69
X88.02Y-99.74
X92.782Y-42.59
X92.782Y-61.64
X97.545Y-118.79
X102.307Y-80.69
X104.689Y-137.84
X107.07Y-99.74
X111.832Y-42.59
X111.832Y-61.64
X116.595Y-118.79
X121.357Y-80.69
X126.12Y-99.74
X130.882Y-42.59
X130.882Y-61.64
X135.645Y-118.79
X140.407Y-80.69
X145.17Y-99.74
X149.933Y-42.59
X149.933Y-61.64
X154.695Y-118.79
X159.532Y-80.69
X166.7Y-137.8
X291.447Y-99.74
X296.21Y-42.59
X296.21Y-61.64
X300.972Y-118.79
X305.772Y-80.74
X310.582Y-99.74
X315.345Y-42.59
X315.345Y-61.64
X320.107Y-118.79
X324.87Y-80.69
X329.632Y-99.74
X334.395Y-42.59
X334.395Y-61.64
X339.157Y-118.79
X343.92Y-80.69
X348.683Y-99.74
X353.445Y-42.59
X353.445Y-61.64
X353.445Y-137.84
X358.207Y-118.79
X362.97Y-80.69
X367.732Y-99.74
X372.495Y-42.59
X372.495Y-61.64
X372.495Y-137.84
X377.257Y-118.79
X382.02Y-80.69
X386.782Y-99.74
X391.545Y-42.59
X391.545Y-61.64
X391.545Y-137.84
X401.07Y-80.69
X410.595Y-118.79
X410.595Y-137.84
X417.739Y-99.74
X420.12Y-61.64
X424.882Y-80.69
X429.645Y-42.59
X429.645Y-137.84
M30
