M48
; DRILL file KiCad 10.0.1 date 2026-06-03T21:17:04
; FORMAT={-:-/ absolute / metric / decimal}
; #@! TF.CreationDate,2026-06-03T21:17:04+08:00
; #@! TF.GenerationSoftware,Kicad,Pcbnew,10.0.1
; #@! TF.FileFunction,Plated,1,2,PTH
FMAT,2
METRIC
; #@! TA.AperFunction,Plated,PTH,ViaDrill
T1C0.300
; #@! TA.AperFunction,Plated,PTH,ComponentDrill
T2C0.900
; #@! TA.AperFunction,Plated,PTH,ComponentDrill
T3C1.000
; #@! TA.AperFunction,Plated,PTH,ComponentDrill
T4C1.100
; #@! TA.AperFunction,Plated,PTH,ComponentDrill
T5C3.050
%
G90
G05
T1
X228.8Y-114.9
X237.7Y-109.8
X248.0Y-86.3
X249.1Y-87.9
X250.0Y-89.6
X252.3Y-92.6
X272.9Y-58.7
X278.3Y-59.0
X284.0Y-55.1
X289.4Y-40.1
T2
X171.336Y-98.86
X171.336Y-101.4
X180.206Y-98.86
X180.206Y-101.4
T3
X173.5Y-48.54
X173.5Y-51.08
X173.5Y-53.62
X173.5Y-56.16
X173.5Y-58.7
X173.5Y-61.24
X173.5Y-63.78
X173.5Y-66.32
X173.5Y-68.86
X173.5Y-71.4
X173.5Y-73.94
X173.5Y-76.48
X173.5Y-79.02
X173.5Y-81.56
X181.3Y-105.6
X181.3Y-108.14
X189.43Y-97.3
X191.97Y-97.3
X225.266Y-97.1
X225.266Y-100.7
X225.266Y-123.59
X225.266Y-127.2
X227.806Y-97.1
X227.806Y-100.7
X227.806Y-123.59
X227.806Y-127.2
X230.346Y-97.1
X230.346Y-100.7
X230.346Y-123.59
X230.346Y-127.2
X232.886Y-97.1
X232.886Y-100.7
X232.886Y-123.59
X232.886Y-127.2
X235.426Y-97.1
X235.426Y-100.7
X235.426Y-123.59
X235.426Y-127.2
X237.966Y-97.1
X237.966Y-100.7
X237.966Y-123.59
X237.966Y-127.2
X240.506Y-97.1
X240.506Y-100.7
X240.506Y-123.59
X240.506Y-127.2
X243.046Y-97.1
X243.046Y-100.7
X243.046Y-123.59
X243.046Y-127.2
X245.586Y-97.1
X245.586Y-100.7
X245.586Y-123.59
X245.586Y-127.2
X248.126Y-97.1
X248.126Y-100.7
X248.126Y-123.59
X248.126Y-127.2
X250.666Y-97.1
X250.666Y-100.7
X250.666Y-123.59
X250.666Y-127.2
X253.206Y-97.1
X253.206Y-100.7
X253.206Y-123.59
X253.206Y-127.2
X255.746Y-97.1
X255.746Y-100.7
X255.746Y-123.59
X255.746Y-127.2
X258.286Y-97.1
X258.286Y-100.7
X258.286Y-123.59
X258.286Y-127.2
X260.826Y-97.1
X260.826Y-100.7
X260.826Y-123.59
X260.826Y-127.2
X263.366Y-97.1
X263.366Y-100.7
X263.366Y-123.59
X263.366Y-127.2
X265.906Y-97.1
X265.906Y-100.7
X265.906Y-123.59
X265.906Y-127.2
X268.446Y-97.1
X268.446Y-100.7
X268.446Y-123.59
X268.446Y-127.2
X270.986Y-97.1
X270.986Y-100.7
X270.986Y-123.59
X270.986Y-127.2
X273.526Y-97.1
X273.526Y-100.7
X273.526Y-123.59
X273.526Y-127.2
X276.066Y-97.1
X276.066Y-100.7
X276.066Y-123.59
X276.066Y-127.2
X278.606Y-97.1
X278.606Y-100.7
X278.606Y-123.59
X278.606Y-127.2
T4
X44.837Y-42.7
X44.837Y-52.86
X44.837Y-61.75
X44.837Y-71.91
X47.219Y-137.95
X47.219Y-148.11
X49.6Y-80.8
X49.6Y-90.96
X51.981Y-99.85
X51.981Y-110.01
X56.744Y-118.9
X56.744Y-129.06
X63.887Y-42.7
X63.887Y-52.86
X63.887Y-61.75
X63.887Y-71.91
X68.65Y-137.95
X68.65Y-148.11
X73.412Y-80.8
X73.412Y-90.96
X78.175Y-99.85
X78.175Y-110.01
X82.938Y-42.7
X82.938Y-52.86
X82.938Y-61.75
X82.938Y-71.91
X87.7Y-118.9
X87.7Y-129.06
X90.081Y-137.95
X90.081Y-148.11
X92.462Y-80.8
X92.462Y-90.96
X97.225Y-99.85
X97.225Y-110.01
X101.987Y-42.7
X101.987Y-52.86
X101.987Y-61.75
X101.987Y-71.91
X106.75Y-118.9
X106.75Y-129.06
X111.512Y-80.8
X111.512Y-90.96
X113.894Y-137.95
X113.894Y-148.11
X116.275Y-99.85
X116.275Y-110.01
X121.037Y-42.7
X121.037Y-52.86
X121.037Y-61.75
X121.037Y-71.91
X125.8Y-118.9
X125.8Y-129.06
X130.562Y-80.8
X130.562Y-90.96
X135.325Y-99.85
X135.325Y-110.01
X140.088Y-42.7
X140.088Y-52.86
X140.088Y-61.75
X140.088Y-71.91
X144.85Y-118.9
X144.85Y-129.06
X149.612Y-80.8
X149.612Y-90.96
X154.375Y-99.85
X154.375Y-110.01
X159.137Y-42.7
X159.137Y-52.86
X159.137Y-61.75
X159.137Y-71.91
X163.9Y-118.9
X163.9Y-129.06
X168.737Y-80.8
X168.737Y-90.96
X175.806Y-137.95
X175.806Y-148.11
X300.652Y-99.85
X300.652Y-110.01
X305.415Y-42.7
X305.415Y-52.86
X305.415Y-61.75
X305.415Y-71.91
X310.178Y-118.9
X310.178Y-129.06
X314.977Y-80.85
X314.977Y-91.01
X319.787Y-99.85
X319.787Y-110.01
X324.55Y-42.7
X324.55Y-52.86
X324.55Y-61.75
X324.55Y-71.91
X329.312Y-118.9
X329.312Y-129.06
X334.075Y-80.8
X334.075Y-90.96
X338.837Y-99.85
X338.837Y-110.01
X343.6Y-42.7
X343.6Y-52.86
X343.6Y-61.75
X343.6Y-71.91
X348.363Y-118.9
X348.363Y-129.06
X353.125Y-80.8
X353.125Y-90.96
X357.887Y-99.85
X357.887Y-110.01
X362.65Y-42.7
X362.65Y-52.86
X362.65Y-61.75
X362.65Y-71.91
X362.65Y-137.95
X362.65Y-148.11
X367.412Y-118.9
X367.412Y-129.06
X372.175Y-80.8
X372.175Y-90.96
X376.938Y-99.85
X376.938Y-110.01
X381.7Y-42.7
X381.7Y-52.86
X381.7Y-61.75
X381.7Y-71.91
X381.7Y-137.95
X381.7Y-148.11
X386.462Y-118.9
X386.462Y-129.06
X391.225Y-80.8
X391.225Y-90.96
X395.987Y-99.85
X395.987Y-110.01
X400.75Y-42.7
X400.75Y-52.86
X400.75Y-61.75
X400.75Y-71.91
X400.75Y-137.95
X400.75Y-148.11
X410.275Y-80.8
X410.275Y-90.96
X419.8Y-118.9
X419.8Y-129.06
X419.8Y-137.95
X419.8Y-148.11
X426.944Y-99.85
X426.944Y-110.01
X429.325Y-61.75
X429.325Y-71.91
X434.087Y-80.8
X434.087Y-90.96
X438.85Y-42.7
X438.85Y-52.86
X438.85Y-137.95
X438.85Y-148.11
T5
X31.822Y-40.05
X31.822Y-59.1
X34.204Y-135.3
X36.585Y-78.15
X38.172Y-37.51
X38.172Y-56.56
X38.966Y-97.2
X40.554Y-132.76
X42.935Y-75.61
X43.729Y-116.25
X45.316Y-94.66
X50.079Y-113.71
X50.872Y-40.05
X50.872Y-59.1
X55.635Y-135.3
X57.222Y-37.51
X57.222Y-56.56
X60.397Y-78.15
X61.985Y-132.76
X65.16Y-97.2
X66.748Y-75.61
X69.922Y-40.05
X69.922Y-59.1
X71.51Y-94.66
X74.685Y-116.25
X76.272Y-37.51
X76.272Y-56.56
X77.066Y-135.3
X79.447Y-78.15
X81.035Y-113.71
X83.416Y-132.76
X84.21Y-97.2
X85.797Y-75.61
X88.972Y-40.05
X88.972Y-59.1
X90.56Y-94.66
X93.735Y-116.25
X95.322Y-37.51
X95.322Y-56.56
X98.498Y-78.15
X100.085Y-113.71
X100.879Y-135.3
X103.26Y-97.2
X104.847Y-75.61
X107.229Y-132.76
X108.022Y-40.05
X108.022Y-59.1
X109.61Y-94.66
X112.785Y-116.25
X114.372Y-37.51
X114.372Y-56.56
X117.547Y-78.15
X119.135Y-113.71
X122.31Y-97.2
X123.897Y-75.61
X127.072Y-40.05
X127.072Y-59.1
X128.66Y-94.66
X131.835Y-116.25
X133.422Y-37.51
X133.422Y-56.56
X136.597Y-78.15
X138.185Y-113.71
X141.36Y-97.2
X142.947Y-75.61
X146.123Y-40.05
X146.123Y-59.1
X147.71Y-94.66
X150.885Y-116.25
X152.472Y-37.51
X152.472Y-56.56
X155.722Y-78.15
X157.235Y-113.71
X162.072Y-75.61
X162.89Y-135.26
X169.24Y-132.72
X287.637Y-97.2
X292.4Y-40.05
X292.4Y-59.1
X293.988Y-94.66
X297.162Y-116.25
X298.75Y-37.51
X298.75Y-56.56
X301.962Y-78.2
X303.512Y-113.71
X306.772Y-97.2
X308.312Y-75.66
X311.535Y-40.05
X311.535Y-59.1
X313.123Y-94.66
X316.298Y-116.25
X317.885Y-37.51
X317.885Y-56.56
X321.06Y-78.15
X322.647Y-113.71
X325.822Y-97.2
X327.41Y-75.61
X330.585Y-40.05
X330.585Y-59.1
X332.172Y-94.66
X335.347Y-116.25
X336.935Y-37.51
X336.935Y-56.56
X340.11Y-78.15
X341.697Y-113.71
X344.873Y-97.2
X346.46Y-75.61
X349.635Y-40.05
X349.635Y-59.1
X349.635Y-135.3
X351.222Y-94.66
X354.397Y-116.25
X355.985Y-37.51
X355.985Y-56.56
X355.985Y-132.76
X359.16Y-78.15
X360.748Y-113.71
X363.922Y-97.2
X365.51Y-75.61
X368.685Y-40.05
X368.685Y-59.1
X368.685Y-135.3
X370.272Y-94.66
X373.447Y-116.25
X375.035Y-37.51
X375.035Y-56.56
X375.035Y-132.76
X378.21Y-78.15
X379.797Y-113.71
X382.972Y-97.2
X384.56Y-75.61
X387.735Y-40.05
X387.735Y-59.1
X387.735Y-135.3
X389.322Y-94.66
X394.085Y-37.51
X394.085Y-56.56
X394.085Y-132.76
X397.26Y-78.15
X403.61Y-75.61
X406.785Y-116.25
X406.785Y-135.3
X413.135Y-113.71
X413.135Y-132.76
X413.929Y-97.2
X416.31Y-59.1
X420.279Y-94.66
X421.072Y-78.15
X422.66Y-56.56
X425.835Y-40.05
X425.835Y-135.3
X427.422Y-75.61
X432.185Y-37.51
X432.185Y-132.76
M30
